<?xml version="1.0" encoding="utf-8"?>
<!-- Generator: Adobe Illustrator 16.0.0, SVG Export Plug-In . SVG Version: 6.00 Build 0)  -->
<!DOCTYPE svg PUBLIC "-//W3C//DTD SVG 1.1//EN" "http://www.w3.org/Graphics/SVG/1.1/DTD/svg11.dtd">
<svg version="1.1" id="Layer_1" xmlns="http://www.w3.org/2000/svg" xmlns:xlink="http://www.w3.org/1999/xlink" x="0px" y="0px"
	 width="256px" height="57.334px" viewBox="0 0 256 57.334" enable-background="new 0 0 256 57.334" xml:space="preserve">
<path fill-rule="evenodd" clip-rule="evenodd" fill="#FFFFFF" d="M4.14,9.688c0.045-0.092,0.006-0.626,0.029-0.729
	C4.222,8.706,4.342,8.48,4.502,8.277C4.77,7.939,5.105,7.689,5.485,7.494c0.389-0.201,0.809-0.287,1.238-0.343
	c0.197-0.018,0.395-0.02,0.592,0.004c0.051,0.01,0.104,0.017,0.156,0.028c0.626,0.134,1.059,0.503,1.309,1.087
	c0.058,0.138,0.105,0.28,0.149,0.423c1.073,3.473,2.173,6.936,3.22,10.416c0.886,2.947,1.83,5.878,2.749,8.817
	c0.028,0.09,0.044,0.186,0.104,0.271c0.074-0.096,0.089-0.213,0.122-0.321c0.545-1.779,1.084-3.561,1.631-5.34
	c1.138-3.701,2.28-7.401,3.42-11.102c0.283-0.919,0.566-1.839,0.849-2.757c0.079-0.254,0.177-0.5,0.323-0.724
	c0.226-0.342,0.528-0.591,0.922-0.717c0.117-0.038,0.24-0.058,0.361-0.086c0.214-0.032,0.428-0.006,0.643,0.005
	c0.394,0.054,0.784,0.124,1.156,0.273c0.189,0.076,0.372,0.163,0.542,0.275c0.704,0.461,0.964,1.119,0.848,1.939
	c-0.023,0.165-0.069,0.327-0.119,0.486c-2.155,6.989-4.31,13.979-6.462,20.968c-0.416,1.349-0.828,2.699-1.243,4.048
	c-0.033,0.109-0.066,0.221-0.114,0.323c-0.224,0.484-0.595,0.804-1.103,0.964c-0.329,0.104-0.669,0.161-1.011,0.203
	c-0.809,0.097-1.604,0.024-2.384-0.208c-0.459-0.138-0.856-0.371-1.158-0.753c-0.117-0.146-0.204-0.306-0.257-0.487
	c-1.122-3.826-2.31-7.633-3.48-11.445c-1.099-3.575-2.233-7.14-3.342-10.712c-0.306-0.985-0.609-1.972-0.912-2.959
	C4.195,9.947,4.172,9.816,4.14,9.688"/>
<path fill-rule="evenodd" clip-rule="evenodd" fill="#FFFFFF" d="M177.948,50.768c-0.193-0.024-0.284-0.149-0.328-0.324
	c-0.109-0.439-0.222-0.877-0.333-1.316c-0.539-2.157-1.08-4.317-1.618-6.475c-0.023-0.092-0.047-0.186-0.057-0.28
	c-0.02-0.153,0.042-0.281,0.166-0.373c0.234-0.175,0.503-0.218,0.781-0.151c0.202,0.049,0.313,0.202,0.361,0.403
	c0.067,0.289,0.14,0.578,0.212,0.866c0.388,1.548,0.776,3.094,1.165,4.639c0.026,0.104,0.063,0.204,0.1,0.304
	c0.005,0.011,0.059,0.018,0.063,0.011c0.016-0.03,0.025-0.065,0.034-0.101c0.236-0.996,0.473-1.991,0.709-2.986
	c0.198-0.847,0.396-1.692,0.595-2.538c0.009-0.034,0.027-0.067,0.03-0.102c0.042-0.378,0.271-0.506,0.647-0.521
	c0.06-0.002,0.119-0.001,0.179,0.002c0.401,0.024,0.538,0.139,0.637,0.541c0.449,1.813,0.897,3.626,1.345,5.439
	c0.024,0.1,0.029,0.209,0.128,0.291c0.173-0.713,0.345-1.418,0.514-2.122c0.291-1.216,0.581-2.431,0.872-3.646
	c0.092-0.382,0.272-0.52,0.66-0.506c0.169,0.005,0.331,0.044,0.479,0.125c0.171,0.096,0.234,0.228,0.202,0.418
	c-0.014,0.081-0.039,0.16-0.06,0.241c-0.642,2.55-1.284,5.101-1.918,7.652c-0.063,0.252-0.171,0.438-0.421,0.528
	c-0.012,0.004-0.356,0.091-0.524,0.032c-0.446-0.144-0.477-0.253-0.548-0.537c-0.38-1.561-0.776-3.118-1.168-4.677
	c-0.04-0.161-0.085-0.322-0.128-0.482c-0.018-0.067-0.064-0.092-0.13-0.098c-0.143-0.013-0.197,0.02-0.231,0.156
	c-0.101,0.394-0.195,0.785-0.294,1.179c-0.332,1.327-0.667,2.654-0.994,3.982c-0.062,0.252-0.194,0.399-0.454,0.426
	C178.396,50.769,178.173,50.769,177.948,50.768z"/>
<path fill-rule="evenodd" clip-rule="evenodd" fill="#FFFFFF" d="M195.06,50.765c-0.225-0.034-0.319-0.186-0.344-0.394
	c-0.009-0.082-0.008-0.166-0.008-0.249c-0.001-2.489-0.001-4.978,0.001-7.466c0-0.095,0.005-0.19,0.011-0.285
	c0.017-0.246,0.16-0.394,0.388-0.455c0.113-0.031,0.234-0.042,0.353-0.042c1.048-0.003,2.097-0.001,3.144-0.002
	c0.473-0.001,0.886,0.174,1.258,0.444c0.404,0.295,0.565,0.726,0.588,1.21c0.015,0.332,0.005,0.667,0.005,1
	c0,0.273,0.005,0.547-0.002,0.82c-0.016,0.633-0.271,1.125-0.843,1.431c-0.095,0.051-0.183,0.108-0.273,0.163
	c0.021,0.131,0.102,0.222,0.162,0.322c0.49,0.815,0.984,1.63,1.476,2.445c0.055,0.092,0.111,0.183,0.157,0.279
	c0.094,0.193,0.058,0.368-0.09,0.523c-0.083,0.088-0.179,0.156-0.282,0.214c-0.058,0.029-0.32,0.224-0.59,0.12
	c-0.149-0.166-0.266-0.355-0.379-0.548c-0.571-0.964-1.145-1.925-1.717-2.888c-0.049-0.082-0.099-0.162-0.146-0.246
	c-0.046-0.08-0.114-0.109-0.207-0.107c-0.227,0.004-0.453,0.006-0.679-0.001c-0.225-0.006-0.322-0.084-0.398-0.289
	c-0.043-0.115-0.05-0.233-0.04-0.352c0.025-0.324,0.178-0.472,0.5-0.489c0.096-0.005,0.19,0,0.286-0.001
	c0.346,0,0.692,0.007,1.037-0.003c0.415-0.013,0.661-0.225,0.679-0.631c0.022-0.547,0.006-1.096,0.006-1.645
	c0-0.022-0.005-0.047-0.009-0.07c-0.057-0.321-0.238-0.509-0.561-0.563c-0.105-0.018-0.213-0.018-0.32-0.018
	c-0.597-0.002-1.192-0.003-1.788-0.001c-0.462,0.002-0.41-0.052-0.411,0.428c-0.001,2.205,0,4.41,0,6.616
	c0,0.106,0.007,0.216-0.007,0.32c-0.026,0.22-0.127,0.383-0.369,0.411C195.45,50.768,195.255,50.767,195.06,50.765z"/>
<path fill-rule="evenodd" clip-rule="evenodd" fill="#FFFFFF" d="M249.959,49.486c-0.038,0.01-0.059,0.036-0.063,0.073
	c-0.04,0.288-0.203,0.508-0.418,0.686c-0.397,0.326-0.847,0.523-1.374,0.521c-0.75-0.005-1.501-0.002-2.253-0.002
	c-0.54,0.001-0.996-0.211-1.396-0.556c-0.244-0.209-0.375-0.488-0.438-0.802c-0.078-0.401-0.055-0.808-0.042-1.211
	c0.009-0.272,0.145-0.415,0.405-0.475c0.177-0.04,0.356-0.04,0.531,0.007c0.259,0.067,0.379,0.214,0.392,0.485
	c0.009,0.214,0.005,0.429,0.003,0.644c-0.003,0.146,0.029,0.284,0.092,0.414c0.093,0.199,0.253,0.314,0.468,0.346
	c0.095,0.013,0.19,0.012,0.286,0.013c0.561,0.001,1.121,0,1.681,0c0.037,0,0.072-0.002,0.108,0c0.516,0.011,0.715-0.354,0.724-0.711
	c0.015-0.476,0.005-0.953,0.006-1.43c0-0.135-0.042-0.258-0.1-0.378c-0.102-0.211-0.271-0.327-0.505-0.344
	c-0.095-0.008-0.189-0.008-0.285-0.008c-0.632,0-1.264-0.005-1.896,0.002c-0.446,0.004-0.844-0.132-1.213-0.368
	c-0.35-0.225-0.563-0.546-0.647-0.947c-0.036-0.174-0.051-0.354-0.055-0.532c-0.008-0.394-0.007-0.787,0-1.181
	c0.002-0.167,0.017-0.334,0.045-0.497c0.081-0.461,0.325-0.811,0.735-1.044c0.369-0.211,0.757-0.331,1.189-0.324
	c0.703,0.013,1.407,0.013,2.11,0c0.46-0.008,0.868,0.131,1.248,0.371c0.302,0.189,0.528,0.443,0.596,0.81
	c0.007,0.037,0.025,0.063,0.064,0.07c0,0.476,0,0.954,0,1.43c-0.137,0.208-0.339,0.282-0.577,0.282
	c-0.059,0-0.119,0.002-0.178-0.004c-0.396-0.042-0.551-0.263-0.533-0.579c0.008-0.167,0.006-0.334,0-0.5
	c-0.019-0.45-0.245-0.753-0.759-0.754c-0.024-0.001-0.049-0.001-0.071-0.001c-0.571,0-1.143,0.001-1.714-0.001
	c-0.12,0-0.235,0.014-0.352,0.044c-0.161,0.042-0.273,0.138-0.354,0.278c-0.085,0.148-0.118,0.308-0.116,0.478
	c0.004,0.345,0.002,0.69,0.002,1.035c0,0.035-0.001,0.07,0.002,0.106c0.03,0.44,0.266,0.672,0.704,0.689
	c0.084,0.004,0.167,0.002,0.25,0.002c0.606,0,1.213,0.009,1.819-0.003c0.501-0.009,0.931,0.173,1.323,0.456
	c0.258,0.186,0.442,0.431,0.491,0.756c0.006,0.037,0.025,0.064,0.063,0.076C249.959,47.769,249.959,48.628,249.959,49.486z"/>
<path fill-rule="evenodd" clip-rule="evenodd" fill="#FFFFFF" d="M186.216,50.696c-0.241-0.157-0.32-0.324-0.232-0.604
	c0.198-0.636,0.408-1.269,0.615-1.903c0.614-1.876,1.23-3.755,1.848-5.631c0.015-0.045,0.037-0.088,0.047-0.135
	c0.089-0.38,0.344-0.55,0.718-0.579c0.31-0.024,0.62-0.021,0.929-0.003c0.41,0.023,0.659,0.25,0.787,0.618
	c0.148,0.427,0.281,0.86,0.423,1.289c0.66,2.025,1.322,4.051,1.983,6.075c0.033,0.103,0.074,0.202,0.097,0.307
	c0.054,0.241-0.024,0.411-0.229,0.553c-0.083,0.059-0.402,0.272-0.739,0.152c-0.186-0.158-0.31-0.348-0.385-0.581
	c-0.752-2.317-1.514-4.633-2.271-6.949c-0.026-0.083-0.036-0.176-0.133-0.235c-0.035,0.102-0.065,0.191-0.095,0.28
	c-0.73,2.238-1.459,4.477-2.188,6.715c-0.045,0.135-0.211,0.547-0.382,0.677C186.704,50.906,186.29,50.745,186.216,50.696z"/>
<path fill-rule="evenodd" clip-rule="evenodd" fill="#FFFFFF" d="M225.851,50.845c-0.017-0.091-0.105-0.083-0.163-0.11
	c-0.298-0.14-0.406-0.378-0.292-0.705c0.168-0.483,0.317-0.974,0.477-1.459c0.66-2.014,1.325-4.024,1.979-6.039
	c0.174-0.537,0.34-0.664,0.894-0.694c0.237-0.013,0.476,0,0.714,0c0.479-0.003,0.755,0.262,0.89,0.682
	c0.133,0.42,0.27,0.838,0.406,1.257c0.661,2.025,1.321,4.05,1.984,6.074c0.028,0.091,0.063,0.182,0.085,0.273
	c0.06,0.24-0.014,0.412-0.215,0.555c-0.081,0.058-0.207,0.051-0.248,0.167c-0.166,0-0.333,0-0.5,0
	c-0.19-0.137-0.316-0.315-0.367-0.547c-0.013-0.058-0.039-0.113-0.058-0.169c-0.738-2.261-1.479-4.521-2.218-6.782
	c-0.03-0.093-0.069-0.186-0.112-0.298c-0.103,0.146-0.127,0.29-0.17,0.425c-0.738,2.261-1.477,4.521-2.208,6.785
	c-0.076,0.233-0.179,0.437-0.376,0.586C226.185,50.845,226.018,50.845,225.851,50.845z"/>
<path fill-rule="evenodd" clip-rule="evenodd" fill="#FFFFFF" d="M214.835,50.845c-0.005-0.02-0.005-0.054-0.015-0.058
	c-0.249-0.102-0.314-0.308-0.316-0.55c-0.001-0.096-0.001-0.191-0.001-0.286c0-2.157,0-4.313,0-6.472
	c0-0.096,0.003-0.189-0.002-0.285c-0.006-0.185-0.017-0.199-0.209-0.199c-0.417-0.002-0.834-0.001-1.252-0.001
	c-0.131,0-0.261,0.001-0.392,0c-0.332-0.007-0.452-0.108-0.507-0.427c-0.013-0.07-0.016-0.144-0.012-0.214
	c0.021-0.336,0.156-0.468,0.49-0.481c0.071-0.002,0.144,0,0.215,0c1.562,0,3.122,0,4.684,0c0.106,0,0.215,0,0.321,0.007
	c0.161,0.01,0.271,0.094,0.315,0.246c0.066,0.224,0.063,0.447-0.031,0.664c-0.05,0.117-0.142,0.19-0.273,0.198
	c-0.083,0.006-0.167,0.007-0.25,0.007c-0.465,0-0.93,0-1.395,0c-0.084,0-0.167,0.001-0.251,0.003
	c-0.066,0.003-0.11,0.036-0.113,0.106c-0.004,0.107-0.004,0.215-0.004,0.322c0,2.169,0,4.337,0,6.506
	c0,0.084-0.007,0.168,0.001,0.251c0.025,0.291-0.075,0.508-0.354,0.628c-0.005,0.003-0.003,0.023-0.006,0.034
	C215.264,50.845,215.049,50.845,214.835,50.845z"/>
<path fill-rule="evenodd" clip-rule="evenodd" fill="#FFFFFF" d="M171.628,50.845c-0.424-0.179-0.362-0.277-0.362-0.769
	c0-2.229,0-4.457,0-6.684c0-0.446,0.049-0.396-0.403-0.397c-0.477-0.002-0.953-0.014-1.429,0.003
	c-0.336,0.013-0.517-0.12-0.537-0.51c-0.003-0.048-0.004-0.096-0.002-0.144c0.02-0.342,0.143-0.465,0.492-0.472
	c0.357-0.006,0.715-0.001,1.071-0.001c1.275,0,2.551-0.001,3.825,0c0.12,0,0.239,0.002,0.357,0.015
	c0.146,0.015,0.238,0.108,0.272,0.246c0.054,0.199,0.049,0.403-0.009,0.602c-0.042,0.147-0.144,0.245-0.307,0.255
	c-0.084,0.005-0.168,0.005-0.251,0.005c-0.465,0-0.93,0-1.395,0c-0.082,0.001-0.167,0.004-0.249,0.007
	c-0.056,0.002-0.091,0.039-0.094,0.087c-0.011,0.118-0.013,0.237-0.013,0.357c0,2.168,0,4.337,0,6.505c0,0.107,0,0.215-0.001,0.322
	c-0.006,0.215-0.082,0.387-0.267,0.517C172.298,50.813,172.176,50.962,171.628,50.845z"/>
<path fill-rule="evenodd" clip-rule="evenodd" fill="#FFFFFF" d="M118.83,50.696c-0.243-0.157-0.321-0.324-0.234-0.604
	c0.199-0.636,0.408-1.269,0.616-1.903c0.615-1.876,1.231-3.755,1.847-5.631c0.015-0.045,0.037-0.088,0.048-0.135
	c0.088-0.38,0.344-0.55,0.717-0.579c0.31-0.024,0.619-0.021,0.929-0.003c0.409,0.023,0.659,0.25,0.787,0.618
	c0.149,0.427,0.282,0.86,0.422,1.289c0.661,2.025,1.323,4.051,1.984,6.075c0.034,0.103,0.073,0.202,0.097,0.307
	c0.053,0.241-0.025,0.411-0.229,0.553c-0.084,0.059-0.146,0.068-0.277,0.122c-0.189,0.04-0.484,0.122-0.628-0.115
	c-0.137-0.159-0.144-0.202-0.219-0.436c-0.752-2.317-1.514-4.633-2.271-6.949c-0.027-0.083-0.036-0.176-0.133-0.235
	c-0.035,0.102-0.066,0.191-0.096,0.28c-0.729,2.238-1.458,4.477-2.188,6.715c-0.044,0.135-0.092,0.271-0.133,0.406
	C119.825,50.622,119.382,51.058,118.83,50.696z"/>
<path fill-rule="evenodd" clip-rule="evenodd" fill="#FFB81D" d="M182.866,21.829c0,2.836,0,5.672,0,8.508
	c0,0.656-0.077,1.303-0.254,1.937c-0.306,1.095-0.909,1.984-1.821,2.658c-0.753,0.556-1.568,0.989-2.467,1.257
	c-0.527,0.158-1.065,0.242-1.617,0.241c-1.953-0.001-3.905-0.001-5.857,0.001c-0.196,0-0.389-0.016-0.575-0.074
	c-0.334-0.107-0.584-0.321-0.772-0.614c-0.22-0.343-0.322-0.725-0.355-1.124c-0.028-0.335-0.023-0.671,0.042-1.003
	c0.061-0.308,0.167-0.596,0.361-0.846c0.244-0.313,0.571-0.494,0.957-0.571c0.181-0.036,0.365-0.051,0.552-0.051
	c1.582,0.003,3.163,0.001,4.745,0.001c0.247-0.001,0.494-0.003,0.737-0.06c0.174-0.039,0.341-0.094,0.497-0.177
	c0.149-0.08,0.286-0.179,0.39-0.314c0.294-0.39,0.477-0.823,0.512-1.313c0.01-0.124,0.01-0.247,0.01-0.372
	c0-5.396-0.001-10.795,0.003-16.194c0.001-0.526-0.111-1.012-0.395-1.458c-0.199-0.313-0.471-0.523-0.825-0.626
	c-0.221-0.063-0.447-0.104-0.679-0.111c-0.123-0.002-0.246-0.002-0.37-0.002c-2.518,0-5.036-0.001-7.554,0
	c-0.361,0-0.324-0.037-0.325,0.327c-0.005,3.454-0.009,6.908-0.015,10.363c-0.008,4.091-0.018,8.181-0.027,12.271
	c-0.001,0.186-0.001,0.368-0.042,0.553c-0.1,0.443-0.331,0.795-0.688,1.068c-0.299,0.229-0.634,0.382-1.003,0.459
	c-0.664,0.14-1.317,0.103-1.956-0.126c-0.414-0.147-0.736-0.412-0.949-0.802c-0.16-0.294-0.218-0.614-0.235-0.943
	c-0.006-0.088-0.003-0.177-0.003-0.265c0-8.189,0-16.38,0-24.57c0-0.354,0.019-0.706,0.104-1.052
	c0.104-0.413,0.298-0.775,0.649-1.032c0.206-0.151,0.44-0.26,0.683-0.345c0.37-0.132,0.757-0.169,1.145-0.186
	c0.08-0.004,0.159-0.001,0.24-0.001c3.604,0,7.208,0.004,10.813-0.003c0.861-0.001,1.682,0.159,2.475,0.494
	c0.563,0.238,1.11,0.505,1.62,0.841c0.467,0.309,0.865,0.697,1.197,1.15c0.5,0.683,0.801,1.448,0.945,2.279
	c0.078,0.452,0.109,0.91,0.108,1.371C182.865,16.191,182.866,19.011,182.866,21.829z"/>
<path fill-rule="evenodd" clip-rule="evenodd" fill="#FFB81D" d="M239.975,36.43c-1.237,0-2.474-0.006-3.711,0.001
	c-0.769,0.006-1.508-0.132-2.226-0.407c-0.756-0.29-1.453-0.687-2.094-1.18c-0.875-0.679-1.437-1.569-1.726-2.633
	c-0.14-0.514-0.221-1.037-0.224-1.569c-0.005-0.928-0.004-1.856-0.004-2.784c-0.001-0.223,0.036-0.438,0.107-0.649
	c0.138-0.414,0.403-0.72,0.776-0.936c0.233-0.134,0.486-0.216,0.747-0.261c0.6-0.106,1.196-0.102,1.789,0.038
	c0.295,0.071,0.571,0.187,0.812,0.375c0.398,0.313,0.601,0.73,0.654,1.228c0.012,0.122,0.011,0.247,0.011,0.371
	c0.001,0.644,0.001,1.289,0.001,1.934c0,0.239,0.028,0.476,0.083,0.709c0.053,0.226,0.147,0.434,0.254,0.638
	c0.235,0.447,0.611,0.691,1.1,0.79c0.219,0.043,0.438,0.054,0.659,0.054c0.76,0.001,1.52,0.001,2.279,0.001c1.229,0,2.456,0,3.684,0
	c0.238-0.001,0.476-0.009,0.713-0.058c0.466-0.096,0.832-0.321,1.069-0.747c0.192-0.346,0.32-0.705,0.34-1.102
	c0.004-0.08,0.008-0.159,0.008-0.239c0-1.432,0-2.862,0-4.294c0-0.258-0.027-0.51-0.105-0.758c-0.082-0.265-0.205-0.508-0.359-0.734
	c-0.171-0.25-0.409-0.41-0.691-0.511c-0.304-0.106-0.621-0.14-0.939-0.141c-0.883-0.004-1.767-0.002-2.65-0.002
	c-1.378,0-2.756-0.01-4.135,0.003c-0.956,0.01-1.854-0.208-2.718-0.602c-0.466-0.213-0.916-0.459-1.333-0.759
	c-0.741-0.532-1.296-1.221-1.662-2.059c-0.231-0.528-0.371-1.081-0.441-1.655c-0.037-0.301-0.051-0.599-0.052-0.899
	c-0.001-1.458,0.001-2.916-0.001-4.374c-0.001-0.774,0.111-1.53,0.382-2.258c0.318-0.857,0.829-1.573,1.54-2.148
	c0.221-0.181,0.458-0.33,0.704-0.471c0.576-0.327,1.174-0.608,1.806-0.817c0.575-0.191,1.167-0.281,1.771-0.282
	c2.527-0.002,5.054-0.001,7.581-0.001c0.723,0.001,1.421,0.132,2.096,0.392c0.596,0.229,1.169,0.504,1.711,0.839
	c0.918,0.564,1.567,1.359,1.975,2.354c0.207,0.51,0.326,1.041,0.392,1.589c0.039,0.334,0.045,0.669,0.045,1.006
	c0.002,0.662,0,1.324,0,1.987c0,0.168-0.013,0.333-0.047,0.5c-0.112,0.535-0.41,0.928-0.889,1.188
	c-0.212,0.115-0.438,0.189-0.674,0.232c-0.614,0.114-1.229,0.115-1.839-0.03c-0.183-0.043-0.356-0.108-0.521-0.195
	c-0.539-0.288-0.836-0.745-0.911-1.346c-0.025-0.202-0.029-0.406-0.032-0.609c-0.003-0.52-0.002-1.042-0.001-1.563
	c0.001-0.444-0.123-0.851-0.336-1.238c-0.246-0.445-0.628-0.68-1.113-0.77c-0.208-0.04-0.419-0.059-0.633-0.058
	c-2.005,0.001-4.011,0.001-6.017,0c-0.275,0-0.546,0.03-0.812,0.102c-0.375,0.1-0.669,0.307-0.877,0.638
	c-0.257,0.407-0.396,0.85-0.398,1.327c-0.006,1.229-0.007,2.456,0.001,3.685c0.003,0.514,0.146,0.992,0.446,1.418
	c0.152,0.216,0.351,0.37,0.594,0.47c0.214,0.087,0.436,0.146,0.668,0.156c0.203,0.009,0.405,0.014,0.609,0.014
	c2.146,0.002,4.293,0.005,6.439-0.001c0.833-0.003,1.632,0.146,2.402,0.464c0.622,0.257,1.219,0.565,1.771,0.949
	c0.851,0.594,1.449,1.388,1.798,2.365c0.232,0.656,0.357,1.331,0.366,2.025c0.01,0.83,0.004,1.66,0.005,2.491
	c0,0.954-0.001,1.909-0.001,2.862c-0.001,0.569-0.073,1.128-0.218,1.676c-0.232,0.892-0.66,1.673-1.32,2.321
	c-0.349,0.343-0.749,0.619-1.163,0.873c-0.705,0.433-1.451,0.767-2.262,0.944c-0.372,0.082-0.747,0.131-1.129,0.131
	C242.591,36.429,241.283,36.43,239.975,36.43z"/>
<path fill-rule="evenodd" clip-rule="evenodd" fill="#FFB81D" d="M206.638,22.101c0-4.072,0-8.146-0.001-12.219
	c0-0.337,0.021-0.671,0.09-1.002c0.043-0.198,0.108-0.391,0.206-0.571c0.133-0.246,0.313-0.448,0.549-0.596
	c0.396-0.248,0.829-0.392,1.293-0.438c0.282-0.029,0.564-0.034,0.847-0.034c3.27,0.002,6.539,0.005,9.809-0.001
	c0.86-0.001,1.683,0.162,2.473,0.501c0.447,0.191,0.884,0.404,1.305,0.647c1.001,0.579,1.704,1.414,2.129,2.485
	c0.207,0.521,0.323,1.062,0.382,1.618c0.031,0.317,0.039,0.635,0.039,0.952c0,1.714,0.002,3.428,0,5.143
	c-0.002,0.701-0.095,1.391-0.309,2.061c-0.347,1.083-0.989,1.944-1.925,2.588c-0.344,0.235-0.704,0.439-1.067,0.639
	c-0.063,0.034-0.123,0.07-0.186,0.104c-0.046,0.025-0.062,0.061-0.036,0.108c0.025,0.047,0.053,0.091,0.08,0.137
	c1.46,2.411,2.919,4.821,4.379,7.23c0.32,0.529,0.641,1.059,0.963,1.586c0.157,0.258,0.286,0.526,0.384,0.813
	c0.135,0.399,0.097,0.781-0.081,1.157c-0.098,0.201-0.226,0.379-0.376,0.543c-0.188,0.201-0.386,0.396-0.622,0.533
	c-0.457,0.265-0.916,0.533-1.447,0.626c-0.7,0.122-1.267-0.109-1.72-0.645c-0.121-0.144-0.203-0.31-0.297-0.47
	c-0.314-0.531-0.634-1.063-0.949-1.593c-1.805-3.028-3.607-6.056-5.412-9.082c-0.049-0.085-0.102-0.167-0.149-0.251
	c-0.039-0.067-0.093-0.103-0.173-0.099c-0.063,0.002-0.123-0.001-0.186-0.001c-0.742,0-1.484,0.001-2.227,0
	c-0.159,0-0.316-0.005-0.473-0.049c-0.301-0.085-0.543-0.249-0.734-0.493c-0.234-0.301-0.359-0.647-0.415-1.019
	c-0.066-0.449-0.059-0.899,0.045-1.344c0.025-0.11,0.059-0.222,0.101-0.327c0.264-0.649,0.758-0.977,1.446-1.024
	c0.123-0.008,0.247-0.005,0.372-0.005c1.315,0,2.632,0,3.949,0c0.284,0,0.563-0.027,0.84-0.095c0.426-0.104,0.747-0.342,0.966-0.726
	c0.213-0.377,0.342-0.773,0.342-1.209c-0.001-1.583,0-3.164-0.001-4.745c0-0.437-0.133-0.832-0.347-1.208
	c-0.246-0.43-0.621-0.664-1.098-0.75c-0.208-0.037-0.419-0.058-0.633-0.058c-2.332,0.001-4.665,0.001-6.998,0.001
	c-0.044,0-0.088-0.001-0.133,0.001c-0.087,0.005-0.112,0.028-0.117,0.107c-0.004,0.079-0.002,0.16-0.002,0.238
	c0,2.625,0,5.25,0,7.873c0,4.905,0,9.809-0.001,14.712c0,0.239,0.002,0.476-0.052,0.712c-0.145,0.629-0.524,1.045-1.117,1.279
	c-0.267,0.106-0.543,0.16-0.824,0.185c-0.532,0.049-1.06,0.023-1.573-0.139c-0.786-0.249-1.218-0.85-1.283-1.586
	c-0.016-0.193-0.024-0.388-0.024-0.581C206.638,30.248,206.638,26.175,206.638,22.101z"/>
<path fill-rule="evenodd" clip-rule="evenodd" fill="#FFB81D" d="M158.956,21.835c0,2.827-0.001,5.655,0,8.481
	c0,0.667-0.076,1.322-0.256,1.964c-0.306,1.084-0.902,1.97-1.807,2.64c-0.75,0.558-1.565,0.993-2.463,1.264
	c-0.536,0.162-1.082,0.246-1.643,0.246c-2.501-0.001-5.001-0.007-7.502,0.004c-0.907,0.004-1.771-0.172-2.599-0.535
	c-0.683-0.3-1.325-0.67-1.896-1.153c-0.85-0.719-1.397-1.628-1.66-2.708c-0.103-0.422-0.164-0.85-0.172-1.284
	c-0.004-0.213-0.009-0.424-0.009-0.636c0-5.54-0.001-11.079,0.001-16.62c0-0.292-0.002-0.584,0.021-0.874
	c0.087-1.107,0.42-2.126,1.108-3.013c0.218-0.281,0.474-0.523,0.739-0.758c0.214-0.188,0.451-0.339,0.698-0.479
	c0.709-0.4,1.439-0.749,2.232-0.956c0.438-0.115,0.885-0.173,1.336-0.174c2.572-0.005,5.142-0.005,7.713-0.001
	c0.788,0.001,1.54,0.177,2.265,0.48c0.571,0.24,1.127,0.512,1.644,0.853c0.461,0.304,0.854,0.686,1.182,1.13
	c0.508,0.689,0.813,1.463,0.958,2.303c0.079,0.453,0.108,0.91,0.108,1.371C158.954,16.198,158.956,19.017,158.956,21.835z
	 M154.039,21.83c0-2.643,0-5.284,0-7.926c0-0.124-0.001-0.247-0.002-0.371c-0.003-0.453-0.142-0.866-0.378-1.252
	c-0.203-0.333-0.488-0.551-0.863-0.654c-0.274-0.077-0.554-0.107-0.838-0.107c-2.006,0.001-4.011,0.002-6.018,0
	c-0.213-0.001-0.423,0.021-0.631,0.058c-0.497,0.09-0.886,0.336-1.125,0.795c-0.141,0.268-0.251,0.543-0.298,0.845
	c-0.03,0.193-0.034,0.386-0.034,0.581c-0.001,5.345-0.001,10.69-0.001,16.036c0,0.089-0.001,0.178,0.002,0.266
	c0.017,0.44,0.134,0.849,0.35,1.235c0.238,0.424,0.601,0.655,1.065,0.755c0.254,0.055,0.509,0.059,0.764,0.059
	c1.618,0,3.234,0,4.853,0c0.388,0,0.776-0.002,1.165-0.001c0.204,0.001,0.407-0.017,0.605-0.063c0.334-0.077,0.64-0.211,0.859-0.486
	c0.222-0.28,0.372-0.599,0.459-0.946c0.063-0.252,0.065-0.507,0.065-0.763C154.039,27.201,154.039,24.516,154.039,21.83z"/>
<path fill-rule="evenodd" clip-rule="evenodd" fill="#FFFFFF" d="M73.388,7.069c0.212-0.002,0.424-0.007,0.635-0.003
	c0.328,0.006,0.651,0.052,0.965,0.151c0.092,0.029,0.184,0.063,0.271,0.104c0.626,0.284,0.962,0.78,1.042,1.454
	c0.021,0.184,0.018,0.371,0.018,0.556c0.001,6.82,0.001,13.64,0,20.458c0,0.195,0.006,0.389,0.028,0.582
	c0.049,0.433,0.209,0.819,0.461,1.17c0.224,0.313,0.547,0.461,0.909,0.546c0.251,0.06,0.507,0.063,0.764,0.063
	c1.458,0,2.915,0,4.373,0c0.548,0,1.095,0,1.643-0.001c0.266,0,0.527-0.028,0.785-0.105c0.362-0.109,0.642-0.317,0.843-0.641
	c0.258-0.417,0.38-0.871,0.391-1.355c0.003-0.125,0.001-0.249,0.001-0.372c0-6.803,0-13.604,0-20.406
	c0-0.255,0.002-0.512,0.065-0.763c0.137-0.551,0.461-0.943,0.973-1.184c0.366-0.172,0.757-0.235,1.157-0.255
	c0.211-0.011,0.423-0.005,0.635-0.007c0.182,0.034,0.365,0.063,0.545,0.104c0.12,0.027,0.239,0.063,0.354,0.108
	c0.726,0.282,1.097,0.827,1.167,1.591c0.01,0.104,0.007,0.211,0.007,0.317c0,7.051,0,14.1,0.001,21.15
	c0,0.748-0.088,1.48-0.325,2.19c-0.334,1.002-0.926,1.819-1.784,2.438c-0.794,0.573-1.649,1.022-2.6,1.277
	c-0.471,0.127-0.95,0.191-1.439,0.191c-2.518,0-5.036-0.006-7.554,0.004c-0.926,0.004-1.802-0.192-2.644-0.571
	c-0.541-0.244-1.055-0.535-1.531-0.89c-1.018-0.757-1.669-1.759-1.956-2.994c-0.106-0.457-0.163-0.922-0.167-1.392
	c-0.001-0.133-0.003-0.265-0.003-0.397c0-6.97,0-13.94,0-20.912c0-0.247,0-0.493,0.056-0.738c0.129-0.551,0.445-0.954,0.951-1.202
	c0.231-0.114,0.478-0.184,0.732-0.221C73.235,7.105,73.317,7.108,73.388,7.069z"/>
<path fill-rule="evenodd" clip-rule="evenodd" fill="#FFB81D" d="M115.229,21.831c0-2.847,0-5.69,0-8.536
	c0-0.647,0.073-1.286,0.252-1.91c0.291-1.012,0.823-1.866,1.64-2.542c0.289-0.238,0.604-0.428,0.93-0.605
	c0.709-0.384,1.441-0.709,2.235-0.878c0.365-0.078,0.733-0.114,1.104-0.115c2.562-0.005,5.125-0.005,7.687-0.002
	c0.75,0.001,1.471,0.156,2.166,0.438c0.525,0.215,1.032,0.461,1.519,0.751c0.753,0.448,1.34,1.058,1.766,1.823
	c0.33,0.593,0.533,1.229,0.631,1.899c0.062,0.411,0.091,0.825,0.091,1.24c-0.002,0.778-0.001,1.555-0.001,2.334
	c0,0.247-0.03,0.492-0.102,0.73c-0.138,0.452-0.416,0.793-0.831,1.02c-0.181,0.1-0.369,0.174-0.568,0.217
	c-0.683,0.147-1.366,0.155-2.045-0.03c-0.135-0.037-0.268-0.092-0.393-0.155c-0.506-0.255-0.809-0.67-0.925-1.221
	c-0.038-0.183-0.054-0.367-0.054-0.553c0.003-0.725,0.001-1.449,0-2.175c0-0.434-0.13-0.831-0.338-1.21
	c-0.245-0.443-0.624-0.686-1.11-0.774c-0.19-0.035-0.383-0.058-0.579-0.058c-2.041,0.002-4.082,0.001-6.123,0.001
	c-0.267,0-0.528,0.035-0.785,0.106c-0.365,0.099-0.65,0.306-0.852,0.629c-0.255,0.406-0.397,0.845-0.396,1.326
	c0,0.071,0,0.143,0,0.212c0,5.355,0,10.709,0,16.063c0,0.229,0,0.459,0.046,0.687c0.071,0.353,0.211,0.672,0.414,0.967
	c0.173,0.249,0.41,0.412,0.694,0.508c0.209,0.07,0.425,0.117,0.648,0.125c0.071,0.002,0.142,0.005,0.211,0.005c2.05,0,4.1,0,6.15,0
	c0.258,0,0.51-0.03,0.759-0.098c0.376-0.102,0.666-0.313,0.872-0.645c0.253-0.407,0.39-0.849,0.39-1.329
	c0.002-0.707,0.003-1.413,0-2.12c0-0.205,0.021-0.406,0.072-0.604c0.136-0.527,0.453-0.91,0.945-1.145
	c0.201-0.097,0.413-0.161,0.63-0.199c0.59-0.101,1.179-0.098,1.762,0.038c0.209,0.047,0.407,0.119,0.594,0.223
	c0.48,0.264,0.765,0.672,0.866,1.205c0.031,0.165,0.051,0.331,0.051,0.5c-0.003,0.813,0.007,1.626-0.005,2.439
	c-0.009,0.735-0.106,1.46-0.349,2.159c-0.322,0.927-0.862,1.698-1.645,2.292c-0.729,0.556-1.523,0.991-2.397,1.277
	c-0.583,0.19-1.181,0.288-1.795,0.288c-2.51-0.002-5.019-0.007-7.528,0.003c-0.881,0.002-1.717-0.173-2.522-0.521
	c-0.562-0.243-1.093-0.541-1.588-0.899c-1.101-0.798-1.779-1.868-2.049-3.2c-0.104-0.513-0.144-1.031-0.144-1.554
	C115.229,27.449,115.229,24.64,115.229,21.831z"/>
<path fill-rule="evenodd" clip-rule="evenodd" fill="#FFFFFF" d="M37.476,12.203c-0.081,0.025-0.08,0.095-0.099,0.151
	c-0.26,0.798-0.521,1.594-0.78,2.391c-1.724,5.292-3.447,10.585-5.17,15.878c-0.486,1.493-0.97,2.986-1.46,4.479
	c-0.134,0.406-0.342,0.772-0.644,1.082c-0.337,0.348-0.747,0.525-1.231,0.52c-0.73-0.009-1.412-0.199-2.043-0.566
	c-0.091-0.053-0.178-0.114-0.261-0.181c-0.602-0.472-0.81-1.088-0.663-1.832c0.067-0.339,0.194-0.661,0.302-0.987
	c2.377-7.232,4.756-14.464,7.135-21.695c0.271-0.821,0.54-1.643,0.807-2.465c0.134-0.41,0.343-0.772,0.658-1.071
	c0.322-0.306,0.699-0.503,1.137-0.586c0.617-0.116,1.238-0.196,1.864-0.242c0.344-0.026,0.688-0.021,1.032,0.016
	c0.439,0.049,0.878,0.095,1.318,0.132c0.456,0.039,0.854,0.209,1.2,0.504c0.25,0.214,0.472,0.452,0.671,0.713
	c0.177,0.234,0.31,0.487,0.402,0.769c2.015,6.163,4.036,12.324,6.054,18.486c0.657,2.002,1.308,4.008,1.963,6.012
	c0.097,0.296,0.154,0.597,0.146,0.91c-0.013,0.435-0.175,0.806-0.469,1.122c-0.121,0.13-0.257,0.243-0.406,0.339
	c-0.634,0.401-1.331,0.601-2.078,0.624c-0.395,0.013-0.745-0.122-1.058-0.356c-0.281-0.211-0.497-0.478-0.645-0.795
	c-0.071-0.151-0.134-0.307-0.186-0.465c-2.471-7.547-4.941-15.091-7.41-22.636C37.533,12.368,37.504,12.286,37.476,12.203z"/>
<path fill-rule="evenodd" clip-rule="evenodd" fill="#FFB81D" d="M186.849,21.823c0-4.002,0.001-8.004-0.002-12.007
	c0-0.365,0.046-0.722,0.166-1.067c0.072-0.209,0.172-0.405,0.29-0.594c0.207-0.339,0.502-0.567,0.867-0.708
	c0.256-0.099,0.523-0.154,0.798-0.177c0.309-0.025,0.617-0.029,0.927-0.029c3.932,0,7.863,0,11.795,0
	c0.168,0,0.335,0.005,0.502,0.027c0.487,0.067,0.858,0.307,1.106,0.731c0.137,0.23,0.217,0.481,0.267,0.744
	c0.099,0.526,0.112,1.053-0.021,1.576c-0.062,0.242-0.163,0.466-0.326,0.658c-0.298,0.355-0.691,0.508-1.141,0.537
	c-0.132,0.009-0.266,0.004-0.397,0.004c-3.199,0.001-6.396,0.001-9.596,0.001c-0.079,0-0.159-0.002-0.237,0.002
	c-0.1,0.004-0.116,0.022-0.121,0.13c-0.004,0.071-0.001,0.143-0.001,0.212c0,6.645-0.001,13.288,0,19.934
	c0,0.398-0.05,0.35,0.354,0.35c3.444,0.002,6.892,0.001,10.337,0.001c0.168-0.001,0.334,0.007,0.501,0.037
	c0.519,0.095,0.877,0.388,1.098,0.861c0.113,0.243,0.178,0.502,0.202,0.766c0.038,0.432,0.056,0.865-0.036,1.293
	c-0.055,0.252-0.142,0.491-0.293,0.705c-0.204,0.285-0.479,0.469-0.813,0.554c-0.163,0.042-0.329,0.072-0.499,0.065
	c-0.044-0.002-0.088,0-0.132,0c-4.321,0-8.642-0.001-12.962,0c-0.382,0-0.757-0.037-1.125-0.146
	c-0.479-0.143-0.846-0.42-1.097-0.858c-0.26-0.454-0.396-0.94-0.409-1.463c-0.004-0.124-0.001-0.247-0.001-0.371
	C186.849,29.67,186.849,25.746,186.849,21.823z"/>
<path fill-rule="evenodd" clip-rule="evenodd" fill="#FFFFFF" d="M95.48,21.805c0-3.967,0-7.935,0-11.901
	c0-0.265,0.001-0.528,0.058-0.79c0.067-0.314,0.185-0.607,0.345-0.885c0.226-0.393,0.556-0.653,0.981-0.803
	c0.364-0.129,0.741-0.162,1.121-0.175c0.062-0.002,0.124-0.001,0.186-0.001c4.064,0,8.129,0,12.193,0.001
	c0.15,0,0.301,0.005,0.449,0.021c0.447,0.052,0.799,0.267,1.053,0.638c0.125,0.183,0.215,0.386,0.269,0.601
	c0.142,0.556,0.167,1.116,0.063,1.682c-0.012,0.068-0.032,0.137-0.051,0.205c-0.16,0.545-0.557,1.052-1.416,1.118
	c-0.123,0.01-0.247,0.007-0.371,0.007c-3.216,0-6.432,0-9.648,0c-0.08,0-0.159-0.002-0.238,0c-0.1,0.004-0.117,0.021-0.12,0.129
	c-0.003,0.07-0.001,0.142-0.001,0.213c0,6.644,0,13.288,0.001,19.933c0,0.11-0.048,0.247,0.034,0.327
	c0.074,0.072,0.203,0.026,0.307,0.026c3.446,0.001,6.892,0.001,10.337,0.001c0.168,0,0.334,0.006,0.501,0.035
	c0.465,0.082,0.812,0.328,1.041,0.739c0.14,0.25,0.216,0.521,0.252,0.804c0.05,0.396,0.069,0.791,0.01,1.188
	c-0.035,0.238-0.093,0.468-0.201,0.683c-0.216,0.433-0.562,0.691-1.036,0.786c-0.156,0.032-0.314,0.045-0.474,0.045
	c-4.355-0.001-8.712-0.001-13.068-0.001c-0.373,0-0.74-0.04-1.098-0.148c-0.478-0.146-0.843-0.432-1.088-0.87
	c-0.236-0.424-0.378-0.873-0.39-1.361c-0.003-0.132-0.003-0.265-0.003-0.397C95.48,29.705,95.48,25.755,95.48,21.805z"/>
<path fill-rule="evenodd" clip-rule="evenodd" fill="#FFFFFF" d="M51.48,21.514c0-4.081,0-8.163,0-12.243
	c0-0.239,0-0.478,0.052-0.713c0.139-0.627,0.508-1.052,1.102-1.291c0.266-0.106,0.543-0.159,0.824-0.186
	c0.478-0.045,0.954-0.023,1.42,0.098c0.153,0.039,0.305,0.093,0.447,0.161c0.578,0.277,0.903,0.744,0.996,1.374
	c0.03,0.202,0.034,0.404,0.034,0.608c0,7.483,0,14.965,0,22.447c0,0.088-0.001,0.177,0,0.266c0.003,0.107,0.01,0.112,0.129,0.115
	c0.079,0.002,0.159,0.001,0.238,0.001c3.71,0,7.42,0,11.131,0c0.168,0,0.335,0.005,0.501,0.036c0.415,0.074,0.733,0.29,0.954,0.648
	c0.084,0.136,0.151,0.282,0.19,0.436c0.167,0.671,0.182,1.344,0.021,2.02c-0.008,0.033-0.02,0.066-0.031,0.101
	c-0.178,0.539-0.567,0.981-1.358,1.036c-0.08,0.006-0.159,0.003-0.239,0.003c-4.593,0-9.188,0-13.781,0.001
	c-0.328,0-0.652-0.027-0.972-0.102c-0.199-0.046-0.389-0.114-0.568-0.214c-0.22-0.121-0.408-0.278-0.553-0.484
	c-0.321-0.46-0.506-0.968-0.531-1.53c-0.006-0.141-0.005-0.282-0.005-0.423C51.48,29.623,51.48,25.567,51.48,21.514z"/>
<path fill-rule="evenodd" clip-rule="evenodd" fill="#FFFFFF" d="M106.2,24.556c-1.735,0.021-3.276-1.409-3.269-3.32
	c0.006-1.873,1.514-3.297,3.271-3.294c1.818,0,3.343,1.447,3.335,3.322C109.53,23.138,107.993,24.573,106.2,24.556z"/>
<path fill-rule="evenodd" clip-rule="evenodd" fill="#FFB81D" d="M200.902,21.253c0.05,1.737-1.419,3.311-3.346,3.303
	c-1.824-0.007-3.254-1.542-3.252-3.315c0.003-1.767,1.439-3.314,3.291-3.302C199.496,17.95,200.957,19.511,200.902,21.253z"/>
<path fill-rule="evenodd" clip-rule="evenodd" fill="#FFFFFF" d="M37.369,24.375c1.728-0.026,3.089,1.421,3.1,3.062
	c0.011,1.675-1.357,3.096-3.054,3.113c-1.699,0.018-3.075-1.359-3.086-3.067C34.316,25.761,35.687,24.357,37.369,24.375z"/>
<path fill-rule="evenodd" clip-rule="evenodd" fill="#FFFFFF" d="M241.803,50.78c-0.188,0.003-0.371,0.062-0.566,0.011
	c-0.296-0.074-0.421-0.208-0.436-0.521c-0.004-0.095-0.001-0.189-0.001-0.285c0-1.669,0-3.339,0-5.008
	c0-0.095,0.002-0.189-0.001-0.285c-0.003-0.138-0.026-0.165-0.158-0.186c-0.129-0.021-0.163-0.006-0.206,0.13
	c-0.21,0.683-0.421,1.365-0.628,2.049c-0.354,1.175-0.705,2.35-1.057,3.522c-0.01,0.035-0.017,0.069-0.027,0.104
	c-0.124,0.392-0.319,0.521-0.719,0.469c-0.245-0.031-0.423-0.15-0.498-0.396c-0.117-0.375-0.234-0.751-0.351-1.127
	c-0.467-1.512-0.932-3.024-1.398-4.538c-0.01-0.033-0.021-0.067-0.031-0.102c-0.047-0.142-0.165-0.193-0.302-0.128
	c-0.026,0.014-0.055,0.052-0.059,0.08c-0.008,0.106-0.008,0.214-0.008,0.321c0,1.717,0,3.433,0,5.148
	c0,0.107,0.005,0.216-0.01,0.322c-0.032,0.222-0.158,0.36-0.381,0.418c-0.203,0.055-0.402,0.018-0.604,0.004
	c-0.264-0.122-0.337-0.345-0.335-0.615c0.005-0.464,0.001-0.929,0.001-1.395c0-1.977-0.001-3.954,0.001-5.933
	c0-0.131,0.003-0.261,0.018-0.392c0.023-0.205,0.134-0.358,0.318-0.446c0.388-0.186,0.797-0.243,1.216-0.136
	c0.437,0.111,0.724,0.374,0.852,0.823c0.349,1.236,0.716,2.469,1.077,3.702c0.166,0.57,0.333,1.142,0.501,1.712
	c0.026,0.091,0.059,0.18,0.105,0.32c0.048-0.143,0.085-0.236,0.112-0.331c0.495-1.765,0.992-3.527,1.482-5.293
	c0.081-0.295,0.175-0.567,0.447-0.743c0.291-0.188,0.608-0.262,0.952-0.232c0.229,0.02,0.444,0.084,0.652,0.177
	c0.213,0.096,0.333,0.264,0.343,0.502c0.005,0.094,0.007,0.189,0.007,0.286c0,2.417,0,4.837,0,7.255c0,0.048-0.005,0.096,0,0.144
	C242.135,50.451,242.044,50.655,241.803,50.78z"/>
<path fill-rule="evenodd" clip-rule="evenodd" fill="#FFFFFF" d="M117.188,50.785c-0.253,0.073-0.375,0.055-0.568,0.003
	c-0.261-0.069-0.393-0.199-0.419-0.464c-0.01-0.105-0.004-0.214-0.004-0.321c0-1.681,0-3.362,0-5.042c0-0.084,0.001-0.167,0-0.25
	c-0.004-0.165-0.051-0.21-0.211-0.213c-0.067,0-0.115,0.028-0.136,0.092c-0.031,0.09-0.058,0.182-0.085,0.272
	c-0.528,1.755-1.056,3.511-1.584,5.267c-0.034,0.113-0.066,0.229-0.11,0.338c-0.077,0.196-0.225,0.302-0.436,0.316
	c-0.06,0.005-0.119,0.006-0.178,0.003c-0.279-0.018-0.472-0.149-0.557-0.423c-0.141-0.455-0.283-0.909-0.422-1.365
	c-0.437-1.421-0.873-2.844-1.31-4.266c-0.01-0.034-0.029-0.067-0.035-0.101c-0.031-0.178-0.099-0.174-0.257-0.154
	c-0.065,0.009-0.114,0.037-0.116,0.109c-0.003,0.106-0.005,0.216-0.005,0.322c0,1.704,0,3.408,0,5.113
	c0,0.107,0.005,0.216-0.005,0.322c-0.021,0.23-0.145,0.359-0.363,0.43c-0.326,0.104-0.566,0.013-0.637,0.006
	c-0.257-0.134-0.311-0.358-0.309-0.629c0.006-1.407,0.003-2.813,0.003-4.221c0-1.036,0-2.073,0-3.11c0-0.107,0-0.215,0.004-0.323
	c0.01-0.237,0.133-0.407,0.344-0.503c0.402-0.183,0.821-0.236,1.252-0.108c0.408,0.121,0.667,0.377,0.787,0.797
	c0.513,1.784,1.041,3.565,1.563,5.347c0.03,0.103,0.062,0.204,0.093,0.306c0.108-0.003,0.104-0.085,0.122-0.147
	c0.312-1.111,0.621-2.223,0.932-3.335c0.202-0.723,0.403-1.445,0.608-2.167c0.143-0.5,0.504-0.798,1.024-0.855
	c0.34-0.037,0.664,0.031,0.976,0.162c0.215,0.091,0.338,0.258,0.366,0.49c0.011,0.095,0.012,0.19,0.012,0.286
	c0,2.432,0,4.863,0,7.295c0,0.036-0.001,0.071,0,0.107C117.536,50.443,117.451,50.663,117.188,50.785z"/>
<path fill-rule="evenodd" clip-rule="evenodd" fill="#FFFFFF" d="M81.784,50.778c-0.214,0.026-0.429,0.048-0.644,0.014
	c-0.291-0.106-0.372-0.324-0.369-0.62c0.01-1.108,0.004-2.217,0.004-3.324c0-1.324,0-2.646,0-3.97c0-0.083-0.001-0.167,0-0.25
	c0.008-0.407,0.137-0.593,0.519-0.711c0.359-0.108,0.721-0.138,1.091-0.036c0.312,0.086,0.521,0.271,0.639,0.571
	c0.178,0.453,0.363,0.904,0.543,1.358c0.572,1.438,1.144,2.875,1.716,4.313c0.018,0.045,0.041,0.087,0.052,0.134
	c0.04,0.153,0.091,0.174,0.267,0.153c0.069-0.007,0.109-0.043,0.11-0.112c0.003-0.108,0.004-0.215,0.004-0.322
	c0-1.787,0-3.575,0-5.364c0-0.105-0.004-0.214,0.005-0.32c0.019-0.229,0.138-0.379,0.358-0.438c0.186-0.051,0.38-0.048,0.567-0.007
	c0.241,0.053,0.358,0.2,0.378,0.455c0.006,0.083,0.004,0.167,0.004,0.25c0,2.432,0,4.862,0,7.295c0,0.07-0.001,0.142,0,0.213
	c0.003,0.239-0.112,0.41-0.316,0.521c-0.406,0.218-0.837,0.266-1.281,0.153c-0.322-0.081-0.533-0.282-0.655-0.6
	c-0.322-0.832-0.662-1.658-0.993-2.485c-0.412-1.028-0.823-2.057-1.234-3.085c-0.035-0.088-0.076-0.174-0.109-0.262
	c-0.032-0.084-0.094-0.1-0.171-0.09c-0.111,0.013-0.16,0.052-0.166,0.147c-0.006,0.095-0.003,0.191-0.003,0.286
	c0,1.752,0,3.504,0,5.256c0,0.096-0.006,0.192,0,0.287C82.115,50.451,82.022,50.653,81.784,50.778z"/>
<path fill-rule="evenodd" clip-rule="evenodd" fill="#FFFFFF" d="M128.276,50.791c-0.215,0.033-0.43,0.016-0.645-0.011
	c-0.239-0.125-0.315-0.326-0.313-0.59c0.008-0.953,0.003-1.907,0.003-2.86c0-1.502,0-3.005,0-4.506c0-0.119,0.002-0.238,0.01-0.357
	c0.014-0.222,0.128-0.387,0.327-0.476c0.453-0.198,0.92-0.237,1.393-0.071c0.25,0.089,0.415,0.271,0.512,0.517
	c0.119,0.298,0.238,0.596,0.357,0.895c0.628,1.583,1.257,3.163,1.886,4.746c0.031,0.077,0.069,0.152,0.095,0.231
	c0.031,0.104,0.105,0.114,0.195,0.107c0.136-0.012,0.162-0.035,0.167-0.174c0.005-0.096,0.002-0.192,0.002-0.287
	c0-1.787,0-3.575,0.001-5.364c0-0.106,0-0.213,0.005-0.32c0.013-0.201,0.12-0.335,0.306-0.399c0.221-0.076,0.448-0.074,0.669-0.007
	c0.199,0.062,0.315,0.207,0.326,0.422c0.005,0.084,0.004,0.166,0.004,0.251c0,2.442,0,4.887,0,7.33c0,0.024,0,0.049,0,0.071
	c-0.005,0.413-0.117,0.579-0.498,0.729c-0.317,0.125-0.649,0.155-0.983,0.097c-0.36-0.065-0.626-0.252-0.769-0.614
	c-0.438-1.12-0.891-2.233-1.339-3.351c-0.328-0.817-0.655-1.635-0.985-2.451c-0.054-0.135-0.091-0.153-0.21-0.133
	c-0.11,0.018-0.143,0.052-0.147,0.161c-0.004,0.095-0.001,0.19-0.001,0.287c0,1.764,0,3.528,0,5.292c0,0.082-0.005,0.167,0.001,0.25
	C128.665,50.492,128.546,50.688,128.276,50.791z"/>
<path fill-rule="evenodd" clip-rule="evenodd" fill="#FFFFFF" d="M136.431,50.794c-0.19,0.029-0.381,0.013-0.572-0.009
	c-0.261-0.122-0.342-0.336-0.341-0.611c0.007-0.881,0.002-1.764,0.002-2.645c0-1.598,0-3.194,0.001-4.791
	c0-0.142,0-0.284,0.028-0.427c0.042-0.213,0.172-0.34,0.369-0.393c0.125-0.033,0.26-0.045,0.39-0.045
	c1.119-0.004,2.24,0.001,3.359-0.004c0.475-0.002,0.888,0.167,1.264,0.431c0.34,0.237,0.523,0.582,0.581,0.989
	c0.022,0.164,0.028,0.333,0.028,0.499c0.002,1.679,0.002,3.359,0.001,5.04c0,0.262-0.008,0.522-0.094,0.776
	c-0.07,0.206-0.169,0.397-0.328,0.547c-0.383,0.362-0.836,0.596-1.371,0.609c-0.596,0.015-1.191,0.007-1.786,0.003
	c-0.305-0.003-0.427-0.121-0.479-0.42c-0.021-0.119-0.017-0.237,0.009-0.354c0.047-0.217,0.171-0.333,0.39-0.355
	c0.094-0.009,0.19-0.004,0.285-0.004c0.369-0.001,0.739-0.001,1.108-0.001c0.06,0,0.119-0.002,0.179,0
	c0.518,0.017,0.718-0.308,0.759-0.719c0.008-0.082,0.003-0.166,0.003-0.25c0-1.572,0-3.146,0-4.719c0-0.167,0.003-0.331-0.059-0.493
	c-0.092-0.244-0.253-0.398-0.516-0.435c-0.082-0.012-0.166-0.02-0.248-0.021c-0.763-0.001-1.526,0-2.289,0
	c-0.035,0-0.07,0.001-0.106,0.001c-0.084,0-0.136,0.037-0.138,0.125c-0.004,0.095-0.003,0.19-0.003,0.285
	c-0.003,2.145-0.005,4.29-0.007,6.435c0,0.083-0.008,0.168,0.001,0.25C136.886,50.431,136.755,50.668,136.431,50.794z"/>
<path fill-rule="evenodd" clip-rule="evenodd" fill="#FFFFFF" d="M95.728,50.789c-0.191,0.03-0.382,0.023-0.573,0
	c-0.288-0.115-0.358-0.343-0.357-0.633c0.007-1.287,0.003-2.574,0.003-3.859c0-1.192,0-2.385,0-3.576
	c0-0.119-0.002-0.239,0.013-0.355c0.033-0.254,0.183-0.411,0.432-0.46c0.116-0.023,0.237-0.032,0.354-0.032
	c1.109-0.002,2.217,0.004,3.325-0.003c0.474-0.004,0.889,0.159,1.268,0.419c0.376,0.258,0.558,0.641,0.61,1.087
	c0.015,0.13,0.013,0.262,0.013,0.393c0.001,1.692,0,3.384,0,5.076c0,0.251-0.004,0.499-0.085,0.742
	c-0.092,0.278-0.243,0.518-0.478,0.696c-0.398,0.303-0.838,0.49-1.351,0.484c-0.524-0.008-1.048-0.002-1.573-0.002
	c-0.06,0-0.12,0.001-0.179-0.003c-0.173-0.009-0.289-0.103-0.35-0.262c-0.07-0.181-0.081-0.368-0.021-0.559
	c0.057-0.179,0.176-0.28,0.357-0.304c0.082-0.013,0.167-0.008,0.25-0.008c0.405-0.001,0.81,0,1.215-0.001
	c0.096,0,0.191,0.001,0.286-0.008c0.279-0.026,0.459-0.185,0.548-0.444c0.046-0.135,0.061-0.277,0.061-0.422
	c-0.001-1.633-0.001-3.266,0-4.898c0-0.133-0.015-0.263-0.056-0.387c-0.08-0.245-0.233-0.412-0.5-0.451
	c-0.083-0.012-0.166-0.024-0.248-0.024c-0.787-0.002-1.573-0.001-2.359-0.001c-0.024,0-0.048,0.001-0.072,0.001
	c-0.07,0.002-0.113,0.039-0.118,0.106c-0.007,0.106-0.005,0.214-0.005,0.321c-0.004,2.156-0.008,4.313-0.013,6.471
	c0,0.107-0.002,0.214-0.001,0.321c0.001,0.233-0.083,0.416-0.304,0.521C95.789,50.751,95.759,50.771,95.728,50.789z"/>
<path fill-rule="evenodd" clip-rule="evenodd" fill="#FFFFFF" d="M150.142,50.765c-0.382,0-0.764,0.002-1.144,0
	c-0.54-0.003-0.997-0.214-1.393-0.564c-0.271-0.238-0.408-0.553-0.447-0.908c-0.041-0.368-0.028-0.738-0.016-1.107
	c0.009-0.259,0.124-0.389,0.373-0.456c0.177-0.048,0.356-0.046,0.532-0.007c0.278,0.063,0.399,0.212,0.408,0.504
	c0.007,0.19,0.006,0.381,0.001,0.572c-0.002,0.134,0.02,0.261,0.063,0.386c0.091,0.262,0.273,0.412,0.551,0.439
	c0.059,0.006,0.119,0.007,0.179,0.007c0.596,0,1.191,0.004,1.787-0.002c0.542-0.003,0.776-0.24,0.786-0.79
	c0.007-0.429,0.002-0.858,0-1.287c0-0.059-0.002-0.12-0.01-0.179c-0.053-0.382-0.282-0.595-0.669-0.609
	c-0.227-0.009-0.454-0.003-0.68-0.003c-0.465,0-0.931-0.008-1.395,0.002c-0.444,0.008-0.846-0.12-1.216-0.354
	c-0.41-0.259-0.635-0.636-0.696-1.11c-0.019-0.142-0.021-0.285-0.021-0.429c-0.002-0.369-0.003-0.739,0-1.108
	c0.002-0.153,0.003-0.311,0.025-0.463c0.071-0.474,0.304-0.846,0.722-1.092c0.377-0.221,0.776-0.347,1.223-0.338
	c0.703,0.014,1.405,0.013,2.108,0.001c0.459-0.008,0.866,0.134,1.247,0.37c0.454,0.282,0.651,0.717,0.692,1.227
	c0.023,0.285,0.017,0.572,0.006,0.858c-0.011,0.27-0.135,0.409-0.398,0.479c-0.177,0.045-0.355,0.046-0.531,0.001
	c-0.263-0.065-0.383-0.204-0.401-0.477c-0.012-0.19-0.004-0.382-0.005-0.572c-0.001-0.132-0.021-0.259-0.08-0.381
	c-0.089-0.184-0.219-0.312-0.425-0.344c-0.105-0.018-0.212-0.035-0.318-0.035c-0.572-0.003-1.144-0.001-1.716-0.001
	c-0.013,0-0.024,0-0.036,0c-0.548-0.007-0.778,0.31-0.789,0.803c-0.006,0.345-0.002,0.691-0.001,1.036
	c0.001,0.048,0.001,0.097,0.007,0.143c0.058,0.426,0.285,0.638,0.715,0.646c0.477,0.009,0.953,0.003,1.43,0.003
	c0.203,0,0.405,0.009,0.607-0.001c0.369-0.018,0.702,0.092,1.028,0.252c0.607,0.301,0.889,0.801,0.916,1.462
	c0.008,0.202,0.002,0.405,0.003,0.607c0,0.334-0.003,0.667,0,1.001c0.002,0.181-0.024,0.356-0.064,0.531
	c-0.063,0.272-0.186,0.519-0.395,0.707c-0.394,0.353-0.848,0.572-1.386,0.58C150.928,50.769,150.534,50.765,150.142,50.765z"/>
<path fill-rule="evenodd" clip-rule="evenodd" fill="#FFFFFF" d="M161.214,46.297c0,0.847,0.001,1.692-0.001,2.539
	c0,0.262-0.008,0.522-0.096,0.775c-0.07,0.206-0.171,0.396-0.33,0.544c-0.385,0.362-0.837,0.597-1.373,0.605
	c-0.811,0.015-1.62,0.014-2.431,0c-0.522-0.009-0.969-0.231-1.345-0.584c-0.292-0.274-0.412-0.634-0.449-1.024
	c-0.008-0.095-0.007-0.191-0.007-0.285c-0.001-1.705,0.001-3.408-0.001-5.112c0-0.204,0.015-0.405,0.063-0.603
	c0.1-0.415,0.329-0.734,0.699-0.95c0.378-0.22,0.777-0.344,1.223-0.334c0.691,0.015,1.383,0.014,2.073,0
	c0.446-0.009,0.845,0.115,1.222,0.337c0.419,0.246,0.655,0.615,0.724,1.091c0.023,0.176,0.028,0.356,0.028,0.535
	C161.216,44.652,161.214,45.475,161.214,46.297z M156.521,46.313c0,0.774,0,1.549,0.001,2.325c0,0.106-0.004,0.214,0.005,0.321
	c0.035,0.422,0.27,0.648,0.689,0.668c0.071,0.005,0.143,0.003,0.215,0.003c0.464,0,0.929,0,1.395,0c0.131,0,0.262,0.004,0.393-0.005
	c0.339-0.02,0.516-0.166,0.625-0.489c0.046-0.14,0.045-0.282,0.045-0.424c0-1.598,0-3.195,0-4.792c0-0.085,0.002-0.168-0.007-0.251
	c-0.045-0.416-0.278-0.641-0.695-0.675c-0.049-0.003-0.096-0.002-0.144-0.002c-0.56,0-1.12-0.001-1.68,0.001
	c-0.107,0.001-0.215,0.015-0.319,0.03c-0.221,0.035-0.358,0.169-0.449,0.368c-0.067,0.146-0.072,0.298-0.072,0.454
	C156.522,44.669,156.522,45.491,156.521,46.313z"/>
<path fill-rule="evenodd" clip-rule="evenodd" fill="#FFFFFF" d="M78.79,46.322c0,0.858,0,1.717,0,2.574
	c0,0.227-0.009,0.452-0.079,0.672c-0.093,0.292-0.25,0.539-0.497,0.724c-0.4,0.303-0.841,0.481-1.354,0.476
	c-0.726-0.01-1.454-0.008-2.18-0.001c-0.5,0.005-0.933-0.17-1.322-0.465c-0.363-0.275-0.54-0.657-0.583-1.104
	c-0.011-0.118-0.009-0.237-0.009-0.357c0-1.692,0-3.384,0-5.075c0-0.228,0.005-0.452,0.07-0.673
	c0.113-0.383,0.331-0.682,0.677-0.886c0.377-0.22,0.775-0.349,1.221-0.339c0.691,0.015,1.382,0.013,2.073,0
	c0.433-0.009,0.821,0.105,1.193,0.314c0.476,0.267,0.717,0.68,0.777,1.21c0.015,0.13,0.012,0.261,0.012,0.392
	C78.791,44.631,78.79,45.476,78.79,46.322z M74.097,46.314c0,0.786-0.001,1.573,0.001,2.359c0,0.143,0.004,0.288,0.033,0.427
	c0.065,0.316,0.274,0.493,0.594,0.525c0.048,0.004,0.095,0.004,0.143,0.004c0.608,0.001,1.216-0.006,1.824,0.003
	c0.494,0.007,0.716-0.255,0.771-0.708c0.006-0.047,0.006-0.095,0.006-0.143c0-1.646,0.001-3.289-0.002-4.935
	c0-0.118-0.016-0.238-0.046-0.353c-0.071-0.263-0.234-0.439-0.515-0.479c-0.106-0.014-0.213-0.021-0.32-0.021
	c-0.537-0.002-1.072-0.002-1.609,0c-0.106,0-0.214,0.008-0.32,0.021c-0.299,0.042-0.461,0.236-0.524,0.514
	c-0.031,0.138-0.033,0.282-0.033,0.425C74.095,44.741,74.097,45.528,74.097,46.314z"/>
<path fill-rule="evenodd" clip-rule="evenodd" fill="#FFFFFF" d="M102.81,46.311c0-1.215,0-2.43,0-3.646
	c0-0.155,0.002-0.308,0.07-0.453c0.082-0.176,0.206-0.292,0.401-0.315c0.105-0.014,0.213-0.023,0.32-0.023
	c1.215-0.001,2.43-0.001,3.645-0.001c0.047,0,0.096-0.001,0.143,0.002c0.245,0.019,0.372,0.124,0.42,0.36
	c0.03,0.152,0.036,0.31-0.002,0.462c-0.042,0.163-0.144,0.272-0.322,0.288c-0.107,0.009-0.214,0.009-0.321,0.009
	c-0.87,0.001-1.739,0-2.609,0c-0.095,0-0.19,0.001-0.286,0.002c-0.083,0-0.134,0.042-0.141,0.127
	c-0.005,0.07-0.004,0.142-0.004,0.214c0,1.989,0,3.979,0,5.968c0,0.349-0.021,0.327,0.332,0.327c0.941,0,1.882,0,2.823,0
	c0.071,0,0.144,0.005,0.214-0.001c0.318-0.028,0.492,0.118,0.528,0.482c0.008,0.071,0.006,0.144,0,0.214
	c-0.03,0.297-0.164,0.423-0.461,0.438c-0.06,0.003-0.119,0-0.179,0c-1.239,0-2.478,0-3.717,0c-0.095,0-0.191,0.004-0.285-0.009
	c-0.326-0.041-0.514-0.225-0.56-0.55c-0.015-0.106-0.01-0.214-0.01-0.322C102.809,48.693,102.809,47.502,102.81,46.311z"/>
<path fill-rule="evenodd" clip-rule="evenodd" fill="#FFFFFF" d="M202.517,46.306c0-1.18,0-2.359,0.001-3.539
	c0-0.119-0.004-0.239,0.01-0.356c0.04-0.318,0.215-0.489,0.534-0.524c0.105-0.013,0.214-0.013,0.32-0.013
	c1.167-0.001,2.336-0.001,3.503-0.001c0.071,0,0.144-0.002,0.215,0.003c0.233,0.019,0.341,0.107,0.407,0.331
	c0.033,0.116,0.036,0.236,0.026,0.355c-0.023,0.295-0.154,0.426-0.459,0.428c-0.702,0.007-1.405,0.004-2.108,0.004
	c-0.321,0.001-0.643-0.001-0.965,0.002c-0.149,0-0.167,0.021-0.173,0.163c-0.003,0.06-0.001,0.118-0.001,0.179
	c0,1.99,0,3.979,0,5.97c0,0.346-0.019,0.324,0.333,0.324c0.952,0,1.906,0,2.859,0c0.083,0,0.166-0.004,0.249,0.001
	c0.27,0.013,0.377,0.109,0.438,0.378c0.033,0.155,0.028,0.307-0.012,0.459c-0.045,0.171-0.16,0.261-0.327,0.288
	c-0.07,0.012-0.143,0.008-0.214,0.008c-1.287,0-2.573,0-3.859,0c-0.061,0-0.119,0.002-0.179-0.005
	c-0.367-0.037-0.559-0.229-0.592-0.594c-0.01-0.106-0.006-0.215-0.007-0.322C202.517,48.665,202.517,47.485,202.517,46.306z"/>
<path fill-rule="evenodd" clip-rule="evenodd" fill="#FFFFFF" d="M219.471,46.303c0-1.179,0-2.358,0-3.538
	c0.001-0.119-0.003-0.239,0.012-0.357c0.04-0.316,0.217-0.487,0.535-0.522c0.105-0.012,0.215-0.012,0.32-0.013
	c1.169,0,2.336,0,3.503,0c0.072,0,0.144-0.002,0.215,0.003c0.231,0.019,0.346,0.108,0.403,0.335c0.022,0.091,0.029,0.188,0.03,0.282
	c0.003,0.324-0.152,0.51-0.499,0.503c-0.751-0.01-1.501-0.002-2.252-0.002c-0.273,0.001-0.548,0.001-0.822,0.002
	c-0.084,0-0.131,0.043-0.133,0.13c-0.002,0.072-0.003,0.144-0.003,0.215c0,1.978,0,3.955,0.001,5.933
	c0,0.396-0.032,0.357,0.372,0.358c0.94,0,1.881,0,2.822,0c0.084,0,0.168-0.004,0.251,0.002c0.256,0.012,0.364,0.102,0.426,0.345
	c0.042,0.166,0.04,0.329-0.005,0.495c-0.046,0.169-0.162,0.258-0.329,0.285c-0.069,0.011-0.142,0.007-0.214,0.007
	c-1.287,0-2.573,0-3.86,0c-0.071,0-0.143,0-0.213-0.009c-0.331-0.045-0.512-0.228-0.551-0.559c-0.012-0.104-0.01-0.212-0.01-0.319
	C219.471,48.686,219.471,47.495,219.471,46.303z"/>
<path fill-rule="evenodd" clip-rule="evenodd" fill="#FFFFFF" d="M164.116,50.797c-0.191,0.021-0.382,0.015-0.573-0.007
	c-0.289-0.113-0.362-0.337-0.361-0.629c0.009-1.394,0.004-2.787,0.004-4.181c0-1.098,0-2.193,0-3.29
	c0-0.166-0.002-0.332,0.074-0.489c0.085-0.174,0.212-0.286,0.407-0.307c0.119-0.012,0.238-0.02,0.356-0.021
	c1.157-0.001,2.312-0.001,3.468-0.001c0.071,0,0.144,0.001,0.215,0.005c0.19,0.01,0.305,0.111,0.358,0.292
	c0.054,0.175,0.069,0.351,0.018,0.527c-0.057,0.192-0.156,0.274-0.357,0.29c-0.095,0.008-0.19,0.006-0.285,0.006
	c-0.846,0-1.692,0-2.538,0c-0.097,0-0.191-0.001-0.287,0.003c-0.068,0.004-0.106,0.05-0.11,0.115
	c-0.004,0.107-0.004,0.215-0.004,0.322c0,2.169,0,4.337,0,6.505c0,0.084-0.005,0.167,0,0.251
	C164.519,50.485,164.411,50.699,164.116,50.797z"/>
<path fill-rule="evenodd" clip-rule="evenodd" fill="#FFFFFF" d="M106.979,46.131c0.016,0.575-0.504,0.938-0.928,0.928
	c-0.517-0.012-0.924-0.413-0.922-0.936c0.002-0.52,0.416-0.925,0.93-0.93C106.491,45.19,106.999,45.556,106.979,46.131z"/>
<path fill-rule="evenodd" clip-rule="evenodd" fill="#FFFFFF" d="M167.355,46.125c0.001,0.521-0.4,0.928-0.922,0.931
	c-0.519,0.004-0.926-0.402-0.928-0.925c-0.003-0.52,0.408-0.937,0.922-0.936C166.942,45.198,167.354,45.608,167.355,46.125z"/>
<path fill-rule="evenodd" clip-rule="evenodd" fill="#FFFFFF" d="M206.686,46.146c-0.008,0.52-0.42,0.916-0.945,0.91
	c-0.515-0.004-0.921-0.428-0.909-0.946c0.01-0.52,0.431-0.922,0.946-0.914C206.259,45.201,206.712,45.616,206.686,46.146z"/>
<path fill-rule="evenodd" clip-rule="evenodd" fill="#FFFFFF" d="M223.639,46.148c-0.009,0.52-0.421,0.914-0.947,0.907
	c-0.514-0.005-0.919-0.431-0.908-0.95c0.014-0.519,0.435-0.92,0.95-0.91C223.214,45.203,223.667,45.616,223.639,46.148z"/>
<path fill-rule="evenodd" clip-rule="evenodd" fill="#FFFFFF" d="M229.063,48.916c-0.475-0.006-0.854-0.404-0.841-0.882
	c0.015-0.465,0.394-0.835,0.854-0.835c0.48,0.001,0.858,0.384,0.856,0.866C229.929,48.546,229.546,48.921,229.063,48.916z"/>
<path fill-rule="evenodd" clip-rule="evenodd" fill="#FFFFFF" d="M122.288,47.2c0.401-0.019,0.861,0.335,0.86,0.861
	c-0.001,0.517-0.458,0.87-0.867,0.856c-0.465-0.016-0.832-0.372-0.841-0.846C121.431,47.594,121.812,47.2,122.288,47.2z"/>
<path fill-rule="evenodd" clip-rule="evenodd" fill="#FFFFFF" d="M189.692,47.2c0.38-0.011,0.851,0.328,0.842,0.879
	c-0.009,0.486-0.444,0.859-0.884,0.839c-0.462-0.021-0.825-0.393-0.824-0.862C188.829,47.573,189.214,47.191,189.692,47.2z"/>
<path fill-rule="evenodd" clip-rule="evenodd" fill="#FFFFFF" d="M93.271,46.233c0,0.341-0.276,0.616-0.617,0.616h-3.447
	c-0.34,0-0.617-0.275-0.617-0.616V46.12c0-0.342,0.276-0.617,0.617-0.617h3.447c0.341,0,0.617,0.275,0.617,0.617V46.233z"/>
</svg>
