<?xml version="1.0" encoding="utf-8"?>
<!-- Generator: Adobe Illustrator 16.0.0, SVG Export Plug-In . SVG Version: 6.00 Build 0)  -->
<!DOCTYPE svg PUBLIC "-//W3C//DTD SVG 1.1//EN" "http://www.w3.org/Graphics/SVG/1.1/DTD/svg11.dtd">
<svg version="1.1" id="Layer_1" xmlns="http://www.w3.org/2000/svg" xmlns:xlink="http://www.w3.org/1999/xlink" x="0px" y="0px"
	 width="255px" height="55px" viewBox="0 0 255 55" enable-background="new 0 0 255 55" xml:space="preserve">
<path fill-rule="evenodd" clip-rule="evenodd" fill="#FFFFFF" d="M167.752,51.328c-0.226-0.029-0.334-0.177-0.385-0.388
	c-0.131-0.515-0.265-1.032-0.394-1.554c-0.64-2.553-1.277-5.105-1.915-7.658c-0.027-0.11-0.055-0.22-0.068-0.331
	c-0.021-0.184,0.051-0.332,0.198-0.439c0.277-0.21,0.595-0.26,0.922-0.181c0.239,0.058,0.371,0.239,0.428,0.477
	c0.081,0.343,0.167,0.683,0.252,1.026c0.459,1.827,0.917,3.656,1.379,5.484c0.031,0.122,0.073,0.242,0.117,0.359
	c0.004,0.015,0.07,0.021,0.073,0.012c0.021-0.036,0.031-0.077,0.042-0.116c0.279-1.18,0.561-2.356,0.839-3.535
	c0.235-0.999,0.467-1.999,0.701-3.001c0.014-0.039,0.033-0.078,0.038-0.122c0.048-0.445,0.318-0.594,0.766-0.613
	c0.07-0.005,0.141-0.002,0.211,0c0.475,0.029,0.638,0.166,0.752,0.64c0.533,2.145,1.063,4.291,1.591,6.435
	c0.029,0.119,0.036,0.247,0.152,0.345c0.204-0.843,0.406-1.677,0.607-2.511c0.345-1.438,0.689-2.876,1.032-4.312
	c0.107-0.451,0.322-0.613,0.78-0.599c0.2,0.007,0.391,0.053,0.566,0.147c0.202,0.113,0.275,0.269,0.238,0.494
	c-0.017,0.096-0.046,0.193-0.071,0.288c-0.757,3.015-1.516,6.031-2.267,9.049c-0.075,0.299-0.201,0.52-0.498,0.626
	c-0.015,0.005-0.422,0.106-0.62,0.038c-0.528-0.172-0.565-0.298-0.647-0.637c-0.451-1.844-0.92-3.688-1.383-5.529
	c-0.046-0.192-0.1-0.381-0.15-0.57c-0.021-0.08-0.077-0.11-0.155-0.117c-0.168-0.015-0.232,0.022-0.272,0.187
	c-0.117,0.465-0.231,0.93-0.349,1.392c-0.393,1.572-0.79,3.141-1.177,4.712c-0.072,0.296-0.229,0.472-0.535,0.505
	C168.284,51.328,168.019,51.328,167.752,51.328z"/>
<path fill-rule="evenodd" clip-rule="evenodd" fill="#FFFFFF" d="M187.992,51.324c-0.265-0.041-0.377-0.219-0.406-0.466
	c-0.01-0.097-0.008-0.196-0.008-0.295c-0.001-2.942-0.001-5.888,0-8.83c0-0.113,0.006-0.225,0.016-0.338
	c0.018-0.29,0.188-0.465,0.456-0.536c0.133-0.039,0.279-0.052,0.417-0.052c1.24-0.002,2.479,0,3.719-0.002
	c0.56,0,1.047,0.206,1.488,0.525c0.478,0.351,0.669,0.857,0.694,1.431c0.018,0.392,0.006,0.788,0.006,1.184
	c0,0.324,0.006,0.647-0.002,0.971c-0.019,0.747-0.323,1.329-0.997,1.691c-0.11,0.06-0.217,0.129-0.322,0.191
	c0.023,0.156,0.119,0.264,0.19,0.384c0.581,0.963,1.163,1.926,1.746,2.89c0.065,0.109,0.132,0.217,0.187,0.332
	c0.11,0.23,0.066,0.435-0.107,0.619c-0.097,0.103-0.21,0.186-0.336,0.252c-0.067,0.039-0.378,0.267-0.696,0.145
	c-0.177-0.196-0.313-0.422-0.448-0.648c-0.675-1.14-1.354-2.277-2.03-3.417c-0.058-0.096-0.116-0.191-0.173-0.29
	c-0.055-0.096-0.135-0.13-0.244-0.128c-0.267,0.006-0.535,0.006-0.804-0.002c-0.265-0.006-0.381-0.097-0.472-0.342
	c-0.051-0.136-0.058-0.276-0.047-0.417c0.03-0.382,0.209-0.557,0.591-0.575c0.115-0.008,0.226-0.002,0.34-0.002
	c0.409,0,0.818,0.006,1.228-0.006c0.489-0.015,0.78-0.263,0.802-0.744c0.027-0.647,0.008-1.297,0.008-1.945
	c0-0.026-0.006-0.056-0.013-0.084c-0.063-0.379-0.279-0.599-0.662-0.664c-0.124-0.021-0.252-0.023-0.379-0.023
	c-0.705,0-1.409-0.003-2.115,0c-0.547,0.002-0.485-0.061-0.486,0.505c-0.001,2.609,0,5.216,0,7.826c0,0.128,0.008,0.255-0.006,0.381
	c-0.033,0.259-0.151,0.45-0.438,0.484C188.455,51.328,188.224,51.324,187.992,51.324z"/>
<path fill-rule="evenodd" clip-rule="evenodd" fill="#FFFFFF" d="M252.928,49.812c-0.045,0.012-0.067,0.044-0.075,0.087
	c-0.046,0.342-0.238,0.603-0.492,0.812c-0.471,0.386-1.004,0.62-1.626,0.614c-0.888-0.004-1.775-0.002-2.666,0
	c-0.638,0-1.178-0.251-1.65-0.658c-0.287-0.246-0.444-0.576-0.516-0.946c-0.096-0.476-0.065-0.956-0.052-1.435
	c0.011-0.321,0.173-0.491,0.479-0.558c0.208-0.048,0.422-0.048,0.63,0.004c0.305,0.082,0.449,0.252,0.462,0.574
	c0.011,0.254,0.007,0.51,0.004,0.763c-0.004,0.172,0.035,0.336,0.108,0.49c0.111,0.236,0.301,0.369,0.555,0.408
	c0.109,0.013,0.226,0.013,0.338,0.013c0.663,0.005,1.323,0,1.987,0c0.043,0,0.085,0,0.127,0c0.61,0.015,0.846-0.419,0.858-0.837
	c0.016-0.567,0.003-1.128,0.005-1.693c0-0.159-0.05-0.306-0.117-0.445c-0.12-0.251-0.32-0.387-0.597-0.409
	c-0.112-0.006-0.225-0.006-0.339-0.006c-0.746-0.002-1.494-0.01-2.241,0c-0.526,0.006-0.997-0.154-1.433-0.436
	c-0.414-0.266-0.668-0.644-0.767-1.12c-0.042-0.205-0.062-0.419-0.065-0.631c-0.009-0.465-0.008-0.929,0-1.395
	c0.003-0.196,0.02-0.396,0.054-0.588c0.095-0.545,0.386-0.959,0.868-1.236c0.437-0.249,0.896-0.394,1.408-0.383
	c0.831,0.015,1.664,0.015,2.496,0c0.544-0.011,1.027,0.154,1.477,0.44c0.356,0.224,0.624,0.523,0.703,0.953
	c0.009,0.048,0.03,0.079,0.076,0.086c0,0.564,0,1.127,0,1.693c-0.164,0.243-0.401,0.331-0.682,0.334
	c-0.07,0-0.141,0.003-0.211-0.006c-0.47-0.049-0.651-0.311-0.631-0.687c0.011-0.194,0.008-0.393,0-0.59
	c-0.021-0.531-0.289-0.89-0.897-0.894c-0.028,0-0.058,0-0.084,0c-0.677,0-1.352,0-2.027,0c-0.141,0-0.278,0.016-0.417,0.053
	c-0.188,0.048-0.32,0.159-0.418,0.328c-0.1,0.175-0.139,0.364-0.136,0.564c0.003,0.408,0.001,0.814,0.001,1.225
	c0,0.041,0,0.084,0.002,0.124c0.037,0.524,0.313,0.797,0.834,0.818c0.099,0.002,0.197,0,0.295,0c0.718,0,1.436,0.012,2.151-0.002
	c0.593-0.013,1.102,0.205,1.565,0.538c0.305,0.221,0.523,0.509,0.58,0.895c0.009,0.046,0.031,0.076,0.074,0.092
	C252.928,47.782,252.928,48.795,252.928,49.812z"/>
<path fill-rule="evenodd" clip-rule="evenodd" fill="#FFFFFF" d="M177.534,51.244c-0.287-0.188-0.379-0.386-0.277-0.717
	c0.235-0.754,0.484-1.5,0.729-2.25c0.727-2.221,1.454-4.439,2.185-6.661c0.018-0.053,0.044-0.104,0.057-0.157
	c0.105-0.452,0.405-0.651,0.848-0.687c0.368-0.029,0.731-0.026,1.099-0.005c0.484,0.028,0.779,0.298,0.934,0.733
	c0.173,0.506,0.332,1.016,0.498,1.524c0.781,2.396,1.563,4.79,2.346,7.186c0.04,0.12,0.087,0.24,0.115,0.361
	c0.063,0.286-0.03,0.486-0.271,0.655c-0.097,0.069-0.477,0.321-0.873,0.18c-0.221-0.187-0.365-0.411-0.457-0.685
	c-0.89-2.745-1.79-5.482-2.685-8.223c-0.033-0.099-0.043-0.208-0.157-0.277c-0.042,0.118-0.077,0.225-0.113,0.332
	c-0.862,2.646-1.724,5.293-2.588,7.939c-0.053,0.162-0.251,0.648-0.453,0.803C178.11,51.491,177.62,51.301,177.534,51.244z"/>
<path fill-rule="evenodd" clip-rule="evenodd" fill="#FFFFFF" d="M224.414,51.42c-0.02-0.108-0.128-0.1-0.193-0.133
	c-0.353-0.166-0.48-0.445-0.348-0.834c0.2-0.57,0.376-1.15,0.566-1.725c0.781-2.384,1.567-4.76,2.339-7.144
	c0.207-0.636,0.402-0.786,1.058-0.822c0.28-0.015,0.563,0.003,0.844,0c0.566-0.002,0.895,0.311,1.053,0.807
	c0.157,0.497,0.318,0.993,0.48,1.49c0.782,2.394,1.565,4.788,2.348,7.184c0.034,0.106,0.075,0.214,0.1,0.32
	c0.07,0.285-0.018,0.489-0.254,0.66c-0.095,0.065-0.246,0.06-0.293,0.196c-0.196,0-0.395,0-0.592,0
	c-0.225-0.163-0.375-0.374-0.435-0.648c-0.017-0.07-0.046-0.133-0.069-0.202c-0.872-2.672-1.747-5.345-2.621-8.02
	c-0.036-0.109-0.082-0.217-0.133-0.353c-0.122,0.173-0.151,0.345-0.203,0.501c-0.872,2.675-1.745,5.351-2.609,8.026
	c-0.09,0.278-0.211,0.518-0.444,0.695C224.81,51.42,224.61,51.42,224.414,51.42z"/>
<path fill-rule="evenodd" clip-rule="evenodd" fill="#FFFFFF" d="M211.385,51.42c-0.008-0.025-0.006-0.067-0.02-0.071
	c-0.293-0.118-0.37-0.361-0.373-0.649c0-0.11,0-0.225,0-0.338c0-2.55,0-5.104,0-7.655c0-0.112,0.004-0.226-0.003-0.338
	c-0.006-0.215-0.021-0.232-0.249-0.234c-0.491-0.002-0.984,0-1.479,0c-0.155,0-0.311,0.002-0.464-0.002
	c-0.393-0.008-0.535-0.129-0.599-0.504c-0.016-0.082-0.021-0.167-0.016-0.252c0.025-0.398,0.185-0.556,0.582-0.57
	c0.083-0.003,0.168,0,0.253,0c1.847,0,3.693,0,5.54,0c0.126,0,0.254,0,0.381,0.008c0.188,0.012,0.319,0.109,0.372,0.292
	c0.078,0.264,0.075,0.531-0.036,0.786c-0.061,0.137-0.17,0.223-0.325,0.232c-0.098,0.008-0.197,0.008-0.296,0.008
	c-0.551,0.002-1.101,0.002-1.647,0.002c-0.101,0-0.199,0-0.297,0.002c-0.08,0.003-0.13,0.043-0.136,0.128
	c-0.004,0.125-0.004,0.253-0.004,0.381c0,2.562,0,5.129,0,7.695c0,0.1-0.007,0.196,0.001,0.297c0.029,0.343-0.089,0.6-0.419,0.741
	c-0.008,0.002-0.007,0.027-0.009,0.042C211.891,51.42,211.638,51.42,211.385,51.42z"/>
<path fill-rule="evenodd" clip-rule="evenodd" fill="#FFFFFF" d="M160.278,51.42c-0.5-0.214-0.428-0.329-0.428-0.909
	c0-2.636,0.001-5.271-0.001-7.908c0-0.527,0.058-0.467-0.477-0.469c-0.563-0.002-1.128-0.018-1.691,0.005
	c-0.396,0.015-0.609-0.144-0.634-0.604c-0.003-0.056-0.003-0.113-0.001-0.171c0.021-0.402,0.168-0.549,0.582-0.557
	c0.421-0.009,0.844-0.002,1.267-0.002c1.51,0,3.018,0,4.524,0c0.14,0,0.282,0.002,0.421,0.017c0.175,0.02,0.283,0.129,0.324,0.293
	c0.063,0.234,0.057,0.477-0.013,0.709c-0.049,0.175-0.168,0.29-0.362,0.303c-0.099,0.005-0.196,0.005-0.296,0.007
	c-0.548,0-1.098-0.002-1.649,0c-0.1,0-0.195,0.005-0.296,0.007c-0.064,0.002-0.105,0.046-0.109,0.104
	c-0.011,0.141-0.015,0.28-0.015,0.422c0,2.566,0,5.128,0,7.695c0,0.125,0.001,0.253-0.003,0.38
	c-0.005,0.257-0.096,0.457-0.313,0.611C161.068,51.38,160.926,51.555,160.278,51.42z"/>
<path fill-rule="evenodd" clip-rule="evenodd" fill="#FDFEFF" d="M97.829,51.244c-0.287-0.188-0.379-0.386-0.276-0.717
	c0.235-0.754,0.482-1.5,0.728-2.25c0.728-2.221,1.456-4.439,2.185-6.661c0.018-0.053,0.045-0.104,0.058-0.157
	c0.104-0.452,0.406-0.651,0.849-0.687c0.366-0.029,0.732-0.026,1.098-0.005c0.484,0.028,0.779,0.298,0.931,0.733
	c0.176,0.506,0.333,1.016,0.5,1.524c0.782,2.396,1.565,4.79,2.347,7.186c0.04,0.12,0.087,0.24,0.115,0.361
	c0.063,0.286-0.029,0.486-0.271,0.655c-0.099,0.069-0.172,0.077-0.328,0.144c-0.225,0.049-0.572,0.146-0.744-0.137
	c-0.162-0.186-0.169-0.238-0.258-0.512c-0.89-2.745-1.79-5.482-2.687-8.223c-0.032-0.099-0.042-0.208-0.157-0.277
	c-0.041,0.118-0.078,0.225-0.112,0.332c-0.863,2.646-1.726,5.293-2.589,7.939c-0.052,0.162-0.109,0.322-0.158,0.481
	C99.005,51.155,98.483,51.671,97.829,51.244z"/>
<path fill-rule="evenodd" clip-rule="evenodd" fill="#FFFFFF" d="M1.045,8.281C1.092,8.188,1.052,7.637,1.075,7.53
	c0.055-0.26,0.179-0.492,0.344-0.701c0.275-0.347,0.62-0.604,1.011-0.806c0.401-0.207,0.833-0.296,1.274-0.352
	C3.907,5.651,4.11,5.65,4.313,5.674c0.053,0.01,0.107,0.018,0.161,0.029C5.118,5.84,5.563,6.22,5.82,6.821
	C5.88,6.963,5.929,7.11,5.975,7.257c1.104,3.572,2.235,7.136,3.312,10.717c0.912,3.033,1.883,6.048,2.829,9.071
	c0.029,0.094,0.046,0.192,0.107,0.281c0.076-0.1,0.091-0.221,0.125-0.331c0.561-1.831,1.115-3.664,1.678-5.494
	c1.171-3.808,2.345-7.615,3.518-11.423c0.292-0.945,0.582-1.891,0.874-2.836c0.081-0.261,0.182-0.514,0.333-0.744
	c0.232-0.354,0.543-0.609,0.948-0.739c0.121-0.039,0.248-0.058,0.371-0.086c0.221-0.034,0.441-0.007,0.662,0.004
	c0.405,0.056,0.807,0.126,1.189,0.281c0.194,0.079,0.383,0.167,0.558,0.282c0.724,0.476,0.992,1.153,0.873,1.997
	c-0.025,0.17-0.072,0.336-0.123,0.502c-2.218,7.19-4.434,14.381-6.649,21.572c-0.427,1.388-0.852,2.776-1.278,4.164
	c-0.034,0.113-0.068,0.228-0.118,0.334c-0.231,0.497-0.613,0.827-1.134,0.991c-0.339,0.106-0.689,0.166-1.041,0.209
	c-0.832,0.101-1.65,0.025-2.453-0.214c-0.473-0.143-0.881-0.383-1.192-0.774c-0.12-0.151-0.21-0.314-0.265-0.502
	c-1.155-3.938-2.376-7.854-3.582-11.775c-1.13-3.679-2.297-7.346-3.438-11.021c-0.315-1.015-0.626-2.029-0.938-3.045
	C1.102,8.547,1.079,8.413,1.045,8.281"/>
<path fill-rule="evenodd" clip-rule="evenodd" fill="#FFB81D" d="M184.935,20.771c0,2.918,0,5.836,0,8.754
	c0,0.676-0.078,1.341-0.262,1.993c-0.314,1.124-0.935,2.041-1.875,2.735c-0.772,0.571-1.612,1.018-2.536,1.293
	c-0.543,0.162-1.097,0.249-1.665,0.248c-2.008-0.002-4.018,0-6.025,0.001c-0.202,0.001-0.4-0.016-0.592-0.076
	c-0.345-0.11-0.602-0.332-0.795-0.632c-0.227-0.354-0.332-0.746-0.366-1.157c-0.028-0.345-0.024-0.689,0.043-1.031
	c0.063-0.317,0.171-0.613,0.371-0.869c0.253-0.323,0.588-0.509,0.985-0.588c0.187-0.038,0.376-0.055,0.568-0.055
	c1.628,0.003,3.255,0.002,4.881,0.002c0.255,0,0.509-0.004,0.76-0.06c0.179-0.042,0.351-0.098,0.511-0.184
	c0.153-0.083,0.294-0.184,0.4-0.323c0.303-0.4,0.491-0.848,0.527-1.352c0.01-0.126,0.01-0.255,0.01-0.382
	c0.001-5.554-0.001-11.108,0.004-16.662c0-0.543-0.114-1.042-0.407-1.501c-0.204-0.322-0.483-0.538-0.849-0.644
	c-0.228-0.066-0.46-0.108-0.697-0.114c-0.127-0.003-0.254-0.003-0.381-0.003c-2.592,0-5.183,0-7.772,0
	c-0.372,0-0.334-0.039-0.334,0.336c-0.006,3.554-0.009,7.108-0.016,10.663c-0.008,4.209-0.019,8.418-0.028,12.626
	c0,0.19-0.001,0.38-0.043,0.569c-0.103,0.454-0.342,0.817-0.708,1.099c-0.307,0.236-0.652,0.394-1.031,0.473
	c-0.683,0.143-1.355,0.104-2.013-0.129c-0.426-0.153-0.759-0.425-0.977-0.826c-0.165-0.303-0.224-0.632-0.243-0.971
	c-0.005-0.091-0.002-0.182-0.002-0.272c0-8.426,0-16.853-0.001-25.279c0-0.365,0.02-0.727,0.108-1.082
	c0.106-0.426,0.306-0.798,0.667-1.063c0.215-0.157,0.453-0.266,0.704-0.354c0.381-0.136,0.778-0.175,1.179-0.191
	c0.081-0.003,0.163,0,0.244,0c3.71,0,7.418,0.003,11.127-0.002c0.885-0.001,1.731,0.163,2.546,0.508
	c0.579,0.245,1.143,0.52,1.667,0.865c0.481,0.317,0.891,0.716,1.232,1.183c0.514,0.703,0.823,1.491,0.973,2.345
	c0.081,0.466,0.112,0.937,0.111,1.411C184.933,14.972,184.935,17.872,184.935,20.771z"/>
<path fill-rule="evenodd" clip-rule="evenodd" fill="#FFB81D" d="M243.692,35.795c-1.272,0-2.545-0.007-3.817,0.002
	c-0.792,0.004-1.553-0.137-2.29-0.42c-0.778-0.3-1.495-0.706-2.154-1.215c-0.901-0.697-1.478-1.615-1.775-2.71
	c-0.145-0.527-0.229-1.064-0.23-1.613c-0.004-0.954-0.003-1.909-0.004-2.864c0-0.229,0.036-0.452,0.109-0.669
	c0.143-0.425,0.415-0.741,0.801-0.962c0.239-0.137,0.5-0.222,0.769-0.269c0.615-0.109,1.229-0.104,1.84,0.04
	c0.303,0.072,0.587,0.191,0.834,0.386c0.411,0.322,0.619,0.751,0.674,1.262c0.014,0.126,0.012,0.254,0.012,0.381
	c0.002,0.664,0.001,1.327,0.001,1.991c0,0.247,0.03,0.489,0.085,0.729c0.055,0.233,0.151,0.446,0.262,0.656
	c0.242,0.461,0.629,0.712,1.131,0.812c0.225,0.046,0.45,0.057,0.678,0.058c0.782,0,1.564,0,2.346,0c1.263,0,2.527,0,3.79,0
	c0.246,0,0.49-0.008,0.733-0.058c0.479-0.1,0.855-0.333,1.101-0.77c0.198-0.355,0.33-0.728,0.349-1.135
	c0.004-0.082,0.009-0.164,0.009-0.245c0-1.474,0-2.946,0-4.418c0-0.265-0.028-0.525-0.107-0.78
	c-0.086-0.272-0.213-0.521-0.371-0.755c-0.176-0.257-0.42-0.422-0.712-0.525c-0.313-0.11-0.638-0.144-0.965-0.146
	c-0.909-0.005-1.819-0.002-2.728-0.002c-1.419,0-2.837-0.011-4.255,0.004c-0.983,0.01-1.908-0.214-2.795-0.619
	c-0.481-0.219-0.944-0.473-1.372-0.781c-0.764-0.548-1.333-1.256-1.71-2.117c-0.238-0.544-0.382-1.114-0.455-1.705
	c-0.037-0.308-0.052-0.616-0.052-0.924c-0.003-1.5,0.001-3-0.003-4.5c-0.001-0.798,0.115-1.575,0.394-2.325
	c0.327-0.88,0.854-1.617,1.585-2.21c0.228-0.185,0.471-0.339,0.724-0.482c0.594-0.337,1.209-0.627,1.858-0.842
	c0.593-0.196,1.2-0.29,1.821-0.29c2.601-0.001,5.201-0.001,7.8,0c0.744,0,1.463,0.135,2.157,0.403
	c0.612,0.235,1.202,0.519,1.76,0.862c0.944,0.582,1.613,1.399,2.031,2.423c0.215,0.524,0.338,1.072,0.403,1.635
	c0.04,0.344,0.047,0.688,0.047,1.034c0.001,0.682,0,1.363,0,2.045c0,0.173-0.014,0.343-0.049,0.514
	c-0.115,0.551-0.421,0.956-0.914,1.223c-0.218,0.118-0.451,0.194-0.693,0.239c-0.633,0.117-1.264,0.118-1.894-0.032
	c-0.187-0.044-0.365-0.111-0.534-0.201c-0.556-0.296-0.861-0.767-0.938-1.385c-0.025-0.207-0.03-0.417-0.032-0.626
	c-0.004-0.536-0.004-1.073-0.002-1.609c0.002-0.457-0.126-0.874-0.347-1.273c-0.252-0.46-0.646-0.701-1.145-0.793
	c-0.215-0.04-0.431-0.059-0.65-0.059c-2.063,0.002-4.128,0.002-6.191,0c-0.283,0-0.562,0.031-0.836,0.104
	c-0.384,0.103-0.687,0.315-0.901,0.657c-0.264,0.419-0.407,0.873-0.409,1.365c-0.007,1.264-0.008,2.527,0,3.791
	c0.003,0.529,0.151,1.021,0.461,1.458c0.157,0.223,0.36,0.382,0.609,0.484c0.22,0.09,0.449,0.15,0.687,0.16
	c0.209,0.01,0.418,0.015,0.628,0.015c2.208,0.001,4.418,0.005,6.626-0.001c0.856-0.002,1.679,0.15,2.471,0.477
	c0.642,0.265,1.254,0.582,1.822,0.978c0.876,0.611,1.49,1.427,1.85,2.435c0.24,0.673,0.368,1.368,0.378,2.082
	c0.01,0.854,0.004,1.709,0.005,2.563c0,0.982-0.001,1.964-0.002,2.946c0,0.584-0.076,1.159-0.224,1.724
	c-0.239,0.917-0.68,1.72-1.358,2.387c-0.358,0.353-0.771,0.637-1.196,0.898c-0.726,0.446-1.494,0.789-2.328,0.973
	c-0.382,0.084-0.769,0.135-1.161,0.135C246.384,35.795,245.038,35.795,243.692,35.795z"/>
<path fill-rule="evenodd" clip-rule="evenodd" fill="#FFB81D" d="M209.392,21.052c0-4.19,0-8.382,0-12.573
	c0-0.346,0.021-0.69,0.094-1.03c0.044-0.205,0.11-0.402,0.21-0.587c0.136-0.254,0.321-0.462,0.566-0.615
	c0.407-0.255,0.853-0.402,1.33-0.45c0.289-0.029,0.58-0.035,0.871-0.035c3.363,0.001,6.728,0.004,10.091-0.001
	c0.886-0.002,1.731,0.167,2.545,0.515c0.461,0.196,0.907,0.417,1.341,0.667c1.031,0.596,1.754,1.456,2.191,2.558
	c0.212,0.535,0.334,1.092,0.393,1.665c0.033,0.327,0.041,0.653,0.041,0.98c0,1.764,0.002,3.527-0.001,5.291
	c-0.002,0.722-0.097,1.431-0.317,2.12c-0.356,1.114-1.018,2-1.98,2.662c-0.352,0.242-0.724,0.453-1.098,0.658
	c-0.064,0.035-0.128,0.071-0.191,0.106c-0.047,0.026-0.063,0.063-0.037,0.112c0.025,0.048,0.055,0.094,0.083,0.141
	c1.502,2.48,3.003,4.96,4.505,7.439c0.33,0.544,0.659,1.088,0.991,1.631c0.161,0.266,0.295,0.542,0.395,0.836
	c0.139,0.411,0.099,0.805-0.084,1.19c-0.1,0.206-0.231,0.39-0.387,0.559c-0.193,0.206-0.396,0.407-0.639,0.55
	c-0.471,0.272-0.942,0.549-1.491,0.644c-0.72,0.125-1.302-0.113-1.769-0.664c-0.124-0.146-0.208-0.317-0.305-0.481
	c-0.324-0.548-0.651-1.094-0.977-1.641c-1.856-3.113-3.713-6.229-5.569-9.345c-0.051-0.085-0.103-0.171-0.154-0.257
	c-0.039-0.069-0.096-0.105-0.177-0.102c-0.063,0.002-0.127,0-0.19,0c-0.764,0-1.528,0-2.292,0c-0.163,0-0.324-0.005-0.485-0.05
	c-0.31-0.086-0.559-0.256-0.756-0.507c-0.242-0.309-0.37-0.667-0.428-1.049c-0.067-0.462-0.061-0.925,0.046-1.381
	c0.027-0.115,0.062-0.229,0.105-0.338c0.271-0.667,0.778-1.004,1.487-1.054c0.127-0.008,0.254-0.005,0.382-0.005
	c1.354,0,2.709,0,4.063,0c0.292,0,0.58-0.028,0.865-0.097c0.438-0.106,0.769-0.352,0.993-0.747c0.219-0.387,0.352-0.795,0.351-1.244
	c0-1.627,0-3.255,0-4.882c0-0.448-0.137-0.856-0.356-1.242c-0.253-0.442-0.64-0.684-1.131-0.773c-0.213-0.039-0.43-0.059-0.65-0.059
	c-2.398,0.002-4.799,0.001-7.199,0.001c-0.046,0-0.091-0.001-0.137,0.001c-0.09,0.005-0.116,0.029-0.121,0.111
	c-0.004,0.082-0.003,0.164-0.003,0.246c0,2.7,0,5.399,0,8.1c0,5.045,0.001,10.091,0,15.136c0,0.246,0.002,0.49-0.054,0.731
	c-0.148,0.647-0.539,1.076-1.148,1.317c-0.273,0.108-0.559,0.165-0.849,0.19c-0.546,0.05-1.089,0.023-1.619-0.145
	c-0.809-0.254-1.252-0.873-1.318-1.63c-0.018-0.2-0.026-0.398-0.026-0.599C209.392,29.435,209.392,25.244,209.392,21.052z"/>
<path fill-rule="evenodd" clip-rule="evenodd" fill="#FFB81D" d="M160.333,20.779c0,2.909-0.001,5.818,0,8.727
	c0,0.686-0.078,1.359-0.264,2.02c-0.313,1.115-0.927,2.026-1.858,2.716c-0.771,0.573-1.608,1.021-2.533,1.3
	c-0.551,0.167-1.114,0.254-1.69,0.254c-2.573,0-5.146-0.007-7.719,0.004c-0.934,0.004-1.821-0.178-2.673-0.551
	c-0.703-0.31-1.363-0.689-1.95-1.186c-0.876-0.74-1.438-1.676-1.709-2.787c-0.105-0.434-0.168-0.874-0.177-1.321
	c-0.004-0.219-0.009-0.436-0.009-0.654c0-5.7,0-11.4,0.001-17.101c0-0.3-0.002-0.601,0.021-0.899c0.091-1.139,0.433-2.188,1.142-3.1
	c0.224-0.289,0.486-0.538,0.761-0.779c0.22-0.194,0.464-0.349,0.717-0.493c0.729-0.412,1.482-0.771,2.297-0.985
	c0.451-0.118,0.911-0.178,1.375-0.179c2.646-0.004,5.291-0.004,7.937,0c0.81,0.001,1.584,0.183,2.33,0.495
	c0.588,0.247,1.16,0.526,1.691,0.877c0.474,0.313,0.878,0.705,1.216,1.163c0.521,0.708,0.837,1.505,0.985,2.369
	c0.08,0.466,0.11,0.937,0.11,1.411C160.331,14.979,160.333,17.879,160.333,20.779z M155.274,20.773c0-2.718,0-5.436,0-8.154
	c0-0.127-0.001-0.255-0.001-0.382c-0.003-0.467-0.146-0.891-0.389-1.288c-0.21-0.342-0.504-0.567-0.889-0.674
	c-0.283-0.079-0.569-0.11-0.862-0.11c-2.063,0.001-4.127,0.002-6.19,0c-0.221,0-0.438,0.021-0.65,0.06
	c-0.512,0.092-0.911,0.346-1.158,0.818c-0.145,0.275-0.258,0.559-0.307,0.869c-0.03,0.2-0.035,0.398-0.035,0.598c0,5.5,0,11,0,16.5
	c0,0.091-0.001,0.183,0.002,0.271c0.016,0.455,0.138,0.875,0.359,1.271c0.245,0.438,0.618,0.676,1.097,0.778
	c0.261,0.056,0.523,0.06,0.786,0.06c1.664,0,3.327,0,4.991,0c0.399,0,0.8-0.002,1.2-0.001c0.21,0.001,0.417-0.018,0.621-0.065
	c0.344-0.079,0.66-0.217,0.885-0.5c0.229-0.288,0.383-0.615,0.473-0.974c0.065-0.259,0.067-0.521,0.067-0.786
	C155.274,26.3,155.274,23.537,155.274,20.773z"/>
<path fill-rule="evenodd" clip-rule="evenodd" fill="#FFFFFF" d="M72.294,5.585c0.218,0,0.436-0.006,0.654-0.001
	c0.337,0.006,0.669,0.053,0.992,0.156c0.095,0.03,0.189,0.065,0.279,0.106c0.645,0.293,0.991,0.803,1.072,1.497
	c0.022,0.189,0.018,0.381,0.018,0.572c0.001,7.016,0.001,14.033,0,21.049c0,0.2,0.006,0.4,0.029,0.599
	c0.051,0.444,0.215,0.842,0.474,1.202c0.231,0.321,0.563,0.476,0.936,0.563c0.259,0.061,0.522,0.065,0.786,0.065
	c1.5,0,2.999,0,4.499,0c0.564,0,1.127,0,1.69,0c0.274,0,0.543-0.03,0.807-0.11c0.373-0.111,0.661-0.325,0.868-0.659
	c0.266-0.43,0.391-0.895,0.402-1.395c0.003-0.127,0.001-0.254,0.001-0.383c0-6.998,0-13.996,0-20.995
	c0-0.264,0.001-0.526,0.066-0.785c0.141-0.566,0.475-0.97,1.001-1.217c0.376-0.177,0.778-0.242,1.189-0.263
	c0.217-0.01,0.436-0.005,0.654-0.006c0.187,0.035,0.375,0.065,0.561,0.106c0.124,0.027,0.246,0.065,0.364,0.111
	c0.746,0.291,1.128,0.851,1.201,1.636c0.01,0.108,0.008,0.218,0.008,0.328c0,7.253,0,14.507,0.001,21.762
	c0,0.768-0.091,1.521-0.335,2.253c-0.344,1.032-0.952,1.872-1.836,2.51c-0.817,0.588-1.697,1.051-2.674,1.313
	c-0.485,0.131-0.978,0.198-1.481,0.198c-2.59-0.001-5.182-0.007-7.772,0.002c-0.954,0.004-1.854-0.196-2.72-0.586
	c-0.557-0.252-1.086-0.553-1.575-0.917c-1.047-0.778-1.717-1.81-2.014-3.081c-0.109-0.469-0.167-0.947-0.171-1.43
	c-0.001-0.138-0.003-0.273-0.003-0.411c0-7.171,0-14.343,0-21.515c0-0.254,0-0.507,0.058-0.759c0.132-0.568,0.457-0.981,0.978-1.238
	c0.238-0.117,0.492-0.188,0.754-0.228C72.137,5.623,72.221,5.627,72.294,5.585z"/>
<path fill-rule="evenodd" clip-rule="evenodd" fill="#FFB81D" d="M115.343,20.773c0-2.927,0-5.854,0.001-8.782
	c0-0.666,0.074-1.323,0.259-1.965c0.299-1.041,0.847-1.92,1.688-2.616c0.296-0.245,0.622-0.44,0.957-0.622
	c0.729-0.395,1.482-0.73,2.299-0.905c0.375-0.08,0.755-0.118,1.136-0.119c2.637-0.004,5.272-0.003,7.909-0.001
	c0.771,0.001,1.514,0.161,2.229,0.452c0.54,0.22,1.063,0.474,1.563,0.772c0.775,0.462,1.379,1.088,1.816,1.876
	c0.339,0.611,0.549,1.264,0.649,1.954c0.063,0.423,0.093,0.848,0.092,1.276c-0.001,0.8,0,1.6,0,2.4c0,0.256-0.031,0.508-0.105,0.753
	c-0.141,0.465-0.427,0.816-0.854,1.05c-0.185,0.101-0.379,0.179-0.584,0.222c-0.703,0.152-1.405,0.16-2.104-0.031
	c-0.14-0.038-0.275-0.094-0.404-0.159c-0.521-0.264-0.832-0.689-0.953-1.258c-0.038-0.188-0.055-0.376-0.054-0.569
	c0.002-0.745,0-1.491-0.001-2.236c-0.001-0.447-0.134-0.856-0.349-1.246c-0.251-0.457-0.641-0.706-1.143-0.797
	c-0.196-0.035-0.395-0.059-0.595-0.059c-2.101,0.002-4.201,0.001-6.3,0c-0.274,0-0.543,0.038-0.808,0.109
	c-0.375,0.102-0.668,0.315-0.877,0.647c-0.262,0.418-0.409,0.869-0.408,1.365c0.001,0.073,0,0.146,0,0.218
	c0,5.509,0,11.018,0,16.527c0,0.236,0,0.472,0.048,0.705c0.073,0.362,0.217,0.691,0.426,0.995c0.177,0.257,0.421,0.424,0.713,0.522
	c0.215,0.072,0.438,0.12,0.667,0.129c0.073,0.002,0.145,0.004,0.218,0.004c2.109,0.001,4.218,0,6.327,0.002
	c0.266,0,0.524-0.032,0.781-0.102c0.387-0.104,0.685-0.321,0.897-0.663c0.261-0.419,0.4-0.872,0.401-1.367
	c0.001-0.728,0.003-1.455,0.001-2.182c-0.002-0.211,0.021-0.418,0.072-0.621c0.14-0.543,0.466-0.937,0.974-1.179
	c0.206-0.098,0.423-0.166,0.647-0.204c0.605-0.104,1.212-0.101,1.813,0.039c0.213,0.049,0.418,0.124,0.61,0.229
	c0.493,0.272,0.786,0.692,0.892,1.241c0.031,0.168,0.052,0.34,0.051,0.515c-0.003,0.836,0.008,1.672-0.004,2.509
	c-0.01,0.758-0.109,1.502-0.359,2.224c-0.332,0.952-0.889,1.744-1.69,2.357c-0.751,0.571-1.57,1.019-2.468,1.313
	c-0.6,0.197-1.215,0.299-1.848,0.298c-2.582-0.003-5.164-0.008-7.746,0.002c-0.906,0.003-1.767-0.179-2.594-0.536
	c-0.578-0.25-1.125-0.556-1.634-0.924c-1.132-0.823-1.831-1.925-2.108-3.294c-0.107-0.527-0.148-1.061-0.148-1.599
	C115.343,26.555,115.343,23.665,115.343,20.773z"/>
<path fill-rule="evenodd" clip-rule="evenodd" fill="#FFFFFF" d="M35.345,10.868c-0.083,0.027-0.083,0.098-0.102,0.157
	c-0.268,0.819-0.537,1.639-0.803,2.459c-1.773,5.445-3.546,10.891-5.32,16.337c-0.5,1.536-0.999,3.072-1.502,4.607
	c-0.138,0.419-0.352,0.796-0.663,1.114c-0.347,0.358-0.768,0.542-1.267,0.535c-0.751-0.01-1.452-0.206-2.101-0.583
	c-0.094-0.054-0.184-0.119-0.27-0.186c-0.619-0.485-0.833-1.12-0.682-1.887c0.069-0.348,0.2-0.678,0.31-1.014
	c2.446-7.441,4.895-14.882,7.341-22.323c0.278-0.844,0.556-1.689,0.831-2.536c0.138-0.422,0.353-0.795,0.677-1.103
	c0.332-0.314,0.718-0.518,1.169-0.603c0.634-0.12,1.274-0.201,1.917-0.25c0.354-0.026,0.708-0.021,1.062,0.017
	c0.451,0.049,0.903,0.097,1.355,0.136c0.469,0.04,0.878,0.214,1.235,0.519c0.256,0.219,0.486,0.464,0.69,0.733
	c0.183,0.24,0.319,0.5,0.414,0.791c2.073,6.341,4.152,12.679,6.229,19.019c0.675,2.061,1.346,4.125,2.021,6.186
	c0.1,0.305,0.158,0.615,0.149,0.936c-0.013,0.448-0.18,0.83-0.482,1.156c-0.124,0.133-0.264,0.25-0.418,0.347
	c-0.652,0.414-1.369,0.619-2.138,0.643c-0.406,0.012-0.767-0.125-1.089-0.366c-0.29-0.218-0.511-0.491-0.664-0.817
	c-0.072-0.155-0.137-0.315-0.191-0.48c-2.542-7.762-5.083-15.525-7.624-23.289C35.402,11.038,35.373,10.953,35.345,10.868z"/>
<path fill-rule="evenodd" clip-rule="evenodd" fill="#FFB81D" d="M189.031,20.766c0-4.118,0.002-8.235-0.001-12.354
	c-0.001-0.376,0.047-0.743,0.17-1.098c0.075-0.215,0.179-0.417,0.299-0.611c0.213-0.347,0.517-0.583,0.892-0.728
	c0.264-0.102,0.539-0.16,0.821-0.183c0.318-0.026,0.636-0.03,0.954-0.03c4.045,0,8.09,0,12.135,0c0.174,0,0.346,0.006,0.518,0.029
	c0.5,0.068,0.883,0.313,1.139,0.751c0.14,0.238,0.224,0.496,0.273,0.766c0.101,0.542,0.115,1.083-0.021,1.622
	c-0.063,0.249-0.167,0.479-0.335,0.678c-0.307,0.365-0.712,0.521-1.174,0.552c-0.137,0.009-0.273,0.004-0.408,0.004
	c-3.292,0-6.582,0-9.873,0c-0.081,0-0.164-0.001-0.246,0.001c-0.101,0.005-0.119,0.024-0.123,0.135
	c-0.003,0.073-0.002,0.146-0.002,0.218c0,6.836,0,13.672,0.001,20.508c0,0.411-0.052,0.36,0.362,0.36
	c3.546,0.001,7.092,0.001,10.636,0.001c0.174,0,0.345,0.007,0.517,0.038c0.533,0.098,0.903,0.4,1.13,0.887
	c0.116,0.249,0.182,0.516,0.207,0.787c0.04,0.443,0.058,0.89-0.037,1.331c-0.056,0.259-0.146,0.505-0.302,0.724
	c-0.208,0.294-0.491,0.484-0.838,0.571c-0.167,0.042-0.338,0.075-0.512,0.067c-0.046-0.003-0.091,0-0.137,0
	c-4.444,0-8.89,0-13.336,0c-0.392,0-0.778-0.038-1.157-0.15c-0.492-0.146-0.87-0.432-1.128-0.882
	c-0.269-0.469-0.409-0.968-0.421-1.505c-0.004-0.128-0.002-0.256-0.002-0.383C189.031,28.839,189.031,24.803,189.031,20.766z"/>
<path fill-rule="evenodd" clip-rule="evenodd" fill="#FFFFFF" d="M95.024,20.748c0-4.082,0-8.164,0-12.246
	c0-0.272,0.002-0.544,0.06-0.813c0.07-0.323,0.191-0.624,0.355-0.909c0.232-0.404,0.572-0.673,1.01-0.827
	c0.375-0.132,0.762-0.166,1.153-0.179c0.063-0.002,0.127-0.001,0.191-0.001c4.182,0,8.364,0,12.545,0.001
	c0.154,0,0.31,0.005,0.463,0.022c0.459,0.053,0.821,0.273,1.083,0.655c0.129,0.189,0.221,0.398,0.276,0.619
	c0.146,0.571,0.171,1.149,0.065,1.729c-0.013,0.071-0.033,0.142-0.053,0.211c-0.164,0.561-0.573,1.082-1.457,1.151
	c-0.126,0.01-0.254,0.006-0.382,0.006c-3.309,0-6.618,0-9.927,0c-0.082,0-0.164-0.001-0.246,0.001
	c-0.103,0.003-0.119,0.021-0.124,0.132c-0.002,0.073-0.001,0.146-0.001,0.218c0,6.836,0,13.673,0.002,20.509
	c0,0.114-0.05,0.254,0.035,0.338c0.076,0.074,0.208,0.025,0.315,0.025c3.545,0.002,7.091,0.002,10.636,0.002
	c0.173,0,0.344,0.006,0.516,0.036c0.479,0.084,0.835,0.337,1.072,0.761c0.144,0.258,0.223,0.537,0.26,0.826
	c0.052,0.406,0.071,0.815,0.009,1.224c-0.036,0.244-0.095,0.481-0.206,0.702c-0.222,0.444-0.579,0.713-1.065,0.81
	c-0.161,0.033-0.323,0.046-0.488,0.046c-4.481-0.001-8.963,0-13.445,0c-0.384,0-0.761-0.042-1.13-0.154
	c-0.492-0.15-0.868-0.443-1.12-0.896c-0.243-0.437-0.389-0.898-0.401-1.399c-0.003-0.136-0.003-0.273-0.003-0.409
	C95.024,28.874,95.024,24.811,95.024,20.748z"/>
<path fill-rule="evenodd" clip-rule="evenodd" fill="#FFFFFF" d="M49.752,20.447c0-4.199,0-8.398,0-12.598
	c0-0.245,0-0.489,0.054-0.732c0.143-0.646,0.523-1.083,1.134-1.328c0.272-0.11,0.558-0.164,0.847-0.19
	c0.491-0.046,0.981-0.025,1.461,0.099c0.158,0.041,0.314,0.096,0.46,0.166c0.595,0.286,0.929,0.765,1.024,1.415
	c0.03,0.208,0.036,0.416,0.036,0.625C54.768,15.603,54.768,23.301,54.768,31c0,0.091-0.001,0.182,0.001,0.273
	c0.003,0.11,0.01,0.115,0.132,0.119c0.082,0.002,0.164,0,0.245,0c3.818,0,7.635,0,11.453,0c0.173,0,0.344,0.006,0.516,0.037
	c0.427,0.077,0.753,0.298,0.981,0.667c0.086,0.141,0.156,0.29,0.195,0.448c0.172,0.689,0.187,1.384,0.022,2.078
	c-0.008,0.035-0.021,0.068-0.032,0.104c-0.184,0.554-0.584,1.01-1.398,1.065c-0.082,0.007-0.164,0.005-0.245,0.005
	c-4.727,0-9.453-0.001-14.179,0c-0.338,0-0.672-0.028-1.001-0.104c-0.205-0.047-0.4-0.119-0.584-0.22
	c-0.227-0.124-0.42-0.287-0.569-0.499c-0.331-0.474-0.521-0.996-0.547-1.574c-0.006-0.145-0.005-0.29-0.005-0.436
	C49.752,28.792,49.752,24.619,49.752,20.447z"/>
<path fill-rule="evenodd" clip-rule="evenodd" fill="#FFFFFF" d="M106.054,23.577c-1.786,0.021-3.371-1.449-3.363-3.416
	c0.007-1.926,1.558-3.392,3.366-3.39c1.871,0.001,3.44,1.491,3.432,3.42C109.48,22.119,107.898,23.596,106.054,23.577z"/>
<path fill-rule="evenodd" clip-rule="evenodd" fill="#FFB81D" d="M203.491,20.18c0.052,1.788-1.46,3.406-3.442,3.398
	c-1.877-0.008-3.348-1.587-3.346-3.412c0.004-1.818,1.481-3.411,3.387-3.398C202.045,16.782,203.549,18.387,203.491,20.18z"/>
<path fill-rule="evenodd" clip-rule="evenodd" fill="#FFFFFF" d="M243.282,51.342c-0.223,0.002-0.439,0.073-0.671,0.014
	c-0.351-0.087-0.498-0.246-0.515-0.614c-0.005-0.114-0.001-0.226-0.001-0.337c0-1.976,0-3.949,0-5.926
	c0-0.112,0.002-0.224-0.001-0.338c-0.005-0.165-0.031-0.193-0.188-0.22c-0.153-0.023-0.193-0.004-0.242,0.156
	c-0.251,0.807-0.501,1.614-0.742,2.423c-0.42,1.387-0.834,2.776-1.25,4.166c-0.014,0.041-0.021,0.081-0.034,0.123
	c-0.145,0.461-0.376,0.616-0.851,0.555c-0.287-0.039-0.499-0.18-0.589-0.469c-0.138-0.445-0.278-0.889-0.414-1.332
	c-0.551-1.79-1.101-3.577-1.653-5.368c-0.014-0.04-0.023-0.08-0.036-0.122c-0.057-0.165-0.196-0.227-0.357-0.148
	c-0.032,0.015-0.065,0.06-0.07,0.093c-0.009,0.125-0.011,0.251-0.011,0.379c0,2.03,0,4.062,0,6.091c0,0.128,0.007,0.258-0.011,0.382
	c-0.037,0.261-0.188,0.424-0.451,0.495c-0.238,0.063-0.474,0.021-0.711,0.003c-0.313-0.143-0.399-0.408-0.397-0.728
	c0.006-0.549,0.002-1.099,0.002-1.65c0-2.337,0-4.677,0.001-7.015c0-0.157,0.004-0.312,0.021-0.464
	c0.026-0.243,0.157-0.425,0.376-0.528c0.459-0.221,0.942-0.287,1.438-0.161c0.516,0.132,0.855,0.442,1.007,0.976
	c0.413,1.463,0.849,2.919,1.273,4.375c0.198,0.677,0.395,1.353,0.594,2.028c0.031,0.107,0.072,0.21,0.126,0.378
	c0.057-0.168,0.099-0.277,0.131-0.395c0.587-2.083,1.176-4.17,1.754-6.257c0.097-0.351,0.208-0.672,0.529-0.88
	c0.345-0.226,0.72-0.31,1.127-0.275c0.271,0.023,0.527,0.103,0.771,0.211c0.252,0.109,0.395,0.312,0.408,0.592
	c0.005,0.112,0.006,0.225,0.006,0.338c0,2.86,0,5.722,0,8.583c0,0.056-0.004,0.114,0,0.168
	C243.675,50.954,243.566,51.194,243.282,51.342z"/>
<path fill-rule="evenodd" clip-rule="evenodd" fill="#FDFEFF" d="M95.888,51.347c-0.298,0.09-0.443,0.065-0.671,0.004
	c-0.31-0.08-0.465-0.234-0.496-0.548c-0.012-0.124-0.005-0.254-0.005-0.381c-0.001-1.986-0.001-3.975-0.001-5.961
	c0-0.101,0.002-0.2,0-0.298c-0.005-0.194-0.06-0.246-0.25-0.248c-0.08-0.004-0.136,0.03-0.161,0.105
	c-0.036,0.107-0.069,0.216-0.102,0.322c-0.624,2.077-1.249,4.153-1.873,6.227c-0.041,0.138-0.079,0.272-0.131,0.404
	c-0.092,0.23-0.266,0.356-0.516,0.373c-0.07,0.004-0.14,0.006-0.211,0.002c-0.329-0.021-0.558-0.178-0.659-0.5
	c-0.166-0.536-0.333-1.075-0.5-1.612c-0.516-1.683-1.032-3.365-1.549-5.048c-0.011-0.039-0.034-0.078-0.042-0.119
	c-0.036-0.211-0.117-0.205-0.303-0.182c-0.076,0.01-0.134,0.043-0.136,0.13c-0.004,0.125-0.006,0.254-0.006,0.379
	c0,2.018,0,4.035,0,6.049c0,0.127,0.005,0.254-0.005,0.382c-0.025,0.273-0.172,0.423-0.43,0.508
	c-0.385,0.125-0.67,0.016-0.754,0.007c-0.304-0.156-0.367-0.423-0.366-0.744c0.008-1.664,0.004-3.326,0.004-4.988
	c0-1.229,0-2.456,0-3.683c0-0.127,0-0.253,0.006-0.381c0.012-0.282,0.158-0.482,0.405-0.597c0.477-0.216,0.972-0.278,1.482-0.127
	c0.481,0.142,0.788,0.445,0.931,0.942c0.607,2.11,1.23,4.217,1.849,6.323c0.036,0.123,0.073,0.242,0.109,0.362
	c0.128-0.002,0.124-0.102,0.144-0.173c0.368-1.315,0.734-2.631,1.103-3.946c0.238-0.855,0.477-1.709,0.719-2.562
	c0.168-0.593,0.596-0.947,1.211-1.015c0.403-0.043,0.786,0.035,1.155,0.192c0.255,0.109,0.401,0.307,0.432,0.58
	c0.013,0.113,0.015,0.224,0.015,0.339c0,2.877,0,5.751,0,8.628c0,0.042-0.001,0.087,0,0.127
	C96.297,50.94,96.198,51.204,95.888,51.347z"/>
<path fill-rule="evenodd" clip-rule="evenodd" fill="#FDFEFF" d="M54.012,51.342c-0.254,0.029-0.507,0.055-0.763,0.014
	c-0.344-0.125-0.44-0.382-0.436-0.732c0.011-1.311,0.005-2.62,0.005-3.932c-0.001-1.564,0-3.13,0-4.694c0-0.102-0.002-0.2,0-0.298
	c0.008-0.48,0.161-0.702,0.612-0.838c0.425-0.132,0.854-0.163,1.291-0.044c0.369,0.102,0.617,0.32,0.755,0.675
	c0.211,0.536,0.43,1.07,0.644,1.607c0.676,1.698,1.353,3.4,2.029,5.102c0.021,0.053,0.048,0.103,0.062,0.156
	c0.047,0.182,0.108,0.204,0.316,0.182c0.082-0.008,0.127-0.052,0.129-0.133c0.004-0.126,0.006-0.254,0.006-0.381
	c0-2.114,0-4.229,0-6.344c0-0.128-0.006-0.255,0.005-0.38c0.022-0.271,0.163-0.446,0.422-0.518c0.221-0.059,0.449-0.057,0.671-0.01
	c0.284,0.065,0.423,0.239,0.447,0.54c0.008,0.097,0.005,0.196,0.005,0.294c0,2.876,0,5.754,0,8.629c0,0.085-0.001,0.169,0,0.254
	c0.002,0.283-0.133,0.484-0.375,0.614c-0.479,0.261-0.989,0.316-1.515,0.184c-0.381-0.095-0.63-0.335-0.776-0.708
	c-0.381-0.985-0.782-1.963-1.174-2.942c-0.487-1.216-0.973-2.433-1.46-3.647c-0.042-0.104-0.09-0.207-0.129-0.312
	c-0.038-0.099-0.111-0.116-0.203-0.107c-0.133,0.018-0.189,0.064-0.196,0.175c-0.008,0.115-0.004,0.227-0.004,0.342
	c0,2.07,0,4.144,0,6.215c0,0.113-0.007,0.227,0,0.339C54.403,50.954,54.294,51.194,54.012,51.342z"/>
<path fill-rule="evenodd" clip-rule="evenodd" fill="#FDFEFF" d="M109.002,51.353c-0.253,0.042-0.507,0.021-0.761-0.009
	c-0.284-0.147-0.373-0.387-0.371-0.699c0.009-1.128,0.002-2.255,0.002-3.384c0-1.775,0-3.553,0-5.329
	c0.001-0.142,0.003-0.282,0.012-0.423c0.017-0.262,0.152-0.456,0.388-0.562c0.535-0.235,1.088-0.281,1.646-0.086
	c0.298,0.104,0.493,0.32,0.606,0.61c0.141,0.354,0.282,0.707,0.422,1.059c0.745,1.872,1.489,3.745,2.23,5.615
	c0.038,0.091,0.084,0.18,0.114,0.273c0.037,0.122,0.125,0.134,0.23,0.126c0.16-0.014,0.192-0.043,0.199-0.206
	c0.004-0.11,0.002-0.226,0.002-0.336c0-2.117,0-4.23,0-6.346c0-0.128,0-0.254,0.006-0.381c0.015-0.237,0.142-0.396,0.363-0.474
	c0.258-0.088,0.529-0.086,0.79-0.007c0.236,0.075,0.373,0.245,0.387,0.499c0.004,0.101,0.003,0.199,0.003,0.297
	c0.001,2.889,0,5.78,0,8.672c0,0.025,0.001,0.055,0,0.084c-0.003,0.486-0.138,0.686-0.588,0.861
	c-0.376,0.146-0.769,0.186-1.165,0.113c-0.428-0.076-0.74-0.296-0.907-0.725c-0.519-1.326-1.055-2.645-1.583-3.962
	c-0.387-0.969-0.776-1.936-1.166-2.9c-0.064-0.159-0.108-0.182-0.25-0.159c-0.129,0.023-0.17,0.063-0.175,0.191
	c-0.003,0.112-0.001,0.228-0.001,0.34c0,2.084,0,4.173,0,6.26c0,0.098-0.006,0.198,0.001,0.295
	C109.461,51.003,109.322,51.234,109.002,51.353z"/>
<path fill-rule="evenodd" clip-rule="evenodd" fill="#FDFEFF" d="M118.648,51.359c-0.224,0.033-0.451,0.014-0.677-0.011
	c-0.308-0.143-0.403-0.397-0.403-0.724c0.007-1.04,0.003-2.086,0.003-3.128c0-1.888,0-3.776,0-5.665
	c0.001-0.171,0.001-0.338,0.035-0.506c0.048-0.253,0.203-0.403,0.436-0.465c0.149-0.039,0.305-0.054,0.459-0.054
	c1.326-0.005,2.651,0.003,3.976-0.005c0.56-0.002,1.049,0.196,1.495,0.51c0.399,0.279,0.617,0.688,0.685,1.17
	c0.027,0.195,0.033,0.395,0.034,0.59c0.003,1.987,0.003,3.974,0,5.962c0,0.309-0.009,0.619-0.11,0.917
	c-0.084,0.246-0.198,0.471-0.387,0.648c-0.454,0.429-0.988,0.703-1.622,0.721c-0.705,0.017-1.409,0.008-2.114,0.002
	c-0.357-0.002-0.505-0.141-0.566-0.495c-0.023-0.141-0.018-0.28,0.012-0.419c0.055-0.257,0.203-0.393,0.46-0.42
	c0.112-0.013,0.226-0.004,0.339-0.004c0.435-0.005,0.874-0.005,1.311-0.005c0.069,0,0.142-0.002,0.211,0
	c0.613,0.021,0.85-0.362,0.896-0.847c0.01-0.099,0.004-0.199,0.004-0.297c0-1.86,0-3.72,0-5.581c0-0.195,0.004-0.392-0.067-0.583
	c-0.109-0.289-0.3-0.472-0.611-0.515c-0.098-0.015-0.196-0.023-0.292-0.023c-0.903-0.002-1.806-0.002-2.708-0.002
	c-0.041,0-0.083,0.002-0.127,0.002c-0.1,0-0.159,0.043-0.162,0.148c-0.002,0.111-0.002,0.226-0.002,0.338
	c-0.004,2.537-0.006,5.073-0.008,7.61c-0.002,0.099-0.01,0.199,0,0.294C119.186,50.928,119.032,51.211,118.648,51.359z"/>
<path fill-rule="evenodd" clip-rule="evenodd" fill="#FDFEFF" d="M70.504,51.353c-0.225,0.036-0.452,0.027-0.677-0.002
	c-0.339-0.136-0.425-0.403-0.423-0.746c0.009-1.521,0.004-3.044,0.004-4.566c0-1.409-0.001-2.817,0-4.228
	c0-0.141-0.003-0.283,0.016-0.423c0.039-0.298,0.216-0.482,0.51-0.544c0.137-0.026,0.281-0.036,0.421-0.036
	c1.311-0.005,2.621,0.003,3.932-0.005c0.56-0.004,1.051,0.188,1.499,0.497c0.445,0.304,0.66,0.757,0.721,1.284
	c0.018,0.153,0.015,0.309,0.015,0.465c0,2.001,0,4.002,0,6.006c0,0.294-0.004,0.592-0.1,0.875c-0.109,0.331-0.288,0.611-0.565,0.824
	c-0.472,0.357-0.992,0.581-1.599,0.57c-0.619-0.006-1.239,0-1.859,0c-0.071,0-0.141,0-0.212-0.002
	c-0.205-0.011-0.341-0.122-0.414-0.309c-0.084-0.215-0.097-0.437-0.025-0.661c0.066-0.213,0.207-0.331,0.421-0.361
	c0.097-0.014,0.197-0.007,0.295-0.007c0.48-0.005,0.959,0,1.438-0.005c0.113,0,0.226,0.005,0.337-0.009
	c0.331-0.03,0.542-0.218,0.648-0.523c0.054-0.161,0.073-0.329,0.073-0.502c-0.002-1.928-0.002-3.859,0-5.792
	c0-0.155-0.019-0.311-0.066-0.457c-0.094-0.287-0.276-0.489-0.592-0.535c-0.096-0.014-0.195-0.027-0.292-0.027
	c-0.931-0.002-1.861-0.002-2.792,0c-0.027,0-0.056,0.002-0.084,0.002c-0.083,0-0.135,0.045-0.14,0.126
	c-0.008,0.123-0.005,0.253-0.006,0.377c-0.005,2.552-0.01,5.102-0.015,7.654c0,0.127-0.002,0.254-0.002,0.38
	c0.001,0.276-0.098,0.494-0.36,0.616C70.576,51.308,70.541,51.333,70.504,51.353z"/>
<path fill-rule="evenodd" clip-rule="evenodd" fill="#FFFFFF" d="M134.862,51.322c-0.449,0-0.899,0.002-1.352,0
	c-0.638-0.002-1.177-0.252-1.646-0.666c-0.318-0.282-0.48-0.655-0.527-1.076c-0.05-0.434-0.036-0.872-0.02-1.307
	c0.011-0.308,0.146-0.46,0.443-0.54c0.208-0.056,0.42-0.054,0.628-0.006c0.331,0.071,0.472,0.247,0.481,0.593
	c0.01,0.225,0.007,0.451,0.003,0.677c-0.004,0.158,0.022,0.308,0.074,0.457c0.108,0.309,0.322,0.486,0.651,0.52
	c0.069,0.006,0.141,0.006,0.211,0.006c0.707,0,1.409,0.007,2.114,0c0.64-0.004,0.919-0.284,0.93-0.936
	c0.008-0.505,0.002-1.014,0.001-1.521c0-0.069-0.002-0.143-0.012-0.21c-0.063-0.453-0.334-0.705-0.793-0.722
	c-0.267-0.012-0.533-0.002-0.803-0.002c-0.549-0.002-1.1-0.012-1.648,0c-0.526,0.012-1.001-0.14-1.439-0.419
	c-0.486-0.303-0.751-0.75-0.822-1.311c-0.021-0.169-0.023-0.339-0.024-0.509c-0.004-0.436-0.004-0.873,0-1.308
	c0.001-0.186,0.002-0.369,0.029-0.549c0.082-0.563,0.357-1.002,0.854-1.294c0.445-0.261,0.919-0.41,1.443-0.399
	c0.832,0.017,1.665,0.015,2.495,0c0.544-0.011,1.026,0.159,1.476,0.44c0.535,0.332,0.77,0.847,0.819,1.451
	c0.027,0.338,0.019,0.678,0.006,1.014c-0.012,0.32-0.159,0.482-0.472,0.565c-0.208,0.055-0.419,0.055-0.626,0.002
	c-0.312-0.078-0.457-0.242-0.478-0.563c-0.013-0.225-0.004-0.451-0.005-0.677c-0.001-0.156-0.027-0.306-0.096-0.449
	c-0.104-0.218-0.257-0.37-0.502-0.409c-0.125-0.02-0.251-0.039-0.377-0.041c-0.676-0.002-1.352-0.002-2.029-0.002
	c-0.014,0-0.027,0-0.041,0c-0.647-0.005-0.922,0.368-0.934,0.952c-0.009,0.406-0.003,0.816-0.002,1.227
	c0,0.054,0.002,0.111,0.009,0.166c0.068,0.501,0.337,0.756,0.845,0.766c0.563,0.009,1.128,0.002,1.691,0.002
	c0.24,0,0.479,0.009,0.721-0.002c0.435-0.02,0.829,0.108,1.214,0.299c0.72,0.354,1.052,0.946,1.083,1.729
	c0.011,0.238,0.003,0.478,0.003,0.717c0,0.396-0.003,0.792,0.002,1.185c0.002,0.214-0.029,0.422-0.078,0.628
	c-0.075,0.323-0.219,0.614-0.466,0.838c-0.465,0.416-1.001,0.678-1.639,0.686C135.794,51.33,135.329,51.322,134.862,51.322z"/>
<path fill-rule="evenodd" clip-rule="evenodd" fill="#FFFFFF" d="M147.961,46.041c0,1,0.001,2-0.001,3.001
	c-0.001,0.309-0.01,0.618-0.112,0.918c-0.084,0.245-0.202,0.47-0.39,0.645c-0.458,0.429-0.991,0.703-1.627,0.716
	c-0.957,0.015-1.916,0.015-2.874,0c-0.615-0.013-1.146-0.274-1.59-0.693c-0.346-0.323-0.487-0.75-0.531-1.211
	c-0.01-0.111-0.009-0.225-0.009-0.339c-0.001-2.015,0-4.03-0.002-6.044c0-0.241,0.019-0.479,0.075-0.713
	c0.117-0.49,0.39-0.866,0.827-1.124c0.446-0.259,0.918-0.408,1.446-0.396c0.816,0.017,1.635,0.017,2.451,0
	c0.525-0.011,1,0.137,1.446,0.397c0.494,0.292,0.773,0.729,0.854,1.293c0.03,0.207,0.033,0.421,0.033,0.631
	C147.962,44.097,147.961,45.066,147.961,46.041z M142.41,46.059c0,0.917,0,1.833,0,2.751c0,0.124-0.004,0.254,0.008,0.379
	c0.041,0.501,0.318,0.77,0.814,0.791c0.085,0.005,0.17,0.005,0.255,0.005c0.549,0,1.1,0,1.648,0c0.155,0,0.312,0.004,0.465-0.007
	c0.401-0.026,0.611-0.194,0.738-0.579c0.056-0.164,0.055-0.332,0.055-0.503c0-1.888,0-3.779,0-5.667
	c0-0.098,0.003-0.198-0.007-0.295c-0.055-0.493-0.331-0.759-0.824-0.798c-0.056-0.004-0.113-0.004-0.169-0.004
	c-0.662,0-1.323-0.003-1.987,0.002c-0.127,0-0.253,0.017-0.378,0.036c-0.259,0.039-0.424,0.198-0.53,0.433
	c-0.08,0.176-0.088,0.355-0.088,0.537C142.41,44.112,142.41,45.086,142.41,46.059z"/>
<path fill-rule="evenodd" clip-rule="evenodd" fill="#FDFEFF" d="M50.47,46.071c0,1.013,0,2.028,0,3.042
	c0,0.268-0.011,0.535-0.094,0.797c-0.109,0.344-0.295,0.637-0.586,0.855c-0.473,0.355-0.995,0.569-1.601,0.563
	c-0.86-0.012-1.72-0.01-2.58-0.004c-0.591,0.009-1.103-0.198-1.563-0.548c-0.429-0.325-0.639-0.775-0.69-1.306
	c-0.013-0.139-0.01-0.279-0.01-0.421c0-2.002,0-4.005,0-6.005c0-0.269,0.005-0.532,0.083-0.797c0.134-0.453,0.391-0.804,0.801-1.045
	c0.445-0.26,0.916-0.415,1.443-0.402c0.817,0.017,1.634,0.017,2.452,0c0.51-0.011,0.971,0.124,1.41,0.372
	c0.563,0.313,0.849,0.805,0.92,1.43c0.017,0.153,0.014,0.31,0.014,0.465C50.471,44.069,50.471,45.068,50.47,46.071z M44.919,46.061
	c0,0.93-0.002,1.859,0.001,2.792c0.001,0.167,0.005,0.341,0.039,0.503c0.077,0.375,0.325,0.585,0.704,0.62
	c0.056,0.004,0.113,0.004,0.168,0.004c0.72,0.005,1.438-0.006,2.156,0.007c0.585,0.008,0.848-0.303,0.913-0.84
	c0.007-0.055,0.007-0.112,0.007-0.167c0-1.945,0.001-3.892-0.003-5.837c0-0.141-0.018-0.283-0.055-0.417
	c-0.084-0.313-0.277-0.521-0.609-0.566c-0.125-0.017-0.253-0.025-0.378-0.025c-0.634-0.002-1.269-0.002-1.903,0
	c-0.127,0-0.254,0.009-0.379,0.025c-0.353,0.048-0.545,0.279-0.62,0.606c-0.037,0.163-0.038,0.336-0.039,0.504
	C44.917,44.199,44.919,45.129,44.919,46.061z"/>
<path fill-rule="evenodd" clip-rule="evenodd" fill="#FDFEFF" d="M78.88,46.057c0-1.438,0-2.877,0-4.312
	c0-0.185,0.003-0.367,0.083-0.54c0.096-0.206,0.244-0.342,0.475-0.37c0.125-0.018,0.252-0.027,0.379-0.027
	c1.437-0.002,2.874-0.002,4.311-0.002c0.056,0,0.113-0.003,0.169,0.002c0.289,0.023,0.439,0.147,0.496,0.427
	c0.036,0.179,0.043,0.366-0.002,0.544c-0.049,0.194-0.17,0.326-0.38,0.343c-0.126,0.011-0.253,0.011-0.379,0.011
	c-1.029,0-2.057,0-3.086,0c-0.113,0-0.226,0.002-0.337,0.002c-0.099,0.002-0.159,0.051-0.167,0.15
	c-0.006,0.084-0.005,0.169-0.005,0.251c0,2.354,0,4.707,0,7.061c0,0.412-0.024,0.389,0.392,0.389c1.113,0,2.226,0,3.339,0
	c0.085,0,0.169,0.004,0.254-0.005c0.377-0.032,0.582,0.141,0.625,0.574c0.008,0.085,0.007,0.169-0.001,0.251
	c-0.035,0.351-0.193,0.498-0.544,0.518c-0.07,0.006-0.141,0.002-0.211,0.002c-1.466,0-2.931,0-4.396-0.002
	c-0.113,0-0.228,0.006-0.338-0.008c-0.386-0.05-0.608-0.264-0.663-0.652c-0.018-0.126-0.011-0.251-0.012-0.379
	C78.88,48.875,78.88,47.465,78.88,46.057z"/>
<path fill-rule="evenodd" clip-rule="evenodd" fill="#FFFFFF" d="M196.813,46.049c0-1.395,0-2.79,0-4.183
	c0-0.142-0.004-0.283,0.014-0.422c0.046-0.377,0.255-0.581,0.631-0.624c0.124-0.013,0.253-0.015,0.38-0.015c1.38,0,2.761,0,4.143,0
	c0.085,0,0.17-0.003,0.253,0.005c0.278,0.021,0.404,0.127,0.481,0.39c0.041,0.139,0.044,0.279,0.033,0.42
	c-0.028,0.351-0.183,0.504-0.544,0.509c-0.831,0.007-1.662,0.003-2.492,0.003c-0.381,0-0.763-0.003-1.142,0.002
	c-0.178,0.002-0.199,0.025-0.206,0.193c-0.003,0.068-0.001,0.143-0.001,0.212c0,2.352,0,4.705,0,7.06
	c0,0.409-0.021,0.386,0.395,0.386c1.127,0,2.256,0,3.381,0c0.1,0,0.198-0.007,0.297,0c0.318,0.015,0.445,0.128,0.516,0.447
	c0.041,0.183,0.033,0.363-0.014,0.542c-0.053,0.203-0.189,0.31-0.387,0.343c-0.082,0.012-0.169,0.006-0.252,0.006
	c-1.522,0.002-3.044,0.002-4.566,0c-0.069,0-0.142,0.002-0.211-0.004c-0.434-0.043-0.66-0.27-0.701-0.701
	c-0.01-0.128-0.007-0.256-0.007-0.382C196.813,48.84,196.813,47.444,196.813,46.049z"/>
<path fill-rule="evenodd" clip-rule="evenodd" fill="#FFFFFF" d="M216.867,46.047c0-1.395,0-2.79,0-4.187
	c0.001-0.139-0.004-0.282,0.013-0.422c0.047-0.373,0.255-0.575,0.633-0.618c0.126-0.015,0.256-0.015,0.381-0.015
	c1.381,0,2.763,0,4.143,0c0.085,0,0.172-0.003,0.253,0.005c0.275,0.022,0.409,0.127,0.479,0.395
	c0.026,0.107,0.035,0.225,0.036,0.334c0.002,0.384-0.18,0.604-0.59,0.597c-0.889-0.015-1.777-0.004-2.664-0.004
	c-0.324,0-0.649,0-0.972,0.002c-0.103,0-0.157,0.053-0.159,0.153c-0.002,0.085-0.002,0.17-0.002,0.255c0,2.34,0,4.68,0,7.017
	c0,0.469-0.039,0.421,0.44,0.426c1.111,0,2.225,0,3.338,0c0.1,0,0.198-0.007,0.297,0c0.302,0.015,0.432,0.121,0.504,0.408
	c0.049,0.198,0.048,0.389-0.005,0.585c-0.055,0.202-0.192,0.306-0.39,0.339c-0.083,0.012-0.17,0.006-0.252,0.006
	c-1.524,0.002-3.045,0.002-4.566,0c-0.086,0-0.169,0.002-0.254-0.008c-0.392-0.054-0.606-0.269-0.651-0.66
	c-0.014-0.124-0.011-0.253-0.011-0.381C216.867,48.864,216.867,47.456,216.867,46.047z"/>
<path fill-rule="evenodd" clip-rule="evenodd" fill="#FFFFFF" d="M151.396,51.361c-0.228,0.027-0.454,0.017-0.679-0.009
	c-0.344-0.132-0.428-0.398-0.427-0.741c0.008-1.648,0.003-3.299,0.003-4.948c0-1.297,0-2.593,0-3.889
	c0-0.196-0.002-0.395,0.089-0.58c0.1-0.203,0.251-0.337,0.482-0.361c0.139-0.016,0.28-0.025,0.42-0.025c1.368,0,2.735,0,4.102,0
	c0.084,0,0.169,0,0.255,0.006c0.225,0.009,0.358,0.132,0.425,0.344c0.063,0.207,0.08,0.414,0.02,0.623
	c-0.066,0.229-0.185,0.326-0.424,0.347c-0.11,0.009-0.226,0.005-0.337,0.005c-1.001,0-2.002,0-3.003,0c-0.113,0-0.225,0-0.338,0.004
	c-0.081,0.005-0.125,0.057-0.13,0.138c-0.006,0.126-0.006,0.253-0.006,0.38c0,2.565,0,5.129,0,7.694
	c0,0.098-0.005,0.197,0.001,0.295C151.87,50.993,151.742,51.246,151.396,51.361z"/>
<path fill-rule="evenodd" clip-rule="evenodd" fill="#FDFEFF" d="M83.812,45.843c0.02,0.68-0.597,1.109-1.097,1.097
	c-0.612-0.013-1.094-0.487-1.091-1.105c0.002-0.615,0.491-1.096,1.101-1.099C83.234,44.73,83.835,45.162,83.812,45.843z"/>
<path fill-rule="evenodd" clip-rule="evenodd" fill="#FFFFFF" d="M155.225,45.836c0.002,0.619-0.474,1.097-1.091,1.101
	c-0.611,0.006-1.094-0.476-1.096-1.094c-0.002-0.613,0.481-1.107,1.09-1.104C154.736,44.738,155.224,45.225,155.225,45.836z"/>
<path fill-rule="evenodd" clip-rule="evenodd" fill="#FFFFFF" d="M201.744,45.861c-0.009,0.613-0.494,1.081-1.116,1.075
	c-0.607-0.006-1.09-0.504-1.078-1.119c0.014-0.615,0.511-1.091,1.121-1.082C201.24,44.745,201.774,45.234,201.744,45.861z"/>
<path fill-rule="evenodd" clip-rule="evenodd" fill="#FFFFFF" d="M221.798,45.865c-0.012,0.611-0.498,1.079-1.121,1.071
	c-0.607-0.006-1.088-0.508-1.073-1.122c0.016-0.614,0.514-1.088,1.123-1.079C221.294,44.745,221.83,45.234,221.798,45.865z"/>
<path fill-rule="evenodd" clip-rule="evenodd" fill="#FFFFFF" d="M228.213,49.138c-0.562-0.007-1.011-0.479-0.993-1.044
	c0.017-0.551,0.464-0.987,1.01-0.985c0.566,0,1.015,0.452,1.011,1.022C229.237,48.699,228.784,49.143,228.213,49.138z"/>
<path fill-rule="evenodd" clip-rule="evenodd" fill="#FDFEFF" d="M101.92,47.108c0.475-0.021,1.018,0.396,1.016,1.018
	c-0.001,0.611-0.541,1.031-1.024,1.015c-0.551-0.021-0.983-0.441-0.994-0.999C100.906,47.572,101.356,47.108,101.92,47.108z"/>
<path fill-rule="evenodd" clip-rule="evenodd" fill="#FFFFFF" d="M181.646,47.108c0.449-0.015,1.006,0.389,0.996,1.039
	c-0.012,0.575-0.525,1.016-1.046,0.993c-0.547-0.027-0.977-0.465-0.974-1.021C180.623,47.55,181.079,47.098,181.646,47.108z"/>
<path fill-rule="evenodd" clip-rule="evenodd" fill="#FDFEFF" d="M67.599,45.963c0,0.404-0.327,0.731-0.73,0.731h-4.077
	c-0.404,0-0.73-0.327-0.73-0.731V45.83c0-0.404,0.326-0.73,0.73-0.73h4.077c0.403,0,0.73,0.326,0.73,0.73V45.963z"/>
<path fill-rule="evenodd" clip-rule="evenodd" fill="#FFFFFF" d="M35.235,23.392c1.778-0.027,3.178,1.461,3.189,3.15
	c0.011,1.723-1.396,3.185-3.142,3.204c-1.748,0.018-3.164-1.398-3.176-3.157C32.093,24.817,33.503,23.374,35.235,23.392z"/>
</svg>
