<?xml version="1.0" encoding="utf-8"?>
<!-- Generator: Adobe Illustrator 16.0.4, SVG Export Plug-In . SVG Version: 6.00 Build 0)  -->
<!DOCTYPE svg PUBLIC "-//W3C//DTD SVG 1.1//EN" "http://www.w3.org/Graphics/SVG/1.1/DTD/svg11.dtd">
<svg version="1.1" id="Layer_1" xmlns="http://www.w3.org/2000/svg" xmlns:xlink="http://www.w3.org/1999/xlink" x="0px" y="0px"
	 width="882.86px" height="275.61px" viewBox="-375.38 -116.805 882.86 275.61"
	 enable-background="new -375.38 -116.805 882.86 275.61" xml:space="preserve">
<path fill="#1F1D1F" d="M33.007-71.868v24.137h-49.562V91.23h-28.824V-47.731H-94.94v-24.137H33.007z M123.974-30.462V92.114H97.729
	V79.878c-3.326,3.671-15.363,14.885-37.054,14.885c-16.654,0-32.087-5.71-43.374-16.106C4.93,67.23-1.666,51.184-1.666,32.222
	c0-47.457,37.392-64.656,62.478-64.656c19.994,0,29.846,7.343,35.556,12.847l0.133,0.136c0.684,0.681,1.162,1.089,1.566,1.089
	c0.272,0,0.479-0.272,0.817-2.038l0.75-3.808l0.677-3.333c0.412-2.038,1.833-2.921,4.688-2.921H123.974z M60.065,71.107
	c24.339,0,38.82-15.702,38.82-41.946c0-10.47-3.466-20.124-9.721-26.992C82.572-5.104,73.529-8.912,62.99-8.912
	c-23.795,0-39.162,15.841-39.162,40.383C23.828,50.572,33.349,71.107,60.065,71.107 M213.377-29.579
	c-1.367-0.953-6.399-2.789-12.036-2.789c-9.043,0-25.767,1.835-36.311,14.211c-0.677,0.813-1.155,1.155-1.56,1.155
	c-0.14,0-0.339-0.206-0.545-1.155l-1.155-4.83l-1.016-4.485c-0.544-2.108-1.905-2.925-4.693-2.925h-17.747V92.187h26.172V24.6
	c0-22.497,10.955-33.445,33.521-33.445c1.361,0,2.171,0.07,2.788,0.206l0.545,0.066h0.205l12.097-20.734L213.377-29.579z
	 M258.855,83.821c38.819,0,56.832,10.875,56.832,34.192c0,24.751-24.95,40.791-63.497,40.791c-33.515,0-54.322-12.847-54.322-33.448
	c0-11.691,5.849-20.734,17.342-26.849c-8.365-4.289-12.442-10.609-12.442-19.38c0-8.903,4.754-16.592,14.208-22.772
	c-9.381-9.521-14.818-22.169-14.818-34.81c0-15.775,5.776-29.372,16.585-39.228c10.064-9.179,23.529-14.208,38.002-14.208
	c8.977,0,17.408,1.902,24.95,5.64c7.276-4.076,15.908-6.048,26.518-6.048c5.643,0,11.015,0.883,14.818,2.446l0.278,0.136
	L311.199-8.301H311c-0.743-0.136-3.399-0.544-6.254-0.544l-3.333,0.136c5.577,8.498,8.564,18.424,8.564,28.691
	c0,13.872-5.099,26.786-14.341,36.373c-9.998,10.403-23.795,15.834-39.842,15.834c-8.159,0-15.907-1.627-23.045-4.82
	c-2.854,2.039-4.288,4.621-4.288,7.821C228.534,82.388,240.16,83.821,258.855,83.821 M287.816,119.514
	c0-8.631-6.732-11.492-31.338-13.464l-3.943-0.266c-5.511-0.412-11.22-0.89-16.863-1.634c-4.761,3.333-10.331,8.903-10.331,16.585
	c0,11.42,10.059,16.996,30.727,16.996C275.374,137.665,287.816,130.521,287.816,119.514 M256.406-9.456
	c-13.598,0-27.6,11.081-27.6,29.71c0,17.744,10.809,30.119,26.305,30.119c8.299,0,27.672-3.134,27.672-31.888
	C282.783,4.616,273.741-9.456,256.406-9.456 M507.48-6.531v-23.795h-29.505V-65h-26.789v34.74h-14.28v23.795h14.28v63.57
	c0,25.216,13.192,37.458,40.313,37.458c7.276,0,12.78-0.677,15.502-1.979l0.199-0.066V68.392l-0.404,0.133
	c-3.061,0.884-5.982,1.494-12.582,1.494c-11.685,0-16.239-5.981-16.239-21.278V-6.395h29.505V-6.531z M378.641-32.504
	c28.761,0,61.26,23.522,56.16,69.413h-89.676c1.979,24.884,16.798,35.214,34.404,35.214c19.374,0,26.717-11.618,30.05-18.557h25.627
	c-1.493,16.047-20.801,40.857-58.664,40.857c-34.61,0-58.544-28.415-58.544-62.269C317.998-16.118,353.219-32.504,378.641-32.504
	 M407.534,15.836c-1.155-12.714-10.669-26.311-28.416-26.311c-13.936,0-27.938,6.457-32.559,26.311H407.534z"/>
<path fill="#BA0000" d="M-248.385-116.805c-70.16,0-126.995,56.835-126.995,126.928c0,70.094,56.835,126.998,126.995,126.998
	c70.163,0,126.931-56.832,126.931-126.998C-121.454-60.037-178.292-116.805-248.385-116.805 M-248.385,92.658
	c-45.548,0-82.532-36.987-82.532-82.535c0-45.548,36.914-82.535,82.532-82.535c45.618,0,82.535,36.987,82.535,82.535
	C-165.85,55.737-202.834,92.658-248.385,92.658 M-248.385-31.143c22.776,0,41.269,18.49,41.269,41.266
	c0,22.775-18.493,41.272-41.269,41.272c-22.772,0-41.266-18.497-41.266-41.272C-289.651-12.653-271.158-31.143-248.385-31.143"/>
</svg>
