<?xml version="1.0" standalone="no"?>
<!DOCTYPE svg PUBLIC "-//W3C//DTD SVG 20010904//EN"
 "http://www.w3.org/TR/2001/REC-SVG-20010904/DTD/svg10.dtd">
<svg version="1.0" xmlns="http://www.w3.org/2000/svg"
 width="1225.000000pt" height="1225.000000pt" viewBox="0 0 1225.000000 1225.000000"
 preserveAspectRatio="xMidYMid meet">
<metadata>
Created by potrace 1.11, written by Peter Selinger 2001-2013
</metadata>
<g transform="translate(0.000000,1225.000000) scale(0.100000,-0.100000)"
fill="#000000" stroke="none">
<path d="M292 10895 c-52 -15 -137 -64 -178 -102 -34 -34 -81 -115 -97 -168
-61 -208 52 -423 259 -494 59 -20 68 -20 3369 -21 3304 -1 3929 -3 4080 -15
138 -11 257 -23 294 -30 10 -2 42 -6 71 -10 29 -4 62 -9 74 -11 12 -3 46 -9
76 -15 120 -23 343 -83 495 -133 714 -239 1362 -691 1834 -1279 67 -83 241
-322 241 -331 0 -2 28 -48 62 -102 56 -89 215 -394 245 -469 7 -16 23 -57 37
-90 77 -186 161 -450 192 -605 3 -14 9 -41 14 -60 5 -19 11 -51 14 -70 3 -19
8 -46 11 -60 2 -13 7 -40 10 -60 3 -20 7 -46 10 -59 2 -13 7 -49 10 -80 4 -31
8 -67 10 -80 20 -119 26 -548 11 -736 -11 -145 -18 -201 -46 -360 -10 -60 -22
-126 -25 -145 -14 -80 -81 -325 -127 -460 -345 -1015 -1069 -1835 -2033 -2305
-93 -46 -213 -100 -265 -120 -168 -66 -432 -150 -539 -171 -12 -3 -53 -12 -89
-20 -37 -9 -78 -17 -92 -19 -14 -2 -36 -6 -50 -9 -37 -8 -160 -27 -202 -32
-21 -2 -57 -6 -80 -9 -204 -24 -696 -25 -824 -1 -10 2 -50 7 -89 10 -38 4 -77
9 -85 11 -8 2 -35 7 -60 10 -25 4 -76 13 -115 20 -38 8 -82 16 -96 19 -48 8
-293 75 -384 105 -464 153 -877 377 -1265 687 -130 105 -449 413 -520 503 -19
24 -43 53 -53 63 -60 63 -279 374 -346 490 -10 18 -35 62 -56 98 -20 36 -63
117 -95 180 -33 67 -75 133 -99 157 -220 227 -597 131 -675 -172 -38 -144 -9
-240 173 -560 71 -126 65 -117 150 -250 105 -165 321 -455 407 -545 13 -14 38
-41 55 -60 48 -55 240 -250 306 -310 114 -105 139 -127 243 -211 137 -112 344
-262 432 -314 9 -5 63 -38 120 -72 156 -93 161 -96 333 -181 309 -154 735
-312 965 -357 8 -2 33 -8 55 -13 41 -11 215 -47 270 -56 17 -3 48 -8 70 -11
22 -4 51 -8 65 -10 14 -2 39 -6 55 -9 17 -2 57 -7 90 -11 61 -7 83 -9 240 -21
173 -14 651 -7 775 11 14 2 52 6 85 10 33 3 71 8 85 10 14 2 43 7 65 10 652
92 1314 339 1875 698 52 34 97 64 100 67 3 3 25 18 50 34 95 62 318 236 454
355 83 73 373 369 447 456 171 202 306 384 430 583 240 385 454 871 555 1262
8 30 17 63 19 73 10 37 18 70 39 157 14 61 18 81 31 155 3 17 10 53 15 80 5
28 12 70 15 95 3 25 8 56 10 70 2 14 7 52 10 85 4 33 8 71 10 85 19 133 26
615 12 805 -13 173 -34 347 -52 445 -3 19 -8 50 -11 68 -3 26 -26 135 -49 232
-29 126 -40 171 -66 258 -80 275 -167 498 -299 767 -245 497 -529 894 -924
1288 -575 575 -1278 985 -2081 1216 -38 11 -81 22 -95 25 -14 2 -61 14 -105
25 -44 11 -93 22 -109 25 -16 3 -52 10 -80 15 -75 15 -99 19 -226 36 -63 9
-126 18 -140 20 -14 2 -63 7 -110 10 -47 4 -107 10 -135 12 -27 3 -1706 7
-3730 9 -3192 3 -3687 1 -3733 -11z"/>
<path d="M714 8729 c-111 -38 -216 -139 -250 -244 -36 -105 -24 -241 28 -332
48 -84 141 -158 234 -186 56 -16 43 -16 869 -22 1718 -13 2142 -14 2180 -4 77
21 129 52 186 108 82 82 117 166 117 282 0 198 -139 361 -336 394 -17 3 -355
7 -750 10 -2438 16 -2210 17 -2278 -6z"/>
<path d="M7318 8735 c-2 -2 -34 -6 -73 -9 -748 -72 -1311 -453 -1513 -1026
-16 -47 -33 -105 -38 -130 -4 -25 -8 -47 -9 -50 -2 -7 -16 -88 -21 -123 -11
-71 -2 -425 12 -448 2 -3 10 -40 19 -81 90 -436 399 -780 871 -969 135 -54
386 -125 504 -144 25 -4 54 -9 65 -11 11 -2 80 -13 155 -24 161 -24 217 -35
400 -75 44 -9 253 -81 300 -103 217 -101 320 -236 320 -422 0 -95 -21 -148
-91 -223 -106 -116 -320 -219 -504 -243 -16 -2 -57 -7 -90 -11 -91 -12 -388
-4 -414 11 -3 2 -30 6 -59 10 -81 10 -256 70 -363 125 -106 53 -213 123 -329
212 -122 94 -211 127 -340 127 -144 0 -264 -52 -363 -157 -101 -108 -147 -217
-148 -351 0 -70 3 -86 25 -164 46 -156 208 -323 486 -500 155 -99 459 -228
589 -251 19 -3 37 -8 41 -10 4 -2 20 -7 36 -9 16 -3 40 -8 54 -11 105 -21 262
-43 365 -51 80 -5 451 -5 500 1 289 35 452 74 663 159 131 53 216 98 342 182
215 143 378 316 502 534 60 106 131 321 143 437 4 30 8 64 11 76 6 27 6 285 0
312 -2 11 -7 54 -11 95 -4 41 -9 78 -11 81 -2 3 -6 21 -9 40 -27 164 -115 361
-225 504 -26 34 -163 169 -203 200 -134 105 -329 202 -547 276 -100 33 -295
87 -370 103 -14 3 -36 7 -50 10 -14 3 -36 8 -50 11 -38 8 -69 14 -135 25 -33
6 -80 15 -105 20 -25 5 -61 12 -80 14 -208 29 -521 125 -654 200 -146 83 -210
186 -210 341 0 99 9 134 54 204 75 116 236 207 425 240 33 6 74 13 90 16 17 3
95 7 175 9 121 2 164 -1 265 -21 246 -50 530 -163 701 -280 147 -101 198 -120
312 -121 137 0 250 47 351 149 180 179 207 442 67 652 -135 203 -521 430 -931
548 -88 26 -132 35 -242 55 -16 3 -35 7 -43 9 -8 2 -46 7 -85 10 -38 4 -81 9
-95 12 -25 5 -427 12 -432 8z"/>
<path d="M1572 6535 c-102 -28 -207 -115 -251 -209 -29 -61 -39 -108 -39 -178
1 -159 83 -287 234 -363 l59 -30 785 -2 c768 -2 786 -2 846 18 203 68 317 287
257 492 -37 128 -142 233 -271 271 -47 13 -153 15 -810 15 -624 0 -766 -3
-810 -14z"/>
</g>
</svg>
