<svg xmlns="http://www.w3.org/2000/svg" viewBox="0 0 306.2 239.16"><defs><style>.cls-1,.cls-2{stroke:#000;stroke-linecap:round;stroke-miterlimit:10;}.cls-1{stroke-width:6px;}.cls-2{fill:none;stroke-width:20px;}</style></defs><title>Asset 3octa</title><g id="Layer_2" data-name="Layer 2"><g id="Layer_1-2" data-name="Layer 1"><path class="cls-1" d="M165.93,176.52a50.6,50.6,0,0,1-18-10.15q-4.65-4-4.7-8.93a10,10,0,0,1,9.8-9.93,9.08,9.08,0,0,1,5.82,2,50.23,50.23,0,0,0,13.39,8,42,42,0,0,0,15.39,2.38A30.87,30.87,0,0,0,204,155.45q6.87-4.3,6.8-10.58-.08-7.62-6.95-11.88t-21.74-6.3q-37.43-5-37.73-34.19a31.08,31.08,0,0,1,5.44-18.61A35.53,35.53,0,0,1,165.1,61.7a54.69,54.69,0,0,1,21.63-4.37,62.48,62.48,0,0,1,20.26,3,49.21,49.21,0,0,1,15.87,8.31q5,3.85,5,8.93a9.52,9.52,0,0,1-2.83,6.89,9.24,9.24,0,0,1-6.8,3A7.53,7.53,0,0,1,213.65,86a45.22,45.22,0,0,0-12.44-6.4,41.31,41.31,0,0,0-14.28-2.82q-10.75.11-16.6,4.15t-5.78,10.48a12.12,12.12,0,0,0,6.17,11q6.09,3.67,19.09,5.91,14.7,2.39,23.53,6.28a29.93,29.93,0,0,1,13.34,10.71q4.51,6.82,4.62,18.17a30.28,30.28,0,0,1-5.87,18.79,38.91,38.91,0,0,1-16,12.54,54.36,54.36,0,0,1-21.63,4.54A71.79,71.79,0,0,1,165.93,176.52Z"/><path class="cls-2" d="M10,10H171l15.7.16A109.5,109.5,0,1,1,87.76,166.65"/><line class="cls-2" x1="21" y1="64" x2="92" y2="64.5"/><line class="cls-2" x1="42" y1="119" x2="77" y2="119"/></g></g></svg>