<?xml version="1.0" encoding="utf-8"?>
<!-- Generator: Adobe Illustrator 16.0.0, SVG Export Plug-In . SVG Version: 6.00 Build 0)  -->
<!DOCTYPE svg PUBLIC "-//W3C//DTD SVG 1.1//EN" "http://www.w3.org/Graphics/SVG/1.1/DTD/svg11.dtd">
<svg version="1.1" id="Capa_1" xmlns="http://www.w3.org/2000/svg" xmlns:xlink="http://www.w3.org/1999/xlink" x="0px" y="0px"
	 width="32px" height="32px" viewBox="0 0 32 32" enable-background="new 0 0 32 32" xml:space="preserve">
<rect x="15" y="25" fill="#31CFFF" width="7" height="1"/>
<rect x="11" y="27" fill="#31CFFF" width="10" height="1"/>
<g>
	<path fill="#BCBCBC" d="M19.35,20.82c-0.729,0.72-2.29,1.279-3.43,1.6c0.31-1.13,0.88-2.72,1.6-3.43L19.35,20.82z"/>
	<path fill="#2D2220" d="M27.83,9.5c-0.36-0.14-0.71-0.2-1.05-0.2c-1.37,0-2.48,0.91-2.48,0.91s-3.01,2.41-5.49,4.48
		C18.47,12.08,17.73,8.47,17,7c-1-2-2-2-2-2H8c0,0-1,0-2,2c-0.76,1.52-1.52,5.37-1.84,8h1c0.11-0.91,0.28-1.96,0.48-3h11.72
		c0.06,0.33,0.12,0.67,0.18,1c0.15,0.87,0.27,1.72,0.35,2.45c-0.93,0.79-1.7,1.46-2.08,1.83c-1,1-1.65,3.08-1.94,4.189
		c-0.29-0.109-0.62-0.18-0.97-0.18c-0.55,0-1.16,0.18-1.78,0.71H11c-0.2,0-0.38,0-0.57-0.02c-0.18,0-0.36-0.021-0.53-0.04
		C6.37,21.59,5.35,19.52,5.08,18h-1c0.31,1.98,1.66,4.71,6.18,4.98C8.89,25.09,9.45,27.89,9.45,27.89S10,28,10.83,28
		c2.62,0,3.63-1,3.63-1c1.15-0.88,1.51-2,1.51-2c0.14-0.57,0.06-1.1-0.11-1.54c1.12-0.29,3.19-0.93,4.19-1.94
		c1.42-1.409,7.07-8.479,7.07-8.479S28.46,11.46,27.83,9.5z M11,11H5.84c0.32-1.49,0.69-2.84,1.05-3.55C7.47,6.29,7.97,6.04,8.08,6
		H11V11z M12,11V6h2.92c0.09,0.03,0.47,0.22,0.94,1c0.08,0.13,0.16,0.28,0.25,0.45c0.36,0.71,0.73,2.06,1.05,3.55H12z M12.12,26.89
		c-0.6,0.08-1.17,0.101-1.77,0.101c-0.04-0.61-0.01-1.221,0.11-1.82c0.24-1.229,1.17-3.11,2.7-2.86c0.99,0.16,1.89,1.051,1.89,2.08
		C15.05,25.85,13.33,26.65,12.12,26.89z M15.92,22.42c-0.18,0.05-0.35,0.09-0.5,0.13l-0.22-0.21l-0.06-0.07l-0.08-0.079l-0.27-0.28
		c0.12-0.5,0.32-1.19,0.57-1.86l1.93,1.92C16.82,22.15,16.34,22.3,15.92,22.42z M18.27,21.54l-2.479-2.47
		c0.22-0.44,0.46-0.82,0.73-1.08l1,1l1.83,1.83C19.08,21.08,18.7,21.33,18.27,21.54z M26.83,11.5c-0.18,0.53-0.46,0.88-0.49,0.91
		c-0.04,0.06-4.35,5.45-6.31,7.68l-2.78-2.78c2.23-1.959,7.61-6.28,7.68-6.319c0-0.01,0.88-0.69,1.851-0.69
		c0.069,0,0.14,0.01,0.21,0.01C27.04,10.76,26.96,11.17,26.83,11.5z"/>
	<path fill="#31CFFF" d="M15.05,24.39c0,0.42-0.16,0.891-0.65,1.38c-0.86,0.86-2.06,1.15-3.05,1.211
		c-0.06-1.011,0.02-2.841,1.22-4.04c0.28-0.28,0.56-0.471,0.84-0.57c0.4,0.12,0.72,0.35,0.88,0.47l0.07,0.061l0.12,0.119
		C14.71,23.28,15.05,23.78,15.05,24.39z"/>
	<path fill="#E371FF" d="M26.83,11.5c-0.18,0.53-0.46,0.88-0.49,0.91c-0.04,0.06-4.35,5.45-6.31,7.68l-1.78-1.78
		c2.23-1.959,7.61-6.28,7.68-6.319C25.93,11.98,26.3,11.69,26.83,11.5z"/>
	<path fill="#FFA28D" d="M17.16,11H13V7h2.86c0.08,0.13,0.16,0.28,0.25,0.45C16.47,8.16,16.84,9.51,17.16,11z"/>
	<path fill="#FFA28D" d="M11,7v4H7.07c0.26-1.08,0.54-2,0.82-2.55C8.47,7.29,8.97,7.04,9.08,7H11z"/>
	<path fill="#BCBCBC" d="M17.16,11H13V7h2.86c0.08,0.13,0.16,0.28,0.25,0.45C16.47,8.16,16.84,9.51,17.16,11z"/>
	<path fill="#BCBCBC" d="M11,7v4H7.07c0.26-1.08,0.54-2,0.82-2.55C8.47,7.29,8.97,7.04,9.08,7H11z"/>
	<path fill="#BCBCBC" d="M17.89,15.45c-0.93,0.79-1.7,1.46-2.08,1.83c-1,1-1.65,3.08-1.94,4.189c-0.29-0.109-0.62-0.18-0.97-0.18
		c-0.55,0-1.16,0.18-1.78,0.71H11c-0.2,0-0.38,0-0.57-0.02c-0.18,0-0.36-0.021-0.53-0.04C8.24,20.79,8,18.97,8,18
		c0-1.02,0.26-3.04,0.64-5h8.9C17.69,13.87,17.81,14.72,17.89,15.45z"/>
</g>
<circle fill="#2D2220" cx="4.5" cy="16.5" r="0.5"/>
<path fill="#31CFFF" d="M26,25.5c0-0.276-0.224-0.5-0.5-0.5h-2c-0.276,0-0.5,0.224-0.5,0.5l0,0c0,0.276,0.224,0.5,0.5,0.5h2
	C25.776,26,26,25.776,26,25.5L26,25.5z"/>
<path fill="#31CFFF" d="M29,25.5c0-0.276-0.224-0.5-0.5-0.5h-1c-0.276,0-0.5,0.224-0.5,0.5l0,0c0,0.276,0.224,0.5,0.5,0.5h1
	C28.776,26,29,25.776,29,25.5L29,25.5z"/>
<path fill="#31CFFF" d="M25,27.5c0-0.276-0.224-0.5-0.5-0.5h-2c-0.276,0-0.5,0.224-0.5,0.5l0,0c0,0.276,0.224,0.5,0.5,0.5h2
	C24.776,28,25,27.776,25,27.5L25,27.5z"/>
<path fill="#31CFFF" d="M28,27.5c0-0.276-0.224-0.5-0.5-0.5h-1c-0.276,0-0.5,0.224-0.5,0.5l0,0c0,0.276,0.224,0.5,0.5,0.5h1
	C27.776,28,28,27.776,28,27.5L28,27.5z"/>
</svg>
