
<svg width="30px" height="39px" viewBox="0 0 30 39" version="1.1" xmlns="http://www.w3.org/2000/svg" xmlns:xlink="http://www.w3.org/1999/xlink">
    <!-- Generator: Sketch 45.1 (43504) - http://www.bohemiancoding.com/sketch -->
    <desc>Created with Sketch.</desc>
    <defs></defs>
    <g id="Home" stroke="none" stroke-width="1" fill="none" fill-rule="evenodd">
        <g id="Home-secondary-nav-behavior" transform="translate(-220.000000, -4300.000000)" fill="#53585F">
            <g id="Group-24" transform="translate(0.000000, 4186.000000)">
                <g id="Group-22" transform="translate(220.000000, 114.000000)">
                    <g id="Group-16">
                        <g id="Shape-+-Shape">
                            <path d="M14.8772756,0.0801411201 C6.67390301,0.0801411201 0,6.82400016 0,15.1133607 C0,18.168457 0.902055242,21.1094522 2.60876773,23.6183776 C4.18393942,25.9340342 6.34146547,27.7415896 8.86953202,28.8691892 L13.7127809,37.5196715 C13.9501751,37.943738 14.395102,38.2059001 14.8771685,38.2059001 C15.3592351,38.2059001 15.804162,37.943738 16.0415562,37.5196715 L20.8848051,28.8691892 C23.4128716,27.7415896 25.5703977,25.9340342 27.1455694,23.6183776 C28.8524959,21.1094522 29.7545512,18.168457 29.7545512,15.1133607 C29.7545512,6.82400016 23.0806481,0.0801411201 14.8772756,0.0801411201 L14.8772756,0.0801411201 Z M18.7802593,27.137557 L14.8772756,34.1085366 L10.9742919,27.137557 C10.8253051,26.8715014 10.5914429,26.6642809 10.3109153,26.5497473 C5.67273729,24.6566431 2.67576899,20.1676589 2.67576899,15.1133607 C2.67576899,8.31488456 8.14932203,2.78395759 14.8772756,2.78395759 C21.6052291,2.78395759 27.0787822,8.31488456 27.0787822,15.1133607 C27.0787822,20.1676589 24.0818139,24.6566431 19.4436359,26.5497473 C19.1631083,26.6642809 18.9292461,26.8715014 18.7802593,27.137557 Z" id="Shape"></path>
                            <path d="M14.8772756,9.35520498 C11.7788421,9.35520498 9.2581607,11.9023082 9.2581607,15.0332196 C9.2581607,18.1641309 11.7788421,20.7112341 14.8772756,20.7112341 C17.975709,20.7112341 20.4963905,18.1641309 20.4963905,15.0332196 C20.4963905,11.9023082 17.975709,9.35520498 14.8772756,9.35520498 L14.8772756,9.35520498 Z M14.8772756,18.0074177 C13.2542611,18.0074177 11.9339297,16.6732465 11.9339297,15.0332196 C11.9339297,13.3931926 13.2542611,12.0590214 14.8772756,12.0590214 C16.50029,12.0590214 17.8206215,13.3931926 17.8206215,15.0332196 C17.8206215,16.6732465 16.50029,18.0074177 14.8772756,18.0074177 L14.8772756,18.0074177 Z" id="Shape"></path>
                        </g>
                    </g>
                </g>
            </g>
        </g>
    </g>
</svg>
