
<svg width="34px" height="32px" viewBox="0 0 34 32" version="1.1" xmlns="http://www.w3.org/2000/svg" xmlns:xlink="http://www.w3.org/1999/xlink">
    <!-- Generator: Sketch 45.1 (43504) - http://www.bohemiancoding.com/sketch -->
    <desc>Created with Sketch.</desc>
    <defs></defs>
    <g id="Home" stroke="none" stroke-width="1" fill="none" fill-rule="evenodd">
        <g id="Home-secondary-nav-behavior" transform="translate(-219.000000, -4350.000000)" stroke-width="0.5" stroke="#53585F" fill="#53585F">
            <g id="Group-24" transform="translate(0.000000, 4186.000000)">
                <g id="Group-22" transform="translate(220.000000, 114.000000)">
                    <g id="Group-15" transform="translate(0.000000, 51.000000)">
                        <g id="Group">
                            <path d="M31.0104971,2.70445459 C30.3859422,2.5706082 29.7715607,2.96799066 29.6378266,3.5914987 L28.7976879,7.50722159 C26.1227283,2.94951635 21.2130405,0.0896004152 15.8319538,0.0896004152 C7.5449711,0.0896004152 0.803052023,6.8231178 0.803052023,15.0999792 C0.803052023,15.7376201 1.32060116,16.2546238 1.95912139,16.2546238 C2.59754913,16.2546238 3.11519075,15.7376201 3.11519075,15.0999792 C3.11519075,8.09655215 8.81988439,2.39888947 15.8319538,2.39888947 C20.403422,2.39888947 24.5732254,4.83777582 26.8307977,8.72107628 L22.9766474,7.89610586 C22.352185,7.76244421 21.737711,8.1597343 21.6040694,8.78324235 C21.4702428,9.40675039 21.8679306,10.0206518 22.4922081,10.1542211 L29.1082543,11.5702771 C29.2206243,11.5943861 29.3348439,11.601314 29.4473064,11.5918921 C29.6348671,11.5760965 29.817526,11.5146694 29.9785434,11.4106591 C30.2360231,11.2442979 30.4167399,10.9826092 30.4809249,10.683233 L31.8988208,4.07534094 C32.0324624,3.4518329 31.6347746,2.83811624 31.0104971,2.70445459 L31.0104971,2.70445459 Z" id="Shape"></path>
                            <path d="M29.8472139,13.5865636 C29.2090636,13.6076243 28.7088092,14.1413472 28.729896,14.7786186 C28.8419884,18.1693939 27.625341,21.4007359 25.3040462,23.8775869 C22.9827514,26.3543456 19.8347283,27.7801007 16.4398613,27.892055 C16.2982659,27.8966736 16.1575954,27.8989829 16.0166474,27.8989829 C11.5869595,27.8987981 7.50631214,25.6011479 5.20175723,21.8782968 L9.21997688,22.9544255 C9.83667052,23.1194935 10.470659,22.754164 10.6360231,22.138138 C10.8013873,21.5222045 10.4355145,20.8890898 9.81882081,20.7238371 L3.28342197,18.9736731 C2.98728324,18.8945106 2.67163006,18.9358931 2.40619653,19.0888604 C2.14057803,19.2419201 1.94682081,19.4940944 1.86737572,19.7898682 L0.115144509,26.3172122 C-0.0502196532,26.9331458 0.315653179,27.5662605 0.932346821,27.7315132 C1.03269364,27.7583934 1.13331792,27.771233 1.23246243,27.771233 C1.74279769,27.771233 2.2099422,27.4310285 2.34839306,26.9153181 L3.33327168,23.2465968 C6.07306358,27.5555454 10.8420809,30.2083643 16.016,30.2081796 C16.1821965,30.2081796 16.3492254,30.2055008 16.5161618,30.1999585 C20.5282775,30.06759 24.2486936,28.3827327 26.9920925,25.4555703 C29.7353988,22.5285003 31.1732717,18.7095828 31.0407399,14.7023197 C31.0197457,14.0651406 30.4850867,13.5639325 29.8472139,13.5865636 L29.8472139,13.5865636 Z" id="Shape"></path>
                        </g>
                    </g>
                </g>
            </g>
        </g>
    </g>
</svg>
