
<svg width="33px" height="33px" viewBox="0 0 33 33" version="1.1" xmlns="http://www.w3.org/2000/svg" xmlns:xlink="http://www.w3.org/1999/xlink">
    <!-- Generator: Sketch 45.1 (43504) - http://www.bohemiancoding.com/sketch -->
    <desc>Created with Sketch.</desc>
    <defs></defs>
    <g id="Home" stroke="none" stroke-width="1" fill="none" fill-rule="evenodd">
        <g id="Home-secondary-nav-behavior" transform="translate(-219.000000, -4393.000000)" stroke-width="0.5" stroke="#53585F" fill="#53585F">
            <g id="Group-24" transform="translate(0.000000, 4186.000000)">
                <g id="Group-22" transform="translate(220.000000, 114.000000)">
                    <g id="Group-21" transform="translate(0.000000, 94.000000)">
                        <g id="globe32">
                            <g id="Layer_1">
                                <path d="M15.4608586,0 C6.93570202,0 0,6.93570202 0,15.4608586 C0,23.9860152 6.93570202,30.9217172 15.4608586,30.9217172 C23.9860152,30.9217172 30.9217172,23.9860152 30.9217172,15.4608586 C30.9217172,6.93570202 23.9860152,0 15.4608586,0 L15.4608586,0 Z M28.9289495,14.4823232 L21.9054141,14.4823232 C21.811553,11.0817955 21.2300682,7.90413889 20.2436263,5.44817172 C19.7049621,4.10695202 19.0633561,3.03870455 18.3480076,2.26887121 C24.1022652,3.52718939 28.4958889,8.46464394 28.9289495,14.4823232 L28.9289495,14.4823232 Z M15.4608586,28.1266288 C14.45375,28.1266288 13.3447172,26.8622045 12.494096,24.7441843 C11.5968182,22.5099924 11.0650429,19.5907475 10.9737652,16.4393939 L19.9480303,16.4393939 C19.8566742,19.5907475 19.3249773,22.5099924 18.4276212,24.7441843 C17.577,26.8622045 16.4678889,28.1266288 15.4608586,28.1266288 L15.4608586,28.1266288 Z M10.9737652,14.4823232 C11.0650429,11.3309697 11.5968182,8.41172475 12.494096,6.17753283 C13.3447172,4.05951263 14.4538283,2.79508838 15.4608586,2.79508838 C16.4678889,2.79508838 17.577,4.05951263 18.4275429,6.17753283 C19.324899,8.41172475 19.856596,11.3309697 19.947952,14.4823232 L10.9737652,14.4823232 L10.9737652,14.4823232 Z M12.5736313,2.26879293 C11.8582828,3.03862626 11.2166768,4.10687374 10.6780126,5.44809343 C9.69164899,7.90413889 9.11016414,11.0817172 9.01630303,14.4822449 L1.99276768,14.4822449 C2.42582828,8.46464394 6.81945202,3.52718939 12.5736313,2.26879293 L12.5736313,2.26879293 Z M1.99276768,16.4393939 L9.01630303,16.4393939 C9.11016414,19.8399217 9.69164899,23.0175783 10.6780126,25.4735455 C11.2166768,26.8147652 11.8582828,27.8830126 12.5736313,28.652846 C6.81945202,27.3945278 2.42582828,22.4570732 1.99276768,16.4393939 L1.99276768,16.4393939 Z M18.3480859,28.6529242 C19.0634343,27.8830909 19.7050404,26.8148434 20.2437045,25.4736237 C21.2301465,23.0175783 21.811553,19.84 21.9054924,16.4394722 L28.9290278,16.4394722 C28.4958889,22.4570732 24.1022652,27.3945278 18.3480859,28.6529242 L18.3480859,28.6529242 Z" id="Shape"></path>
                            </g>
                        </g>
                    </g>
                </g>
            </g>
        </g>
    </g>
</svg>
