<?xml version="1.0" encoding="utf-8"?>
<!-- Generator: Adobe Illustrator 16.0.0, SVG Export Plug-In . SVG Version: 6.00 Build 0)  -->
<!DOCTYPE svg PUBLIC "-//W3C//DTD SVG 1.1//EN" "http://www.w3.org/Graphics/SVG/1.1/DTD/svg11.dtd">
<svg version="1.1" id="Capa_1" xmlns="http://www.w3.org/2000/svg" xmlns:xlink="http://www.w3.org/1999/xlink" x="0px" y="0px"
	 width="32px" height="32px" viewBox="0 0 32 32" enable-background="new 0 0 32 32" xml:space="preserve">
<path fill="#31CFFF" d="M27,17c0,0-0.01,5-4.5,5c-1.07,0-1.88-0.28-2.5-0.71c-0.08-0.13-0.458-0.155-0.438-0.165L26.3,15.44
	c0.021,0.01,0.04,0.02,0.061,0.04l0.01,0.01c0.27,0.23,0.51,0.57,0.59,1.07C26.99,16.689,27,16.84,27,17z"/>
<g>
	<path fill="#FFD561" d="M8,7.5C8,7.78,7.78,8,7.5,8H7v0.5C7,8.78,6.78,9,6.5,9S6,8.78,6,8.5V8H5.5C5.22,8,5,7.78,5,7.5
		S5.22,7,5.5,7H6V6.5C6,6.22,6.22,6,6.5,6S7,6.22,7,6.5V7h0.5C7.78,7,8,7.22,8,7.5z"/>
</g>
<g>
	<path fill="#FFD561" d="M29,27.5c0,0.279-0.221,0.5-0.5,0.5H28v0.5c0,0.279-0.221,0.5-0.5,0.5S27,28.779,27,28.5V28h-0.5
		c-0.279,0-0.5-0.221-0.5-0.5s0.221-0.5,0.5-0.5H27v-0.5c0-0.279,0.221-0.5,0.5-0.5s0.5,0.221,0.5,0.5V27h0.5
		C28.779,27,29,27.221,29,27.5z"/>
</g>
<g>
	<path fill="#5FFFBA" d="M30,6.5C30,6.78,29.779,7,29.5,7H28v1.5C28,8.78,27.779,9,27.5,9S27,8.78,27,8.5V7h-1.5
		C25.221,7,25,6.78,25,6.5S25.221,6,25.5,6H27V4.5C27,4.22,27.221,4,27.5,4S28,4.22,28,4.5V6h1.5C29.779,6,30,6.22,30,6.5z"/>
</g>
<g>
	<path fill="#5FFFBA" d="M10,27.5c0,0.279-0.22,0.5-0.5,0.5H8v1.5C8,29.779,7.78,30,7.5,30S7,29.779,7,29.5V28H5.5
		C5.22,28,5,27.779,5,27.5S5.22,27,5.5,27H7v-1.5C7,25.221,7.22,25,7.5,25S8,25.221,8,25.5V27h1.5C9.78,27,10,27.221,10,27.5z"/>
</g>
<g>
	<path fill="#2D2220" d="M7,6.5C7,6.78,6.78,7,6.5,7H6v0.5C6,7.78,5.78,8,5.5,8S5,7.78,5,7.5V7H4.5C4.22,7,4,6.78,4,6.5
		S4.22,6,4.5,6H5V5.5C5,5.22,5.22,5,5.5,5S6,5.22,6,5.5V6h0.5C6.78,6,7,6.22,7,6.5z"/>
</g>
<g>
	<path fill="#2D2220" d="M28,26.5c0,0.279-0.221,0.5-0.5,0.5H27v0.5c0,0.279-0.221,0.5-0.5,0.5S26,27.779,26,27.5V27h-0.5
		c-0.279,0-0.5-0.221-0.5-0.5s0.221-0.5,0.5-0.5H26v-0.5c0-0.279,0.221-0.5,0.5-0.5s0.5,0.221,0.5,0.5V26h0.5
		C27.779,26,28,26.221,28,26.5z"/>
</g>
<g>
	<path fill="#2D2220" d="M29,5.5C29,5.78,28.779,6,28.5,6H27v1.5C27,7.78,26.779,8,26.5,8S26,7.78,26,7.5V6h-1.5
		C24.221,6,24,5.78,24,5.5S24.221,5,24.5,5H26V3.5C26,3.22,26.221,3,26.5,3S27,3.22,27,3.5V5h1.5C28.779,5,29,5.22,29,5.5z"/>
</g>
<g>
	<path fill="#2D2220" d="M9,26.5C9,26.779,8.78,27,8.5,27H7v1.5C7,28.779,6.78,29,6.5,29S6,28.779,6,28.5V27H4.5
		C4.22,27,4,26.779,4,26.5S4.22,26,4.5,26H6v-1.5C6,24.221,6.22,24,6.5,24S7,24.221,7,24.5V26h1.5C8.78,26,9,26.221,9,26.5z"/>
</g>
<g>
	<path fill="#2D2220" d="M27.98,16.62c0,0,0.01-0.01,0-0.02c-0.021-0.13-0.04-0.27-0.07-0.39V16.2l-0.74-1.33L22.94,7.26
		C22.86,7.12,22.72,7.03,22.57,7c-0.15-0.02-0.311,0.04-0.42,0.15l-2,2c-0.2,0.19-0.2,0.51,0,0.7c0.189,0.2,0.51,0.2,0.699,0
		l1.53-1.53l3.19,5.74C25.37,14.02,25.18,14,25,14h-4.99c-1.08,0-1.75,0.44-2.12,0.81S17.3,15.62,17.18,16h-2.33
		c-0.44-1.45-1.84-2-2.85-2H7.01c-0.2,0-0.39,0.02-0.57,0.05l3.18-5.73l1.53,1.53c0.19,0.2,0.51,0.2,0.7,0c0.2-0.19,0.2-0.51,0-0.7
		l-2-2C9.74,7.04,9.59,6.98,9.43,7C9.28,7.03,9.14,7.12,9.06,7.26L4.8,14.92l-0.64,1.16c-0.07,0.23-0.11,0.43-0.12,0.58
		C4.01,16.84,4.01,16.97,4.01,17c0,0.11,0.01,2.81,1.75,4.56C6.72,22.51,7.97,23,9.5,23c4.34,0,5.5-3.92,5.5-6h2.01
		c0,0.11,0.01,2.81,1.75,4.56C19.72,22.51,20.97,23,22.5,23c4.34,0,5.5-3.92,5.5-6C28,16.87,27.99,16.74,27.98,16.62z M5.36,18.97
		C5.01,17.94,5.01,17.04,5.01,17c0-0.01,0-0.21,0.06-0.48l0.01-0.03c0.08-0.31,0.23-0.71,0.56-1.01C5.94,15.2,6.37,15,7.01,15h3.11
		L5.36,18.97z M9.5,22c-2.01,0-3.12-0.99-3.73-2.09c0.02,0,0.03-0.021,0.05-0.03L11.68,15c0.2,0,0.32,0,0.32,0s2,0,2,2
		C14,17,13.99,22,9.5,22z M18.36,18.97C18.01,17.94,18.01,17.04,18.01,17s0.01-2,2-2h3.11L18.36,18.97z M22.5,22
		c-2.01,0-3.12-0.99-3.73-2.09c0.021,0,0.03-0.021,0.051-0.03L24.68,15c0.2,0,0.32,0,0.32,0s0.77,0,1.36,0.48l0.01,0.01
		c0.27,0.23,0.51,0.57,0.59,1.07C26.99,16.69,27,16.84,27,17C27,17,26.99,22,22.5,22z"/>
</g>
<path fill="#31CFFF" d="M23.12,15l-3.95,3.29c-0.16-0.72-0.16-1.26-0.16-1.29c0-0.04,0.01-2,2-2H23.12z"/>
<path fill="#31CFFF" d="M10.12,15l-3.95,3.29C6.01,17.57,6.01,17.03,6.01,17c0-0.01,0-0.21,0.06-0.48l0.01-0.029
	c0.08-0.311,0.23-0.71,0.56-1.01C6.94,15.2,7.37,15,8.01,15H10.12z"/>
<path fill="#31CFFF" d="M14,17c0,0-0.01,5-4.5,5c-1.26,0-2.17-0.39-2.82-0.96c0.03-0.04,0.08-0.1,0.14-0.16l6.31-5.55
	C13.58,15.59,14,16.09,14,17z"/>
</svg>
