<svg xmlns="http://www.w3.org/2000/svg" viewBox="0 0 139.03 189.48"><defs><style>.cls-1{fill:#395398;}.cls-1,.cls-2,.cls-3,.cls-4,.cls-5{fill-rule:evenodd;}.cls-2{fill:#415fa3;}.cls-3{fill:#6994d1;}.cls-4{fill:#5479ba;}.cls-5{fill:#36568e;}.cls-6{fill:#fff;}</style></defs><title>Asset 3</title><g id="Layer_2" data-name="Layer 2"><g id="Layer_1-2" data-name="Layer 1"><path class="cls-1" d="M117.17,65.35c18.63,29.13,16.59,39.15-14.55,71.72-9.93.69-18.82,10.68-29.66,3.32-2.9-16.63,8.93-27.4,18.3-42.1C68.8,93.33,46.39,91,31.57,72.74,23,65.87,18.1,58.58,23.22,46.54c3.89-9.16,5.42-19.43,7.36-29.36l0,.11C44.61,4.68,59.19,1.78,74.93,14.58c4.34,3.52,9.71,4.88,15.35,5.66,28.44,3.91,32.19,9.41,26.46,38.42C116.27,61.05,116,63.18,117.17,65.35Z"/><path class="cls-2" d="M30.58,17.18c.19,10.89,2.66,22.26-3.71,32.12-7.67,11.87,7.6,13.23,8.84,20.86,8.13,12.74,17.22,24.31,30.7,32.23,8.77,5.14,13.64,13.19,9.32,24.08C67.8,133,60,128.83,54.63,123.81c-14.49-13.5-32.69-21.52-47.71-34.09A63.54,63.54,0,0,1,2.56,84.4C5.79,59.44,20.56,39.31,30.58,17.18Z"/><path class="cls-2" d="M117.17,65.35c-5.45-3.47-2.2-7.76-1.79-12.31,1.45-16,1.14-31-22.54-26.19C87,28,79.62,28.92,75.19,23.25,62.08,6.42,47,7.74,30.53,17.29,39.59,7.68,88-3.86,97.82,1.26,120.47,13.08,126.12,31.8,117.17,65.35Z"/><path class="cls-3" d="M2.56,84.4c1.5,0,3,0,4.5.09C9.71,89.4,14.4,93,16.15,98.42c6.17,19.09,19.55,28.06,39.22,28.77,6.39.23,12.74,1.27,17.3,6.63.45,1.06.89,2.13,1.33,3.2,9.53,8.23,19.09-3.93,28.62,0-12.22,8.52-24.68,13.9-39.07,4.44-4.55-3-9.26-2.46-12.06,2.82-10.33,19.57-22.49,8.41-29.67-.69C8.55,126.79-6,108.93,2.56,84.4Z"/><path class="cls-4" d="M50.44,176.27c.33-4.82,2.34-8.15,7-7.58,6.63.8,8.8,6.24,8.41,11.77-.31,4.21-1.87,10.54-8,8.69C52.4,187.49,51.36,181.2,50.44,176.27Z"/><path class="cls-4" d="M130.88,125.41c5.49,1.19,8.18,4.7,8.15,9.88-.05,5.93-4.07,7.89-9.32,7.52s-8.83-3.19-8-8.94C122.39,128.74,125.64,125.71,130.88,125.41Z"/><path class="cls-3" d="M5.61,153.75c-.56-3.77,1.48-4.87,3.76-4.32,1.83.44,4.2,1.94,4.77,3.53.84,2.39-1,4.49-3.69,3.88C8.56,156.4,7,154.66,5.61,153.75Z"/><path class="cls-5" d="M73.94,127.51c.92-9.71-2.4-18.84-11.4-21.52C44,100.46,40.18,85.4,35.71,70.16,49.87,82.48,65.49,90.81,85.1,89.4c6.44-.45,13.46.24,15.38,8,1.73,7-4.58,9.35-9.31,12C80.36,115.51,82,129.23,74,137l-.12.1C71.32,133.9,71,130.7,73.94,127.51Z"/><path class="cls-4" d="M73.94,127.51l-.06,9.61c-4.44-1.57-8.77-4-13.33-4.57-42.2-5.3-42.21-5.21-53.49-48.06Z"/><path class="cls-6" d="M85.42,147.4V99.75h16l2.4-18.56H85.42V69.33c0-5.38,1.49-9,9.2-9h9.83V43.68a129.75,129.75,0,0,0-14.33-.74C76,42.94,66.24,51.6,66.24,67.49v13.7h-16V99.75h16V147.4Z"/></g></g></svg>