<svg xmlns="http://www.w3.org/2000/svg" viewBox="0 0 167.27 152.91"><defs><style>.cls-1{fill:#b02a9e;}.cls-1,.cls-2,.cls-3,.cls-4,.cls-5,.cls-6,.cls-7,.cls-8{fill-rule:evenodd;}.cls-2{fill:#972aab;}.cls-3{fill:#f04471;}.cls-4{fill:#cf2a8c;}.cls-5{fill:#9f2aa6;}.cls-6{fill:#b52a9b;}.cls-7{fill:#f38259;}.cls-8{fill:#f5ab4a;}.cls-9{fill:#fff;}</style></defs><title>Asset 1</title><g id="Layer_2" data-name="Layer 2"><g id="Layer_1-2" data-name="Layer 1"><path class="cls-1" d="M14,39C5.11,22.23,7.5,13.81,28,5.66s110.28-6.92,103.69,0,1.36,4.8-1,6.77c-7,4.42-14.8,4.13-22.56,4.3-18,.22-35.94,0-53.93.12-13.63.1-24.39,4.59-30.62,17.42C21.11,37.33,18.31,39.68,14,39Z"/><path class="cls-2" d="M127.39,11.47c0-1.56,0-3.13,0-4.69h4.71c3.75,6.68,11.48,3.16,16.45,6.34,6.21,4,4.58,6.78-1.94,8-4.35,3.72-1.44,10-4.94,14,0,3.06,0,6.14,0,9.22-12.89.28-15.44-11.12-21.3-18.81C118.41,18.75,122.12,14.72,127.39,11.47Z"/><path class="cls-3" d="M14,39l5-5.14C38.55,11.76,66.32,16,87.56,22c21,5.93,41.38,20,61.5,31.42,11.05,10.93,12.42,23.54,6.49,37.4-.23,3.84-1.4,7.14-5.16,9-4.65,4.93-3.77,12-6.89,17.59-7.09,7.48-18.73,11.29-25.37,7.44-18.31-10.64-23.56-.28-28.7,13.48-35.83,18.43-33.6,15.49-62.5-14.74C.62,96-.58,70.08,14,39Z"/><path class="cls-4" d="M145.84,57.48C140,58.6,140.52,35.59,129,53.84c-4.48,7-9.25-4-13.32-7.76C90.1,22.45,46.87,17,19,33.88,22.37,16.67,33.27,9.79,50.27,10.25c19.25.53,38.51.39,57.76.54,6.2,4.7,9.54,13.4,19,13.52,9.41,3.24,11.48,13.77,18.89,19l4.91,4.5C153.69,53.35,149.12,55.08,145.84,57.48Z"/><path class="cls-4" d="M89.43,138.29c6.9-12.82-9.34-7.61-11.84-15.89,16.06.06,29.15-6.23,38.63-18,8.49,7.86-1.1,11.38.41,17.72,9.26,1.44,17-2.75,24.39-8,8.81-.59,7.62,4,4.8,9.33Q117.64,130.91,89.43,138.29Z"/><path class="cls-5" d="M145.84,57.48c1.66-3.24,3.3-6.46,5-9.69,12.8,13.11,27.15,26.05,4.73,43C152.52,79.64,156.1,66.55,145.84,57.48Z"/><path class="cls-5" d="M145.82,123.5c-.29-3.78-.93-7.38-4.8-9.33,0-6.8,2.56-12,9.38-14.39C145.31,107,163.28,118.67,145.82,123.5Z"/><path class="cls-1" d="M141.66,36.3c-2.56-6.16-8.84-16.06,4.18-16.73,6.57-2.37,10.71,14,10.71,14S143.77,42.76,141.66,36.3Z"/><path class="cls-6" d="M127,24.31c-1.44,2.46-3.82,7.16-4.17,7-9-3.75-15.41-9.73-14.8-20.54l23.62-.43Z"/><path class="cls-7" d="M33,148.58l-4.48-1.38C9.83,142.3,4.11,124.78,1.34,110.57c-2.73-14-.56-30.13.21-45.3,3.13-9.7,10.1-14.23,20-14.85,2.32-1,4.6-1.3,6.77.36,4.26,1.27,8.17-1.35,12.34-1.16,6.47,1.94,12.14,7.63,11.85,12.65-.81,13.87,6.81,13.88,16.38,12.82,21.39,15.53,19,15.09,9.85,41C70.37,139.59,55.55,148,33,148.58Z"/><path class="cls-8" d="M13.75,137.57c-2.79-.23-5.56-.5-8.34-.79.27-2.8.54-5.58.8-8.37,12.51-5.53,7.57-19.85,14.07-28.14,8.15-10.35,12.82-7,13.95,4.83,5.86,8.35,17.52,4.24,24,11.15l16.37,1.61c-1.68,22.94-22.37,25.53-37,34.64C25.14,154.77,18.62,147.48,13.75,137.57Z"/><path class="cls-9" d="M96.64,120.54H57.12A31.85,31.85,0,0,1,25.31,88.73V53.9A31.85,31.85,0,0,1,57.12,22.09H96.64A31.85,31.85,0,0,1,128.46,53.9V88.73A31.85,31.85,0,0,1,96.64,120.54ZM57.12,29.16A24.77,24.77,0,0,0,32.38,53.9V88.73a24.77,24.77,0,0,0,24.74,24.74H96.64a24.77,24.77,0,0,0,24.75-24.74V53.9A24.77,24.77,0,0,0,96.64,29.16Z"/><path class="cls-9" d="M76.88,99.64A28.32,28.32,0,1,1,105.2,71.32,28.36,28.36,0,0,1,76.88,99.64Zm0-49.57A21.25,21.25,0,1,0,98.13,71.32,21.28,21.28,0,0,0,76.88,50.07Z"/><path class="cls-9" d="M110.64,43.87A5.88,5.88,0,1,1,104.77,38,5.87,5.87,0,0,1,110.64,43.87Z"/></g></g></svg>