<svg xmlns="http://www.w3.org/2000/svg" viewBox="0 0 149.24 161.88"><defs><style>.cls-1{fill:#32ba46;}.cls-1,.cls-2,.cls-3,.cls-4,.cls-5{fill-rule:evenodd;}.cls-2{fill:#4acc59;}.cls-3{fill:#5cd067;}.cls-4{fill:#95fc97;}.cls-5{fill:#73e57b;}.cls-6{fill:none;}.cls-7{fill:#fff;}</style></defs><title>Asset 4</title><g id="Layer_2" data-name="Layer 2"><g id="Layer_1-2" data-name="Layer 1"><path class="cls-1" d="M57.24,160.12l-42-27.71c-5.76-6.69-4.32-13.61-.74-20.6C18.57,105.6,18.26,99,16,92.26a34.83,34.83,0,0,1,.59-18C21,62.08,29.31,52.8,38.21,43.89c7.32-6.76,13.93-14.31,21.95-20.35a24,24,0,0,1,7-3c17-.88,32,7.34,48,11.19A15.66,15.66,0,0,1,120.71,37c3.82,8.21,3.23,17.66,7.35,25.81,3.07,7.34,5.91,14.75,6.55,22.79a40,40,0,0,1-4.1,20.24c-22.44,46.51-33.28,27.33-51.75,48.89C76.55,157.28,62.17,160.71,57.24,160.12Z"/><path class="cls-2" d="M57.24,160.12c11.51-3.37,25.66-3.66,20.11-23-3.42-11.85,7.76-7.7,13.29-10.23,18.77-8.59,40.06-15.47,37.74-42.83,15.49,2.89,9.84,15,10.64,24.34,1.46,16-10.35,22.7-21,30.23C104.76,165.71,81,163,57.24,160.12Z"/><path class="cls-3" d="M118,138.68c2.46-10.77,16.5-14.86,15.81-27.43,4.75-16.74,4.61-32.8-4.07-48.7-8.3-15.22-9.91-32-7.58-49.1,4-2.42,7.85-2.52,11.61.44,22.58,27.69,14.35,59.47,12.34,90.56C144.92,123,144.89,141.61,118,138.68Z"/><path class="cls-3" d="M20.85,73.37q-.13,10.74-.25,21.51c3.23,5.55-1.28,10.82-.63,16.28-3.56,6.64-5.69,13.61-4.73,21.25-16-6.55-10-20.5-10.78-32.16C3.72,83.15,9.94,67.7,15.83,52.16c1.59-.1,3.18-.15,4.78-.12C26.2,59.08,23.74,66.22,20.85,73.37Z"/><path class="cls-4" d="M26.27,36.19c5.79-32.44,35-46.38,58.65-28,.41,1.18.81,2.38,1.22,3.57-14.92,13.63-39.91,4.61-52.55,23.4A10.15,10.15,0,0,1,26.27,36.19Z"/><path class="cls-4" d="M15.83,52.16c2,17.41-4.47,32.8-11.37,48.09C-2.87,81.6-2.5,64.75,15.83,52.16Z"/><path class="cls-3" d="M26.27,36.19l5-.62c1.06,0,2.12.07,3.19.08,4.18,2.4,11,2.92,7.58,10.7q-10.6,13.51-21.2,27Q20.73,62.69,20.61,52,23.45,44.11,26.27,36.19Z"/><path class="cls-4" d="M133.78,13.89l-10.88.17c-13.59,8.88-25.36,2.59-37-4.48,0,0-.95-1.39-1-1.39C102.42-.29,118.89.06,133.78,13.89Z"/><path class="cls-5" d="M85.88,9.58c12.83-2.59,24.59,3.77,37,4.48,1.93,32.58,33.23,61.87,10.92,97.19-1.45-9.12,3.55-19.53-5.44-27.14q-2.73-10.77-5.44-21.56c-6.34-8.08,1.29-19-5.4-27h0c-17.48-6.07-33.74-18.16-53.9-10.78h0C53.42,29.68,44.15,37.36,31.7,35.76l-.42-.19C34,18.85,46.78,15.86,60.49,14.17,69.05,13.12,78.43,16.71,85.88,9.58Z"/><path class="cls-3" d="M63.65,24.81c21.2-12.54,38.29-4.61,53.9,10.78C98.33,38.26,82.44,24.27,63.65,24.81Z"/><path class="cls-3" d="M31.7,35.76c9.19-7.92,19.31-13.1,32-10.94a55.8,55.8,0,0,1-21.6,21.53Z"/><path class="cls-2" d="M117.54,35.58c9,7.53,4.11,17.88,5.4,27C114,55,118.88,44.66,117.54,35.58Z"/><path class="cls-6" d="M81.37,37.05a43.93,43.93,0,0,0-34.64,71l-2.94,15.15,14.28-4.93a44,44,0,1,0,23.3-81.24Z"/><path class="cls-7" d="M81.37,128.55a47.27,47.27,0,0,1-23.7-6.38l-18.52,6.38L43,109A47,47,0,0,1,33.85,81a47.52,47.52,0,1,1,47.52,47.52ZM58.52,114.4l1.43.9a40.5,40.5,0,1,0-10.44-9.4l1,1.27-2.08,10.71Z"/><path class="cls-7" d="M57.38,62.78s2.79-4.88,5.06-5.16,5.2-.28,6,1.21S72.74,69,72.74,69a3.39,3.39,0,0,1-.32,2.93,29.49,29.49,0,0,1-3,3.52,2.59,2.59,0,0,0,0,3.07,55.43,55.43,0,0,0,6.69,8.2C79.81,90.39,87,93,87,93a2.17,2.17,0,0,0,1.67-.51c.65-.65,4.18-5.06,4.18-5.06a2.47,2.47,0,0,1,3-.6c1.88.86,10,4.92,10,4.92a1.77,1.77,0,0,1,1,1.79c0,1.44-.58,5-1.77,6.14s-4.67,4.87-9.9,4.87-17.69-4.26-24.33-10.9S58.26,80.32,56.87,74.2,55.66,65.3,57.38,62.78Z"/></g></g></svg>