<svg xmlns="http://www.w3.org/2000/svg" xmlns:xlink="http://www.w3.org/1999/xlink" viewBox="0 0 271.68 273.78"><defs><style>.cls-1{isolation:isolate;}.cls-2,.cls-3{mix-blend-mode:color;}.cls-2{fill:url(#linear-gradient);}.cls-3{opacity:0.8;fill:url(#linear-gradient-2);}.cls-4{mix-blend-mode:hard-light;fill:url(#linear-gradient-3);}</style><linearGradient id="linear-gradient" x1="-1880.59" y1="566.55" x2="-1628.03" y2="566.55" gradientTransform="translate(-1609.33 758.76) rotate(180) scale(1 1.08)" gradientUnits="userSpaceOnUse"><stop offset="0" stop-color="#80da64"/><stop offset="1" stop-color="#c7d864"/></linearGradient><linearGradient id="linear-gradient-2" x1="-1881.01" y1="589" x2="-1609.33" y2="589" gradientTransform="translate(-1609.33 758.76) rotate(180) scale(1 1.08)" gradientUnits="userSpaceOnUse"><stop offset="0" stop-color="#c7d864"/><stop offset="1" stop-color="#80da64"/></linearGradient><linearGradient id="linear-gradient-3" x1="-1753.71" y1="848.33" x2="-1499.28" y2="848.33" gradientTransform="translate(-1684.44 466.5) rotate(-162.82)" gradientUnits="userSpaceOnUse"><stop offset="0" stop-color="#7af4ab"/><stop offset="0.14" stop-color="#92f29b"/><stop offset="0.33" stop-color="#aaf089"/><stop offset="0.54" stop-color="#bcee7d"/><stop offset="0.75" stop-color="#c7ed75"/><stop offset="1" stop-color="#caed73"/></linearGradient></defs><title>Asset 4</title><g class="cls-1"><g id="Layer_2" data-name="Layer 2"><g id="OBJECTS"><path class="cls-2" d="M199,258.69s173.19-90.88-16.61-200.2S0,84.66,46.09,174C93,264.77,121.48,295.24,199,258.69Z"/><path class="cls-3" d="M271.68,119.13s-8.13-216.29-183.2-66S35.8,252,133.57,241.57C233,230.93,271.68,214.2,271.68,119.13Z"/><path class="cls-4" d="M217.44,206.62s121-145.29-76.79-160.48-149.1,95-81.49,151C127.93,254.18,162,268.2,217.44,206.62Z"/></g></g></g></svg>