<svg xmlns="http://www.w3.org/2000/svg" xmlns:xlink="http://www.w3.org/1999/xlink" viewBox="0 0 293.71 265.69"><defs><style>.cls-1{opacity:0.9;fill:url(#linear-gradient);}.cls-2,.cls-3{opacity:0.8;}.cls-2{fill:url(#radial-gradient);}.cls-3{fill:url(#radial-gradient-2);}</style><linearGradient id="linear-gradient" x1="598.09" y1="-1768.76" x2="836.69" y2="-1768.76" gradientTransform="translate(1637.65 1316.27) rotate(-73.2)" gradientUnits="userSpaceOnUse"><stop offset="0" stop-color="#d3302f"/><stop offset="0.39" stop-color="#d02e2d"/><stop offset="0.72" stop-color="#c52725"/><stop offset="1" stop-color="#b61d1b"/></linearGradient><radialGradient id="radial-gradient" cx="-7.79" cy="264.64" r="376.72" gradientUnits="userSpaceOnUse"><stop offset="0" stop-color="#f9ed32"/><stop offset="0.07" stop-color="#f8d933"/><stop offset="0.21" stop-color="#f7a534"/><stop offset="0.41" stop-color="#f45337"/><stop offset="0.45" stop-color="#f44337"/><stop offset="0.76" stop-color="#de3632"/><stop offset="1" stop-color="#d3302f"/></radialGradient><radialGradient id="radial-gradient-2" cx="-13.53" cy="267.96" r="390.9" gradientTransform="translate(-19.57 31.1) rotate(-11.02)" gradientUnits="userSpaceOnUse"><stop offset="0" stop-color="#ffc200"/><stop offset="0.23" stop-color="#ffae00"/><stop offset="0.45" stop-color="#ff9800"/><stop offset="0.62" stop-color="#ff7e08"/><stop offset="0.86" stop-color="#ff6011"/><stop offset="1" stop-color="#ff5515"/></radialGradient></defs><title>Asset 41</title><g id="Layer_2" data-name="Layer 2"><g id="OBJECTS"><path class="cls-1" d="M12.85,188.19,223.19,264.5A19.49,19.49,0,0,0,249,242.78L209.93,22.46A19.48,19.48,0,0,0,178.21,11L7,155A19.48,19.48,0,0,0,12.85,188.19Z"/><path class="cls-2" d="M123.43,12.28,11.55,206.06a19.49,19.49,0,0,0,16.88,29.23H252.18a19.48,19.48,0,0,0,16.87-29.23L157.18,12.28A19.49,19.49,0,0,0,123.43,12.28Z"/><path class="cls-3" d="M102,13.65,26.45,233.22a20.22,20.22,0,0,0,23,26.42l227.9-44.39a20.22,20.22,0,0,0,11.39-33.12L136.33,7A20.22,20.22,0,0,0,102,13.65Z"/></g></g></svg>