<svg xmlns="http://www.w3.org/2000/svg" xmlns:xlink="http://www.w3.org/1999/xlink" viewBox="0 0 254.96 252.44"><defs><style>.cls-1,.cls-3{opacity:0.8;}.cls-1{fill:url(#radial-gradient);}.cls-2{fill:url(#linear-gradient);}.cls-3{fill:url(#radial-gradient-2);}</style><radialGradient id="radial-gradient" cx="-0.99" cy="263.61" r="394.37" gradientTransform="translate(-20.23 26.39) rotate(-10.91)" gradientUnits="userSpaceOnUse"><stop offset="0" stop-color="#edbfe8"/><stop offset="0.07" stop-color="#eaabd7"/><stop offset="0.22" stop-color="#e477ad"/><stop offset="0.43" stop-color="#d92569"/><stop offset="0.45" stop-color="#d81c61"/><stop offset="0.5" stop-color="#d7256d"/><stop offset="0.73" stop-color="#d1479e"/><stop offset="0.9" stop-color="#cd5dbc"/><stop offset="1" stop-color="#cc65c7"/></radialGradient><linearGradient id="linear-gradient" x1="14.42" y1="120.27" x2="254.96" y2="120.27" gradientUnits="userSpaceOnUse"><stop offset="0" stop-color="#edbfe8"/><stop offset="0.18" stop-color="#eab6e5"/><stop offset="0.48" stop-color="#e19edc"/><stop offset="0.84" stop-color="#d378ce"/><stop offset="1" stop-color="#cc65c7"/></linearGradient><radialGradient id="radial-gradient-2" cx="13.72" cy="247.53" r="369.93" gradientUnits="userSpaceOnUse"><stop offset="0" stop-color="#e194db"/><stop offset="0.09" stop-color="#e080c7"/><stop offset="0.28" stop-color="#dc4e94"/><stop offset="0.45" stop-color="#d81c61"/><stop offset="0.67" stop-color="#b11658"/><stop offset="0.88" stop-color="#931152"/><stop offset="1" stop-color="#880f4f"/></radialGradient></defs><title>Asset 51</title><g id="Layer_2" data-name="Layer 2"><g id="OBJECTS"><path class="cls-1" d="M250.4,178.47a38.56,38.56,0,0,1-30.57,45.16L74,251.74a38.56,38.56,0,0,1-45.16-30.58L.7,75.3A38.56,38.56,0,0,1,31.28,30.14L177.14,2A38.56,38.56,0,0,1,222.3,32.61Z"/><path class="cls-2" d="M221.21,212.86a36.16,36.16,0,0,1-43.66,26.66L42.1,206.79a36.17,36.17,0,0,1-26.66-43.66L48.17,27.69A36.18,36.18,0,0,1,91.83,1L227.28,33.75a36.17,36.17,0,0,1,26.66,43.66Z"/><path class="cls-3" d="M61.42,12.85H200.77A36.18,36.18,0,0,1,236.94,49V188.37a36.18,36.18,0,0,1-36.18,36.18H61.42a36.17,36.17,0,0,1-36.17-36.17V49A36.18,36.18,0,0,1,61.42,12.85Z"/></g></g></svg>